VotoSerifGX-ExtendedLightDisplay.ufo
<glyph name="ampersand" format="2">
  <advance width="817"/>
  <unicode hex="0026"/>
  <outline>
    <contour>
      <point x="276" y="-10" type="curve" smooth="yes"/>
      <point x="419" y="-10"/>
      <point x="495" y="51"/>
      <point x="548" y="116" type="curve"/>
      <point x="677" y="0" type="line"/>
      <point x="811" y="0" type="line"/>
      <point x="811" y="10" type="line"/>
      <point x="789" y="10" type="line" smooth="yes"/>
      <point x="734" y="10"/>
      <point x="709" y="10"/>
      <point x="687" y="27" type="curve" smooth="yes"/>
      <point x="566" y="138" type="line"/>
      <point x="602" y="183"/>
      <point x="625" y="266"/>
      <point x="634" y="324" type="curve" smooth="yes"/>
      <point x="643" y="401"/>
      <point x="641" y="405"/>
      <point x="714" y="405" type="curve" smooth="yes"/>
      <point x="766" y="405" type="line"/>
      <point x="766" y="415" type="line"/>
      <point x="611" y="415" type="line"/>
      <point x="611" y="410" type="line" smooth="yes"/>
      <point x="611" y="343"/>
      <point x="596" y="234"/>
      <point x="547" y="151" type="curve"/>
      <point x="253" y="412" type="line"/>
      <point x="421" y="442"/>
      <point x="515" y="485"/>
      <point x="515" y="582" type="curve" smooth="yes"/>
      <point x="515" y="653"/>
      <point x="465" y="724"/>
      <point x="321" y="724" type="curve" smooth="yes"/>
      <point x="158" y="724"/>
      <point x="114" y="641"/>
      <point x="114" y="582" type="curve" smooth="yes"/>
      <point x="114" y="490"/>
      <point x="162" y="454"/>
      <point x="210" y="414" type="curve"/>
      <point x="91" y="382"/>
      <point x="23" y="313"/>
      <point x="23" y="192" type="curve" smooth="yes"/>
      <point x="23" y="76"/>
      <point x="126" y="-10"/>
    </contour>
    <contour>
      <point x="276" y="0" type="curve" smooth="yes"/>
      <point x="142" y="0"/>
      <point x="51" y="87"/>
      <point x="51" y="204" type="curve" smooth="yes"/>
      <point x="51" y="345"/>
      <point x="154" y="391"/>
      <point x="220" y="405" type="curve"/>
      <point x="531" y="129" type="line"/>
      <point x="485" y="56"/>
      <point x="404" y="0"/>
    </contour>
    <contour>
      <point x="243" y="422" type="curve"/>
      <point x="190" y="463"/>
      <point x="142" y="494"/>
      <point x="142" y="581" type="curve" smooth="yes"/>
      <point x="142" y="667"/>
      <point x="205" y="714"/>
      <point x="326" y="714" type="curve" smooth="yes"/>
      <point x="429" y="714"/>
      <point x="487" y="659"/>
      <point x="487" y="581" type="curve" smooth="yes"/>
      <point x="487" y="507"/>
      <point x="420" y="448"/>
    </contour>
  </outline>
</glyph>
<glyph name="parenleft" format="2">
  <advance width="335"/>
  <unicode hex="0028"/>
  <outline>
    <contour>
      <point x="295" y="-113" type="curve"/>
      <point x="295" y="-101" type="line"/>
      <point x="64" y="3"/>
      <point x="99" y="208"/>
      <point x="99" y="315" type="curve" smooth="yes"/>
      <point x="99" y="424"/>
      <point x="58" y="645"/>
      <point x="295" y="731" type="curve"/>
      <point x="295" y="743" type="line"/>
      <point x="117" y="684"/>
      <point x="71" y="609"/>
      <point x="71" y="315" type="curve" smooth="yes"/>
      <point x="71" y="26"/>
      <point x="117" y="-50"/>
    </contour>
  </outline>
</glyph>
<glyph name="asterisk" format="2">
  <advance width="497"/>
  <unicode hex="002A"/>
  <outline>
    <contour>
      <point x="229" y="374" type="line"/>
      <point x="255" y="374" type="line"/>
      <point x="249" y="549" type="line"/>
      <point x="417" y="466" type="line"/>
      <point x="425" y="492" type="line"/>
      <point x="248" y="567" type="line"/>
      <point x="423" y="645" type="line"/>
      <point x="417" y="670" type="line"/>
      <point x="249" y="585" type="line"/>
      <point x="253" y="760" type="line"/>
      <point x="227" y="760" type="line"/>
      <point x="234" y="586" type="line"/>
      <point x="66" y="670" type="line"/>
      <point x="59" y="648" type="line"/>
      <point x="236" y="569" type="line"/>
      <point x="59" y="489" type="line"/>
      <point x="68" y="464" type="line"/>
      <point x="234" y="550" type="line"/>
    </contour>
  </outline>
</glyph>
<glyph name="eight" format="2">
  <advance width="693"/>
  <unicode hex="0038"/>
  <outline>
    <contour>
      <point x="346" y="-10" type="curve" smooth="yes"/>
      <point x="501" y="-10"/>
      <point x="609" y="47"/>
      <point x="609" y="162" type="curve" smooth="yes"/>
      <point x="609" y="260"/>
      <point x="571" y="305"/>
      <point x="388" y="374" type="curve"/>
      <point x="521" y="409"/>
      <point x="583" y="470"/>
      <point x="583" y="568" type="curve" smooth="yes"/>
      <point x="583" y="652"/>
      <point x="505" y="724"/>
      <point x="354" y="724" type="curve" smooth="yes"/>
      <point x="215" y="724"/>
      <point x="127" y="671"/>
      <point x="127" y="558" type="curve" smooth="yes"/>
      <point x="127" y="468"/>
      <point x="180" y="428"/>
      <point x="327" y="368" type="curve"/>
      <point x="163" y="324"/>
      <point x="97" y="260"/>
      <point x="97" y="167" type="curve" smooth="yes"/>
      <point x="97" y="56"/>
      <point x="182" y="-10"/>
    </contour>
    <contour>
      <point x="346" y="0" type="curve" smooth="yes"/>
      <point x="198" y="0"/>
      <point x="125" y="50"/>
      <point x="125" y="172" type="curve" smooth="yes"/>
      <point x="125" y="277"/>
      <point x="198" y="329"/>
      <point x="342" y="363" type="curve"/>
      <point x="521" y="298"/>
      <point x="581" y="263"/>
      <point x="581" y="168" type="curve" smooth="yes"/>
      <point x="581" y="43"/>
      <point x="488" y="0"/>
    </contour>
    <contour>
      <point x="371" y="380" type="curve"/>
      <point x="198" y="438"/>
      <point x="155" y="489"/>
      <point x="155" y="564" type="curve" smooth="yes"/>
      <point x="155" y="666"/>
      <point x="224" y="714"/>
      <point x="354" y="714" type="curve" smooth="yes"/>
      <point x="502" y="714"/>
      <point x="555" y="650"/>
      <point x="555" y="560" type="curve" smooth="yes"/>
      <point x="555" y="469"/>
      <point x="485" y="401"/>
    </contour>
  </outline>
</glyph>
<glyph name="B" format="2">
  <advance width="770"/>
  <unicode hex="0042"/>
  <anchor x="385" y="0" name="bottom"/>
  <anchor x="385" y="714" name="top"/>
  <anchor x="750" y="714" name="topright"/>
  <outline>
    <contour>
      <point x="68" y="0" type="line"/>
      <point x="398" y="0" type="line" smooth="yes"/>
      <point x="571" y="0"/>
      <point x="664" y="58"/>
      <point x="664" y="211" type="curve" smooth="yes"/>
      <point x="664" y="293"/>
      <point x="608" y="367"/>
      <point x="468" y="379" type="curve"/>
      <point x="468" y="381" type="line"/>
      <point x="560" y="402"/>
      <point x="626" y="432"/>
      <point x="626" y="539" type="curve" smooth="yes"/>
      <point x="626" y="673"/>
      <point x="545" y="714"/>
      <point x="360" y="714" type="curve" smooth="yes"/>
      <point x="68" y="714" type="line"/>
      <point x="68" y="704" type="line"/>
      <point x="133" y="704" type="line" smooth="yes"/>
      <point x="183" y="704"/>
      <point x="189" y="692"/>
      <point x="189" y="615" type="curve" smooth="yes"/>
      <point x="189" y="96" type="line" smooth="yes"/>
      <point x="189" y="21"/>
      <point x="183" y="10"/>
      <point x="133" y="10" type="curve" smooth="yes"/>
      <point x="68" y="10" type="line"/>
    </contour>
    <contour>
      <point x="217" y="10" type="line"/>
      <point x="217" y="372" type="line"/>
      <point x="401" y="372" type="line" smooth="yes"/>
      <point x="582" y="372"/>
      <point x="635" y="328"/>
      <point x="635" y="202" type="curve" smooth="yes"/>
      <point x="635" y="77"/>
      <point x="564" y="10"/>
      <point x="390" y="10" type="curve" smooth="yes"/>
    </contour>
    <contour>
      <point x="217" y="382" type="line"/>
      <point x="217" y="704" type="line"/>
      <point x="346" y="704" type="line" smooth="yes"/>
      <point x="526" y="704"/>
      <point x="597" y="671"/>
      <point x="597" y="544" type="curve" smooth="yes"/>
      <point x="597" y="434"/>
      <point x="553" y="382"/>
      <point x="355" y="382" type="curve" smooth="yes"/>
    </contour>
  </outline>
</glyph>
<glyph name="E" format="2">
  <advance width="721"/>
  <unicode hex="0045"/>
  <anchor x="361" y="0" name="bottom"/>
  <anchor x="361" y="714" name="top"/>
  <anchor x="701" y="714" name="topright"/>
  <outline>
    <contour>
      <point x="64" y="0" type="line"/>
      <point x="642" y="0" type="line"/>
      <point x="652" y="162" type="line"/>
      <point x="642" y="162" type="line"/>
      <point x="638" y="79" type="line" smooth="yes"/>
      <point x="635" y="30"/>
      <point x="627" y="10"/>
      <point x="588" y="10" type="curve" smooth="yes"/>
      <point x="219" y="10" type="line"/>
      <point x="217" y="370" type="line"/>
      <point x="515" y="370" type="line"/>
      <point x="515" y="380" type="line"/>
      <point x="217" y="380" type="line"/>
      <point x="217" y="704" type="line"/>
      <point x="547" y="704" type="line" smooth="yes"/>
      <point x="583" y="704"/>
      <point x="590" y="683"/>
      <point x="593" y="655" type="curve" smooth="yes"/>
      <point x="599" y="552" type="line"/>
      <point x="609" y="552" type="line"/>
      <point x="600" y="714" type="line"/>
      <point x="64" y="714" type="line"/>
      <point x="64" y="704" type="line"/>
      <point x="133" y="704" type="line" smooth="yes"/>
      <point x="183" y="704"/>
      <point x="189" y="693"/>
      <point x="189" y="616" type="curve" smooth="yes"/>
      <point x="189" y="98" type="line" smooth="yes"/>
      <point x="189" y="21"/>
      <point x="183" y="10"/>
      <point x="133" y="10" type="curve" smooth="yes"/>
      <point x="64" y="10" type="line"/>
    </contour>
  </outline>
</glyph>
<glyph name="P" format="2">
  <advance width="691"/>
  <unicode hex="0050"/>
  <anchor x="203" y="0" name="bottom"/>
  <anchor x="345" y="714" name="top"/>
  <anchor x="666" y="714" name="topright"/>
  <outline>
    <contour>
      <point x="64" y="0" type="line"/>
      <point x="364" y="0" type="line"/>
      <point x="364" y="10" type="line"/>
      <point x="273" y="10" type="line" smooth="yes"/>
      <point x="223" y="10"/>
      <point x="217" y="21"/>
      <point x="217" y="98" type="curve" smooth="yes"/>
      <point x="217" y="300" type="line"/>
      <point x="347" y="300" type="line" smooth="yes"/>
      <point x="555" y="300"/>
      <point x="629" y="367"/>
      <point x="629" y="509" type="curve" smooth="yes"/>
      <point x="629" y="631"/>
      <point x="559" y="714"/>
      <point x="381" y="714" type="curve" smooth="yes"/>
      <point x="64" y="714" type="line"/>
      <point x="64" y="704" type="line"/>
      <point x="133" y="704" type="line" smooth="yes"/>
      <point x="183" y="704"/>
      <point x="189" y="693"/>
      <point x="189" y="616" type="curve" smooth="yes"/>
      <point x="189" y="97" type="line" smooth="yes"/>
      <point x="189" y="21"/>
      <point x="183" y="10"/>
      <point x="133" y="10" type="curve" smooth="yes"/>
      <point x="64" y="10" type="line"/>
    </contour>
    <contour>
      <point x="217" y="310" type="line"/>
      <point x="217" y="704" type="line"/>
      <point x="381" y="704" type="line" smooth="yes"/>
      <point x="535" y="704"/>
      <point x="601" y="634"/>
      <point x="601" y="509" type="curve" smooth="yes"/>
      <point x="601" y="397"/>
      <point x="543" y="310"/>
      <point x="342" y="310" type="curve" smooth="yes"/>
    </contour>
  </outline>
</glyph>
<glyph name="b" format="2">
  <advance width="701"/>
  <unicode hex="0062"/>
  <anchor x="350" y="0" name="bottom"/>
  <anchor x="350" y="760" name="top"/>
  <anchor x="621" y="760" name="topright"/>
  <outline>
    <contour>
      <point x="377" y="-10" type="curve" smooth="yes"/>
      <point x="526" y="-10"/>
      <point x="621" y="110"/>
      <point x="621" y="267" type="curve" smooth="yes"/>
      <point x="621" y="454"/>
      <point x="553" y="544"/>
      <point x="392" y="544" type="curve" smooth="yes"/>
      <point x="280" y="544"/>
      <point x="206" y="482"/>
      <point x="176" y="366" type="curve"/>
      <point x="174" y="366" type="line"/>
      <point x="175" y="443"/>
      <point x="176" y="518"/>
      <point x="176" y="559" type="curve" smooth="yes"/>
      <point x="176" y="760" type="line"/>
      <point x="26" y="760" type="line"/>
      <point x="26" y="750" type="line"/>
      <point x="79" y="750" type="line" smooth="yes"/>
      <point x="141" y="750"/>
      <point x="148" y="747"/>
      <point x="148" y="673" type="curve" smooth="yes"/>
      <point x="148" y="91" type="line" smooth="yes"/>
      <point x="148" y="10"/>
      <point x="147" y="10"/>
      <point x="58" y="10" type="curve" smooth="yes"/>
      <point x="26" y="10" type="line"/>
      <point x="26" y="0" type="line"/>
      <point x="175" y="0" type="line"/>
      <point x="175" y="152" type="line"/>
      <point x="177" y="152" type="line"/>
      <point x="208" y="19"/>
      <point x="296" y="-10"/>
    </contour>
    <contour>
      <point x="385" y="10" type="curve" smooth="yes"/>
      <point x="212" y="10"/>
      <point x="175" y="124"/>
      <point x="175" y="270" type="curve" smooth="yes"/>
      <point x="175" y="408"/>
      <point x="234" y="524"/>
      <point x="383" y="524" type="curve" smooth="yes"/>
      <point x="536" y="524"/>
      <point x="593" y="450"/>
      <point x="593" y="271" type="curve" smooth="yes"/>
      <point x="593" y="125"/>
      <point x="518" y="10"/>
    </contour>
  </outline>
</glyph>
<glyph name="y" format="2">
  <advance width="677"/>
  <unicode hex="0079"/>
  <anchor x="199" y="-240" name="bottom"/>
  <anchor x="339" y="536" name="top"/>
  <anchor x="667" y="536" name="topright"/>
  <outline>
    <contour>
      <point x="66" y="-240" type="line"/>
      <point x="67" y="-240" type="line" smooth="yes"/>
      <point x="291" y="-240"/>
      <point x="269" y="-196"/>
      <point x="371" y="62" type="curve" smooth="yes"/>
      <point x="566" y="514" type="line" smooth="yes"/>
      <point x="578" y="534"/>
      <point x="585" y="526"/>
      <point x="653" y="526" type="curve" smooth="yes"/>
      <point x="656" y="526" type="line"/>
      <point x="656" y="536" type="line"/>
      <point x="445" y="536" type="line"/>
      <point x="445" y="526" type="line"/>
      <point x="509" y="526" type="line" smooth="yes"/>
      <point x="543" y="526"/>
      <point x="550" y="520"/>
      <point x="550" y="506" type="curve" smooth="yes"/>
      <point x="550" y="495"/>
      <point x="539" y="466"/>
      <point x="525" y="432" type="curve" smooth="yes"/>
      <point x="407" y="142" type="line" smooth="yes"/>
      <point x="384" y="90"/>
      <point x="373" y="79"/>
      <point x="357" y="41" type="curve"/>
      <point x="334" y="87"/>
      <point x="279" y="200"/>
      <point x="269" y="199" type="curve" smooth="yes"/>
      <point x="174" y="401" type="line" smooth="yes"/>
      <point x="141" y="477"/>
      <point x="131" y="490"/>
      <point x="131" y="505" type="curve" smooth="yes"/>
      <point x="131" y="516"/>
      <point x="132" y="526"/>
      <point x="165" y="526" type="curve" smooth="yes"/>
      <point x="218" y="526" type="line"/>
      <point x="218" y="536" type="line"/>
      <point x="13" y="536" type="line"/>
      <point x="13" y="526" type="line"/>
      <point x="18" y="526" type="line" smooth="yes"/>
      <point x="82" y="526"/>
      <point x="84" y="529"/>
      <point x="104" y="493" type="curve" smooth="yes"/>
      <point x="345" y="13" type="line"/>
      <point x="251" y="-223"/>
      <point x="253" y="-226"/>
      <point x="66" y="-230" type="curve"/>
    </contour>
  </outline>
</glyph>
<glyph name="braceleft" format="2">
  <advance width="506"/>
  <unicode hex="007B"/>
  <outline>
    <contour>
      <point x="372" y="-132" type="curve" smooth="yes"/>
      <point x="411" y="-132" type="line"/>
      <point x="411" y="-122" type="line"/>
      <point x="367" y="-122" type="line" smooth="yes"/>
      <point x="302" y="-122"/>
      <point x="274" y="-81"/>
      <point x="274" y="-1" type="curve" smooth="yes"/>
      <point x="274" y="186" type="line" smooth="yes"/>
      <point x="274" y="261"/>
      <point x="231" y="309"/>
      <point x="169" y="313" type="curve"/>
      <point x="169" y="315" type="line"/>
      <point x="225" y="315"/>
      <point x="274" y="373"/>
      <point x="274" y="443" type="curve" smooth="yes"/>
      <point x="274" y="626" type="line" smooth="yes"/>
      <point x="274" y="715"/>
      <point x="305" y="750"/>
      <point x="377" y="750" type="curve" smooth="yes"/>
      <point x="411" y="750" type="line"/>
      <point x="411" y="760" type="line"/>
      <point x="374" y="760" type="line" smooth="yes"/>
      <point x="296" y="760"/>
      <point x="246" y="710"/>
      <point x="246" y="621" type="curve" smooth="yes"/>
      <point x="246" y="445" type="line" smooth="yes"/>
      <point x="246" y="350"/>
      <point x="250" y="324"/>
      <point x="99" y="320" type="curve"/>
      <point x="99" y="310" type="line"/>
      <point x="232" y="306"/>
      <point x="246" y="292"/>
      <point x="246" y="183" type="curve" smooth="yes"/>
      <point x="246" y="8" type="line" smooth="yes"/>
      <point x="246" y="-79"/>
      <point x="296" y="-132"/>
    </contour>
  </outline>
</glyph>
<glyph name="exclamdown" format="2">
  <advance width="326"/>
  <unicode hex="00A1"/>
  <outline>
    <contour>
      <point x="137" y="-178" type="line"/>
      <point x="165" y="-178" type="line"/>
      <point x="159" y="369" type="line"/>
      <point x="144" y="369" type="line"/>
    </contour>
    <contour>
      <point x="152" y="463" type="curve" smooth="yes"/>
      <point x="162" y="463"/>
      <point x="172" y="471"/>
      <point x="172" y="501" type="curve" smooth="yes"/>
      <point x="172" y="532"/>
      <point x="162" y="541"/>
      <point x="152" y="541" type="curve" smooth="yes"/>
      <point x="141" y="541"/>
      <point x="132" y="532"/>
      <point x="132" y="501" type="curve" smooth="yes"/>
      <point x="132" y="471"/>
      <point x="141" y="463"/>
    </contour>
  </outline>
</glyph>
<glyph name="periodcentered" format="2">
  <advance width="231"/>
  <unicode hex="00B7"/>
  <outline>
    <contour>
      <point x="99" y="320" type="curve" smooth="yes"/>
      <point x="108" y="320"/>
      <point x="115" y="328"/>
      <point x="115" y="358" type="curve" smooth="yes"/>
      <point x="115" y="388"/>
      <point x="108" y="394"/>
      <point x="99" y="394" type="curve" smooth="yes"/>
      <point x="95" y="394"/>
      <point x="86" y="388"/>
      <point x="86" y="358" type="curve" smooth="yes"/>
      <point x="86" y="328"/>
      <point x="95" y="320"/>
    </contour>
  </outline>
</glyph>
<glyph name="Hbar" format="2">
  <advance width="939"/>
  <unicode hex="0126"/>
  <anchor x="470" y="0" name="bottom"/>
  <anchor x="470" y="714" name="top"/>
  <outline>
    <contour>
      <point x="63" y="0" type="line"/>
      <point x="337" y="0" type="line"/>
      <point x="337" y="10" type="line"/>
      <point x="272" y="10" type="line" smooth="yes"/>
      <point x="222" y="10"/>
      <point x="216" y="21"/>
      <point x="216" y="98" type="curve" smooth="yes"/>
      <point x="216" y="369" type="line"/>
      <point x="724" y="369" type="line"/>
      <point x="724" y="98" type="line" smooth="yes"/>
      <point x="724" y="21"/>
      <point x="718" y="10"/>
      <point x="668" y="10" type="curve" smooth="yes"/>
      <point x="603" y="10" type="line"/>
      <point x="603" y="0" type="line"/>
      <point x="875" y="0" type="line"/>
      <point x="875" y="10" type="line"/>
      <point x="808" y="10" type="line" smooth="yes"/>
      <point x="758" y="10"/>
      <point x="752" y="21"/>
      <point x="752" y="98" type="curve" smooth="yes"/>
      <point x="752" y="530" type="line"/>
      <point x="856" y="530" type="line"/>
      <point x="856" y="540" type="line"/>
      <point x="752" y="540" type="line"/>
      <point x="752" y="616" type="line" smooth="yes"/>
      <point x="752" y="693"/>
      <point x="758" y="704"/>
      <point x="808" y="704" type="curve" smooth="yes"/>
      <point x="875" y="704" type="line"/>
      <point x="875" y="714" type="line"/>
      <point x="603" y="714" type="line"/>
      <point x="603" y="704" type="line"/>
      <point x="668" y="704" type="line" smooth="yes"/>
      <point x="718" y="704"/>
      <point x="724" y="693"/>
      <point x="724" y="616" type="curve" smooth="yes"/>
      <point x="724" y="540" type="line"/>
      <point x="216" y="540" type="line"/>
      <point x="216" y="616" type="line" smooth="yes"/>
      <point x="216" y="693"/>
      <point x="222" y="704"/>
      <point x="272" y="704" type="curve" smooth="yes"/>
      <point x="337" y="704" type="line"/>
      <point x="337" y="714" type="line"/>
      <point x="63" y="714" type="line"/>
      <point x="63" y="704" type="line"/>
      <point x="132" y="704" type="line" smooth="yes"/>
      <point x="182" y="704"/>
      <point x="188" y="693"/>
      <point x="188" y="616" type="curve" smooth="yes"/>
      <point x="188" y="540" type="line"/>
      <point x="83" y="540" type="line"/>
      <point x="83" y="530" type="line"/>
      <point x="188" y="530" type="line"/>
      <point x="188" y="98" type="line" smooth="yes"/>
      <point x="188" y="21"/>
      <point x="182" y="10"/>
      <point x="132" y="10" type="curve" smooth="yes"/>
      <point x="63" y="10" type="line"/>
    </contour>
    <contour>
      <point x="216" y="379" type="line"/>
      <point x="216" y="530" type="line"/>
      <point x="724" y="530" type="line"/>
      <point x="724" y="379" type="line"/>
    </contour>
  </outline>
</glyph>
<glyph name="uni0188" format="2">
  <advance width="549"/>
  <unicode hex="0188"/>
  <anchor x="274" y="0" name="bottom"/>
  <anchor x="274" y="760" name="top"/>
  <outline>
    <contour>
      <point x="315" y="-10" type="curve" smooth="yes"/>
      <point x="440" y="-10"/>
      <point x="506" y="60"/>
      <point x="506" y="89" type="curve" smooth="yes"/>
      <point x="506" y="98"/>
      <point x="508" y="114"/>
      <point x="494" y="118" type="curve"/>
      <point x="464" y="40"/>
      <point x="419" y="0"/>
      <point x="315" y="0" type="curve" smooth="yes"/>
      <point x="216" y="0"/>
      <point x="108" y="105"/>
      <point x="108" y="264" type="curve" smooth="yes"/>
      <point x="108" y="457"/>
      <point x="195" y="532"/>
      <point x="316" y="532" type="curve" smooth="yes"/>
      <point x="410" y="532"/>
      <point x="458" y="459"/>
      <point x="458" y="406" type="curve"/>
      <point x="486" y="408"/>
      <point x="493" y="420"/>
      <point x="493" y="429" type="curve" smooth="yes"/>
      <point x="493" y="607" type="line" smooth="yes"/>
      <point x="493" y="714"/>
      <point x="514" y="739"/>
      <point x="551" y="739" type="curve" smooth="yes"/>
      <point x="578" y="739"/>
      <point x="595" y="730"/>
      <point x="613" y="718" type="curve"/>
      <point x="621" y="726"/>
      <point x="622" y="732"/>
      <point x="622" y="732" type="curve" smooth="yes"/>
      <point x="622" y="743"/>
      <point x="593" y="766"/>
      <point x="557" y="766" type="curve" smooth="yes"/>
      <point x="480" y="766"/>
      <point x="483" y="694"/>
      <point x="483" y="623" type="curve" smooth="yes"/>
      <point x="483" y="452" type="line"/>
      <point x="469" y="517"/>
      <point x="391" y="542"/>
      <point x="324" y="542" type="curve" smooth="yes"/>
      <point x="188" y="542"/>
      <point x="80" y="471"/>
      <point x="80" y="263" type="curve" smooth="yes"/>
      <point x="80" y="101"/>
      <point x="188" y="-10"/>
    </contour>
  </outline>
</glyph>
<glyph name="uni0196" format="2">
  <advance width="398"/>
  <unicode hex="0196"/>
  <anchor x="200" y="0" name="bottom"/>
  <anchor x="200" y="714" name="top"/>
  <outline>
    <contour>
      <point x="267" y="-10" type="curve" smooth="yes"/>
      <point x="291" y="-10"/>
      <point x="305" y="-10"/>
      <point x="329" y="-8" type="curve"/>
      <point x="329" y="3" type="line"/>
      <point x="309" y="0"/>
      <point x="297" y="0"/>
      <point x="263" y="0" type="curve" smooth="yes"/>
      <point x="203" y="0"/>
      <point x="214" y="22"/>
      <point x="214" y="88" type="curve" smooth="yes"/>
      <point x="214" y="614" type="line" smooth="yes"/>
      <point x="214" y="693"/>
      <point x="216" y="704"/>
      <point x="274" y="704" type="curve" smooth="yes"/>
      <point x="330" y="704" type="line"/>
      <point x="330" y="714" type="line"/>
      <point x="64" y="714" type="line"/>
      <point x="64" y="704" type="line"/>
      <point x="132" y="704" type="line" smooth="yes"/>
      <point x="178" y="704"/>
      <point x="186" y="693"/>
      <point x="186" y="614" type="curve" smooth="yes"/>
      <point x="186" y="72" type="line" smooth="yes"/>
      <point x="186" y="24"/>
      <point x="182" y="-10"/>
    </contour>
  </outline>
</glyph>
<glyph name="uni019B" format="2">
  <advance width="603"/>
  <unicode hex="019B"/>
  <anchor x="302" y="0" name="bottom"/>
  <anchor x="302" y="770" name="top"/>
  <outline>
    <contour>
      <point x="22" y="0" type="line"/>
      <point x="56" y="0" type="line"/>
      <point x="223" y="294" type="line" smooth="yes"/>
      <point x="251" y="341"/>
      <point x="300" y="420"/>
      <point x="327" y="448" type="curve"/>
      <point x="331" y="448" type="line"/>
      <point x="359" y="349"/>
      <point x="398" y="244"/>
      <point x="423" y="132" type="curve" smooth="yes"/>
      <point x="440" y="54"/>
      <point x="460" y="0"/>
      <point x="566" y="0" type="curve" smooth="yes"/>
      <point x="598" y="0" type="line"/>
      <point x="598" y="10" type="line"/>
      <point x="592" y="10" type="line" smooth="yes"/>
      <point x="504" y="10"/>
      <point x="475" y="19"/>
      <point x="442" y="134" type="curve" smooth="yes"/>
      <point x="316" y="566" type="line" smooth="yes"/>
      <point x="308" y="593"/>
      <point x="300" y="612"/>
      <point x="293" y="633" type="curve"/>
      <point x="420" y="695" type="line"/>
      <point x="420" y="706" type="line"/>
      <point x="288" y="642" type="line"/>
      <point x="232" y="776"/>
      <point x="166" y="770"/>
      <point x="141" y="770" type="curve" smooth="yes"/>
      <point x="73" y="770"/>
      <point x="35" y="742"/>
      <point x="35" y="722" type="curve" smooth="yes"/>
      <point x="35" y="706"/>
      <point x="46" y="702"/>
      <point x="62" y="703" type="curve"/>
      <point x="74" y="750"/>
      <point x="111" y="764"/>
      <point x="147" y="760" type="curve" smooth="yes"/>
      <point x="209" y="756"/>
      <point x="239" y="716"/>
      <point x="274" y="635" type="curve"/>
      <point x="158" y="580" type="line"/>
      <point x="158" y="569" type="line"/>
      <point x="277" y="626" type="line"/>
      <point x="289" y="594"/>
      <point x="302" y="552"/>
      <point x="317" y="502" type="curve"/>
    </contour>
  </outline>
</glyph>
<glyph name="Ohorn" format="2">
  <advance width="899"/>
  <unicode hex="01A0"/>
  <anchor x="449" y="0" name="bottom"/>
  <anchor x="449" y="714" name="top"/>
  <outline>
    <contour>
      <point x="422" y="-10" type="curve" smooth="yes"/>
      <point x="686" y="-10"/>
      <point x="769" y="145"/>
      <point x="769" y="358" type="curve" smooth="yes"/>
      <point x="769" y="434"/>
      <point x="758" y="501"/>
      <point x="733" y="557" type="curve"/>
      <point x="798" y="551"/>
      <point x="869" y="593"/>
      <point x="869" y="709" type="curve" smooth="yes"/>
      <point x="869" y="740"/>
      <point x="856" y="770"/>
      <point x="835" y="770" type="curve" smooth="yes"/>
      <point x="825" y="770"/>
      <point x="809" y="766"/>
      <point x="809" y="751" type="curve" smooth="yes"/>
      <point x="809" y="718"/>
      <point x="858" y="705"/>
      <point x="858" y="686" type="curve" smooth="yes"/>
      <point x="858" y="611"/>
      <point x="794" y="563"/>
      <point x="728" y="567" type="curve"/>
      <point x="678" y="663"/>
      <point x="585" y="725"/>
      <point x="423" y="725" type="curve" smooth="yes"/>
      <point x="196" y="725"/>
      <point x="72" y="588"/>
      <point x="72" y="359" type="curve" smooth="yes"/>
      <point x="72" y="113"/>
      <point x="190" y="-10"/>
    </contour>
    <contour>
      <point x="422" y="0" type="curve" smooth="yes"/>
      <point x="207" y="0"/>
      <point x="100" y="118"/>
      <point x="100" y="358" type="curve" smooth="yes"/>
      <point x="100" y="587"/>
      <point x="213" y="715"/>
      <point x="423" y="715" type="curve" smooth="yes"/>
      <point x="654" y="715"/>
      <point x="741" y="587"/>
      <point x="741" y="358" type="curve" smooth="yes"/>
      <point x="741" y="129"/>
      <point x="656" y="0"/>
    </contour>
  </outline>
</glyph>
<glyph name="ohorn" format="2">
  <advance width="710"/>
  <unicode hex="01A1"/>
  <anchor x="356" y="0" name="bottom"/>
  <anchor x="356" y="536" name="top"/>
  <outline>
    <contour>
      <point x="325" y="-10" type="curve" smooth="yes"/>
      <point x="486" y="-10"/>
      <point x="570" y="85"/>
      <point x="570" y="267" type="curve" smooth="yes"/>
      <point x="570" y="326"/>
      <point x="561" y="373"/>
      <point x="545" y="412" type="curve"/>
      <point x="611" y="408"/>
      <point x="681" y="451"/>
      <point x="681" y="565" type="curve" smooth="yes"/>
      <point x="681" y="596"/>
      <point x="668" y="626"/>
      <point x="647" y="626" type="curve" smooth="yes"/>
      <point x="637" y="626"/>
      <point x="621" y="622"/>
      <point x="621" y="607" type="curve" smooth="yes"/>
      <point x="621" y="574"/>
      <point x="670" y="561"/>
      <point x="670" y="542" type="curve" smooth="yes"/>
      <point x="670" y="469"/>
      <point x="607" y="419"/>
      <point x="541" y="423" type="curve"/>
      <point x="503" y="506"/>
      <point x="430" y="542"/>
      <point x="333" y="542" type="curve" smooth="yes"/>
      <point x="173" y="542"/>
      <point x="82" y="457"/>
      <point x="82" y="267" type="curve" smooth="yes"/>
      <point x="82" y="82"/>
      <point x="177" y="-10"/>
    </contour>
    <contour>
      <point x="324" y="0" type="curve" smooth="yes"/>
      <point x="175" y="0"/>
      <point x="110" y="99"/>
      <point x="110" y="267" type="curve" smooth="yes"/>
      <point x="110" y="447"/>
      <point x="178" y="532"/>
      <point x="335" y="532" type="curve" smooth="yes"/>
      <point x="471" y="532"/>
      <point x="542" y="457"/>
      <point x="542" y="267" type="curve" smooth="yes"/>
      <point x="542" y="112"/>
      <point x="485" y="0"/>
    </contour>
  </outline>
</glyph>
<glyph name="uni01AD" format="2">
  <advance width="343"/>
  <unicode hex="01AD"/>
  <anchor x="171" y="0" name="bottom"/>
  <anchor x="171" y="762" name="top"/>
  <outline>
    <contour>
      <point x="237" y="-10" type="curve" smooth="yes"/>
      <point x="262" y="-10"/>
      <point x="282" y="-10"/>
      <point x="309" y="-5" type="curve"/>
      <point x="309" y="5" type="line"/>
      <point x="286" y="1"/>
      <point x="266" y="0"/>
      <point x="237" y="0" type="curve" smooth="yes"/>
      <point x="167" y="0"/>
      <point x="145" y="37"/>
      <point x="145" y="139" type="curve" smooth="yes"/>
      <point x="145" y="526" type="line"/>
      <point x="299" y="526" type="line"/>
      <point x="299" y="536" type="line"/>
      <point x="145" y="536" type="line"/>
      <point x="145" y="676" type="line" smooth="yes"/>
      <point x="145" y="700"/>
      <point x="162" y="733"/>
      <point x="210" y="733" type="curve" smooth="yes"/>
      <point x="237" y="733"/>
      <point x="254" y="724"/>
      <point x="276" y="714" type="curve"/>
      <point x="273" y="722"/>
      <point x="271" y="723"/>
      <point x="271" y="722" type="curve" smooth="yes"/>
      <point x="271" y="744"/>
      <point x="235" y="762"/>
      <point x="206" y="762" type="curve" smooth="yes"/>
      <point x="163" y="762"/>
      <point x="135" y="742"/>
      <point x="135" y="682" type="curve" smooth="yes"/>
      <point x="135" y="563"/>
      <point x="127" y="536"/>
      <point x="21" y="536" type="curve"/>
      <point x="21" y="526" type="line"/>
      <point x="117" y="526" type="line"/>
      <point x="117" y="141" type="line" smooth="yes"/>
      <point x="117" y="34"/>
      <point x="151" y="-10"/>
    </contour>
  </outline>
</glyph>
<glyph name="uni01AE" format="2">
  <advance width="690"/>
  <unicode hex="01AE"/>
  <anchor x="346" y="-240" name="bottom"/>
  <anchor x="346" y="714" name="top"/>
  <outline>
    <contour>
      <point x="425" y="-240" type="curve" smooth="yes"/>
      <point x="444" y="-240"/>
      <point x="472" y="-235"/>
      <point x="496" y="-230" type="curve"/>
      <point x="496" y="-220" type="line"/>
      <point x="468" y="-229"/>
      <point x="449" y="-230"/>
      <point x="419" y="-230" type="curve" smooth="yes"/>
      <point x="372" y="-230"/>
      <point x="356" y="-205"/>
      <point x="356" y="-106" type="curve" smooth="yes"/>
      <point x="356" y="694" type="line"/>
      <point x="560" y="694" type="line" smooth="yes"/>
      <point x="612" y="694"/>
      <point x="628" y="694"/>
      <point x="632" y="629" type="curve" smooth="yes"/>
      <point x="636" y="563" type="line"/>
      <point x="646" y="563" type="line"/>
      <point x="638" y="714" type="line"/>
      <point x="49" y="714" type="line"/>
      <point x="41" y="563" type="line"/>
      <point x="51" y="563" type="line"/>
      <point x="57" y="651" type="line" smooth="yes"/>
      <point x="59" y="694"/>
      <point x="81" y="694"/>
      <point x="129" y="694" type="curve" smooth="yes"/>
      <point x="328" y="694" type="line"/>
      <point x="328" y="-129" type="line" smooth="yes"/>
      <point x="328" y="-217"/>
      <point x="352" y="-240"/>
    </contour>
  </outline>
</glyph>
<glyph name="uhorn" format="2">
  <advance width="763"/>
  <unicode hex="01B0"/>
  <anchor x="381" y="0" name="bottom"/>
  <anchor x="371" y="536" name="top"/>
  <outline>
    <contour>
      <point x="347" y="-10" type="curve" smooth="yes"/>
      <point x="464" y="-10"/>
      <point x="531" y="65"/>
      <point x="557" y="137" type="curve"/>
      <point x="559" y="137" type="line"/>
      <point x="559" y="0" type="line"/>
      <point x="712" y="0" type="line"/>
      <point x="712" y="10" type="line"/>
      <point x="650" y="10" type="line" smooth="yes"/>
      <point x="596" y="10"/>
      <point x="587" y="16"/>
      <point x="587" y="77" type="curve" smooth="yes"/>
      <point x="587" y="420" type="line"/>
      <point x="646" y="420"/>
      <point x="704" y="462"/>
      <point x="704" y="567" type="curve" smooth="yes"/>
      <point x="704" y="598"/>
      <point x="691" y="628"/>
      <point x="670" y="628" type="curve" smooth="yes"/>
      <point x="660" y="628"/>
      <point x="644" y="624"/>
      <point x="644" y="609" type="curve" smooth="yes"/>
      <point x="644" y="576"/>
      <point x="693" y="563"/>
      <point x="693" y="544" type="curve" smooth="yes"/>
      <point x="693" y="477"/>
      <point x="640" y="433"/>
      <point x="587" y="429" type="curve"/>
      <point x="587" y="536" type="line"/>
      <point x="442" y="536" type="line"/>
      <point x="442" y="526" type="line"/>
      <point x="475" y="526" type="line" smooth="yes"/>
      <point x="551" y="526"/>
      <point x="559" y="524"/>
      <point x="559" y="468" type="curve" smooth="yes"/>
      <point x="559" y="201" type="line" smooth="yes"/>
      <point x="559" y="99"/>
      <point x="483" y="5"/>
      <point x="345" y="5" type="curve" smooth="yes"/>
      <point x="197" y="5"/>
      <point x="177" y="92"/>
      <point x="177" y="179" type="curve" smooth="yes"/>
      <point x="177" y="536" type="line"/>
      <point x="18" y="536" type="line"/>
      <point x="18" y="526" type="line"/>
      <point x="66" y="526" type="line" smooth="yes"/>
      <point x="147" y="526"/>
      <point x="149" y="523"/>
      <point x="149" y="451" type="curve" smooth="yes"/>
      <point x="149" y="184" type="line" smooth="yes"/>
      <point x="149" y="60"/>
      <point x="207" y="-10"/>
    </contour>
  </outline>
</glyph>
<glyph name="uni01B3" format="2">
  <advance width="697"/>
  <unicode hex="01B3"/>
  <anchor x="341" y="0" name="bottom"/>
  <anchor x="341" y="714" name="top"/>
  <anchor x="648" y="714" name="topright"/>
  <outline>
    <contour>
      <point x="202" y="0" type="line"/>
      <point x="484" y="0" type="line"/>
      <point x="484" y="10" type="line"/>
      <point x="414" y="10" type="line" smooth="yes"/>
      <point x="364" y="10"/>
      <point x="358" y="21"/>
      <point x="358" y="98" type="curve" smooth="yes"/>
      <point x="358" y="346" type="line"/>
      <point x="446" y="513" type="line" smooth="yes"/>
      <point x="520" y="660"/>
      <point x="537" y="686"/>
      <point x="589" y="686" type="curve" smooth="yes"/>
      <point x="592" y="686"/>
      <point x="614" y="695"/>
      <point x="640" y="702" type="curve"/>
      <point x="641" y="712"/>
      <point x="636" y="722"/>
      <point x="636" y="711" type="curve" smooth="yes"/>
      <point x="636" y="720"/>
      <point x="614" y="719"/>
      <point x="599" y="719" type="curve" smooth="yes"/>
      <point x="536" y="719"/>
      <point x="512" y="681"/>
      <point x="423" y="494" type="curve" smooth="yes"/>
      <point x="385" y="421" type="line" smooth="yes"/>
      <point x="365" y="380"/>
      <point x="366" y="388"/>
      <point x="351" y="357" type="curve"/>
      <point x="324" y="393"/>
      <point x="279" y="459"/>
      <point x="249" y="496" type="curve" smooth="yes"/>
      <point x="138" y="643" type="line" smooth="yes"/>
      <point x="125" y="658"/>
      <point x="112" y="672"/>
      <point x="112" y="686" type="curve" smooth="yes"/>
      <point x="112" y="696"/>
      <point x="116" y="704"/>
      <point x="150" y="704" type="curve" smooth="yes"/>
      <point x="186" y="704" type="line"/>
      <point x="186" y="714" type="line"/>
      <point x="-14" y="714" type="line"/>
      <point x="-14" y="704" type="line"/>
      <point x="-2" y="704" type="line" smooth="yes"/>
      <point x="58" y="704"/>
      <point x="58" y="700"/>
      <point x="88" y="661" type="curve" smooth="yes"/>
      <point x="330" y="346" type="line"/>
      <point x="330" y="98" type="line" smooth="yes"/>
      <point x="330" y="21"/>
      <point x="324" y="10"/>
      <point x="274" y="10" type="curve" smooth="yes"/>
      <point x="202" y="10" type="line"/>
    </contour>
  </outline>
</glyph>
<glyph name="uni01B4" format="2">
  <advance width="750"/>
  <unicode hex="01B4"/>
  <anchor x="376" y="-240" name="bottom"/>
  <anchor x="376" y="536" name="top"/>
  <outline>
    <contour>
      <point x="66" y="-240" type="line"/>
      <point x="67" y="-240" type="line" smooth="yes"/>
      <point x="291" y="-240"/>
      <point x="269" y="-196"/>
      <point x="371" y="62" type="curve" smooth="yes"/>
      <point x="531" y="426" type="line" smooth="yes"/>
      <point x="554" y="471"/>
      <point x="575" y="525"/>
      <point x="639" y="525" type="curve" smooth="yes"/>
      <point x="667" y="525"/>
      <point x="679" y="509"/>
      <point x="689" y="503" type="curve"/>
      <point x="698" y="509"/>
      <point x="705" y="512"/>
      <point x="705" y="519" type="curve" smooth="yes"/>
      <point x="705" y="543"/>
      <point x="666" y="551"/>
      <point x="649" y="551" type="curve" smooth="yes"/>
      <point x="571" y="551"/>
      <point x="547" y="500"/>
      <point x="498" y="375" type="curve" smooth="yes"/>
      <point x="397" y="142" type="line" smooth="yes"/>
      <point x="374" y="90"/>
      <point x="363" y="77"/>
      <point x="349" y="41" type="curve"/>
      <point x="326" y="87"/>
      <point x="279" y="200"/>
      <point x="269" y="199" type="curve" smooth="yes"/>
      <point x="174" y="401" type="line" smooth="yes"/>
      <point x="141" y="477"/>
      <point x="131" y="490"/>
      <point x="131" y="505" type="curve" smooth="yes"/>
      <point x="131" y="516"/>
      <point x="132" y="526"/>
      <point x="165" y="526" type="curve" smooth="yes"/>
      <point x="218" y="526" type="line"/>
      <point x="218" y="536" type="line"/>
      <point x="13" y="536" type="line"/>
      <point x="13" y="526" type="line"/>
      <point x="18" y="526" type="line" smooth="yes"/>
      <point x="82" y="526"/>
      <point x="86" y="529"/>
      <point x="104" y="493" type="curve" smooth="yes"/>
      <point x="335" y="13" type="line"/>
      <point x="241" y="-223"/>
      <point x="231" y="-230"/>
      <point x="66" y="-230" type="curve"/>
    </contour>
  </outline>
</glyph>
<glyph name="uni01BC" format="2">
  <advance width="700"/>
  <unicode hex="01BC"/>
  <anchor x="350" y="0" name="bottom"/>
  <anchor x="350" y="714" name="top"/>
  <outline>
    <contour>
      <point x="297" y="-10" type="curve" smooth="yes"/>
      <point x="529" y="-10"/>
      <point x="600" y="111"/>
      <point x="600" y="218" type="curve" smooth="yes"/>
      <point x="600" y="365"/>
      <point x="505" y="435"/>
      <point x="358" y="435" type="curve" smooth="yes"/>
      <point x="208" y="435" type="line"/>
      <point x="208" y="704" type="line"/>
      <point x="485" y="704" type="line" smooth="yes"/>
      <point x="543" y="704"/>
      <point x="548" y="702"/>
      <point x="551" y="657" type="curve" smooth="yes"/>
      <point x="555" y="592" type="line"/>
      <point x="565" y="592" type="line"/>
      <point x="563" y="714" type="line"/>
      <point x="50" y="714" type="line"/>
      <point x="50" y="704" type="line"/>
      <point x="72" y="704" type="line" smooth="yes"/>
      <point x="170" y="704"/>
      <point x="180" y="697"/>
      <point x="180" y="644" type="curve" smooth="yes"/>
      <point x="180" y="425" type="line"/>
      <point x="362" y="425" type="line" smooth="yes"/>
      <point x="490" y="425"/>
      <point x="572" y="364"/>
      <point x="572" y="218" type="curve" smooth="yes"/>
      <point x="572" y="101"/>
      <point x="507" y="0"/>
      <point x="302" y="0" type="curve" smooth="yes"/>
      <point x="165" y="0"/>
      <point x="109" y="53"/>
      <point x="107" y="159" type="curve"/>
      <point x="97" y="159"/>
      <point x="78" y="152"/>
      <point x="78" y="110" type="curve" smooth="yes"/>
      <point x="78" y="39"/>
      <point x="172" y="-10"/>
    </contour>
  </outline>
</glyph>
<glyph name="aringacute" format="2">
  <advance width="634"/>
  <unicode hex="01FB"/>
  <anchor x="318" y="0" name="bottom"/>
  <anchor x="318" y="948" name="top"/>
  <outline>
    <contour>
      <point x="245" y="-10" type="curve" smooth="yes"/>
      <point x="378" y="-10"/>
      <point x="441" y="92"/>
      <point x="463" y="118" type="curve"/>
      <point x="465" y="118" type="line"/>
      <point x="465" y="0" type="line"/>
      <point x="572" y="0" type="line"/>
      <point x="572" y="10" type="line"/>
      <point x="560" y="10" type="line" smooth="yes"/>
      <point x="490" y="10"/>
      <point x="493" y="31"/>
      <point x="493" y="107" type="curve" smooth="yes"/>
      <point x="493" y="406" type="line" smooth="yes"/>
      <point x="493" y="468"/>
      <point x="449" y="542"/>
      <point x="292" y="542" type="curve" smooth="yes"/>
      <point x="137" y="542"/>
      <point x="123" y="468"/>
      <point x="123" y="442" type="curve" smooth="yes"/>
      <point x="123" y="408"/>
      <point x="124" y="395"/>
      <point x="139" y="395" type="curve"/>
      <point x="139" y="476"/>
      <point x="159" y="532"/>
      <point x="295" y="532" type="curve" smooth="yes"/>
      <point x="456" y="532"/>
      <point x="465" y="449"/>
      <point x="465" y="371" type="curve" smooth="yes"/>
      <point x="465" y="292" type="line"/>
      <point x="362" y="289" type="line" smooth="yes"/>
      <point x="159" y="283"/>
      <point x="70" y="258"/>
      <point x="70" y="146" type="curve" smooth="yes"/>
      <point x="70" y="37"/>
      <point x="150" y="-10"/>
    </contour>
    <contour>
      <point x="243" y="5" type="curve" smooth="yes"/>
      <point x="138" y="5"/>
      <point x="98" y="75"/>
      <point x="98" y="144" type="curve" smooth="yes"/>
      <point x="98" y="215"/>
      <point x="152" y="272"/>
      <point x="357" y="279" type="curve" smooth="yes"/>
      <point x="465" y="282" type="line"/>
      <point x="465" y="149" type="line" smooth="yes"/>
      <point x="465" y="106"/>
      <point x="366" y="5"/>
    </contour>
    <contour>
      <point x="310" y="575" type="curve" smooth="yes"/>
      <point x="387" y="575"/>
      <point x="449" y="609"/>
      <point x="449" y="674" type="curve" smooth="yes"/>
      <point x="449" y="741"/>
      <point x="387" y="775"/>
      <point x="310" y="775" type="curve" smooth="yes"/>
      <point x="233" y="775"/>
      <point x="171" y="741"/>
      <point x="171" y="674" type="curve" smooth="yes"/>
      <point x="171" y="609"/>
      <point x="233" y="575"/>
    </contour>
    <contour>
      <point x="309" y="595" type="curve" smooth="yes"/>
      <point x="239" y="595"/>
      <point x="191" y="628"/>
      <point x="191" y="674" type="curve" smooth="yes"/>
      <point x="191" y="721"/>
      <point x="239" y="755"/>
      <point x="309" y="755" type="curve" smooth="yes"/>
      <point x="382" y="755"/>
      <point x="429" y="721"/>
      <point x="429" y="674" type="curve" smooth="yes"/>
      <point x="429" y="628"/>
      <point x="382" y="595"/>
    </contour>
    <contour>
      <point x="276" y="812" type="line"/>
      <point x="276" y="812" type="line"/>
      <point x="308" y="836"/>
      <point x="372" y="894"/>
      <point x="417" y="938" type="curve"/>
      <point x="417" y="948" type="line"/>
      <point x="387" y="948" type="line"/>
      <point x="343" y="893"/>
      <point x="309" y="855"/>
      <point x="276" y="825" type="curve"/>
    </contour>
  </outline>
</glyph>
<glyph name="uni021C" format="2">
  <advance width="672"/>
  <unicode hex="021C"/>
  <anchor x="349" y="-82" name="bottom"/>
  <anchor x="349" y="714" name="top"/>
  <outline>
    <contour>
      <point x="92" y="-160" type="line"/>
      <point x="407" y="-107"/>
      <point x="582" y="-1"/>
      <point x="582" y="180" type="curve" smooth="yes"/>
      <point x="582" y="321"/>
      <point x="490" y="348"/>
      <point x="438" y="379" type="curve"/>
      <point x="531" y="415"/>
      <point x="570" y="467"/>
      <point x="570" y="551" type="curve" smooth="yes"/>
      <point x="570" y="635"/>
      <point x="534" y="725"/>
      <point x="337" y="725" type="curve" smooth="yes"/>
      <point x="170" y="725"/>
      <point x="90" y="665"/>
      <point x="90" y="605" type="curve" smooth="yes"/>
      <point x="90" y="574"/>
      <point x="107" y="565"/>
      <point x="133" y="565" type="curve"/>
      <point x="133" y="677"/>
      <point x="209" y="717"/>
      <point x="333" y="717" type="curve" smooth="yes"/>
      <point x="481" y="717"/>
      <point x="544" y="660"/>
      <point x="544" y="551" type="curve" smooth="yes"/>
      <point x="544" y="430"/>
      <point x="477" y="382"/>
      <point x="228" y="330" type="curve"/>
      <point x="231" y="320" type="line"/>
      <point x="263" y="326"/>
      <point x="364" y="355"/>
      <point x="432" y="375" type="curve"/>
      <point x="493" y="341"/>
      <point x="554" y="313"/>
      <point x="554" y="180" type="curve" smooth="yes"/>
      <point x="554" y="34"/>
      <point x="448" y="-83"/>
      <point x="92" y="-151" type="curve"/>
    </contour>
  </outline>
</glyph>
<glyph name="uni0235" format="2">
  <advance width="842"/>
  <unicode hex="0235"/>
  <anchor x="422" y="0" name="bottom"/>
  <anchor x="422" y="536" name="top"/>
  <outline>
    <contour>
      <point x="456" y="65" type="line"/>
      <point x="499" y="143"/>
      <point x="542" y="185"/>
      <point x="587" y="223" type="curve"/>
      <point x="589" y="50"/>
      <point x="622" y="-10"/>
      <point x="708" y="-10" type="curve" smooth="yes"/>
      <point x="784" y="-10"/>
      <point x="830" y="42"/>
      <point x="830" y="133" type="curve" smooth="yes"/>
      <point x="830" y="211"/>
      <point x="783" y="261"/>
      <point x="709" y="261" type="curve" smooth="yes"/>
      <point x="674" y="261"/>
      <point x="642" y="256"/>
      <point x="615" y="245" type="curve"/>
      <point x="615" y="351" type="line" smooth="yes"/>
      <point x="615" y="478"/>
      <point x="549" y="542"/>
      <point x="413" y="542" type="curve" smooth="yes"/>
      <point x="315" y="542"/>
      <point x="240" y="511"/>
      <point x="202" y="419" type="curve"/>
      <point x="200" y="419" type="line"/>
      <point x="200" y="536" type="line"/>
      <point x="55" y="536" type="line"/>
      <point x="55" y="526" type="line"/>
      <point x="116" y="526" type="line" smooth="yes"/>
      <point x="163" y="526"/>
      <point x="173" y="521"/>
      <point x="173" y="453" type="curve" smooth="yes"/>
      <point x="173" y="82" type="line" smooth="yes"/>
      <point x="173" y="12"/>
      <point x="167" y="10"/>
      <point x="98" y="10" type="curve" smooth="yes"/>
      <point x="48" y="10" type="line"/>
      <point x="48" y="0" type="line"/>
      <point x="315" y="0" type="line"/>
      <point x="315" y="10" type="line"/>
      <point x="275" y="10" type="line" smooth="yes"/>
      <point x="207" y="10"/>
      <point x="201" y="12"/>
      <point x="201" y="82" type="curve" smooth="yes"/>
      <point x="201" y="355" type="line" smooth="yes"/>
      <point x="201" y="389"/>
      <point x="218" y="527"/>
      <point x="413" y="527" type="curve" smooth="yes"/>
      <point x="542" y="527"/>
      <point x="587" y="461"/>
      <point x="587" y="366" type="curve" smooth="yes"/>
      <point x="587" y="259" type="line"/>
      <point x="587" y="246"/>
      <point x="587" y="247"/>
      <point x="587" y="237" type="curve"/>
      <point x="528" y="189"/>
      <point x="486" y="139"/>
      <point x="448" y="74" type="curve"/>
    </contour>
    <contour>
      <point x="708" y="0" type="curve" smooth="yes"/>
      <point x="643" y="0"/>
      <point x="615" y="68"/>
      <point x="615" y="236" type="curve" smooth="yes"/>
      <point x="615" y="235" type="line"/>
      <point x="641" y="245"/>
      <point x="672" y="251"/>
      <point x="706" y="251" type="curve" smooth="yes"/>
      <point x="776" y="251"/>
      <point x="820" y="205"/>
      <point x="820" y="133" type="curve" smooth="yes"/>
      <point x="820" y="50"/>
      <point x="779" y="0"/>
    </contour>
  </outline>
</glyph>
<glyph name="uni0249" format="2">
  <advance width="357"/>
  <unicode hex="0249"/>
  <anchor x="108" y="-240" name="bottom"/>
  <anchor x="193" y="738" name="top"/>
  <anchor x="292" y="738" name="topright"/>
  <outline>
    <contour>
      <point x="80" y="277" type="line"/>
      <point x="320" y="277" type="line"/>
      <point x="320" y="287" type="line"/>
      <point x="80" y="287" type="line"/>
    </contour>
    <component base="j"/>
  </outline>
</glyph>
<glyph name="uni024E" format="2">
  <advance width="656"/>
  <unicode hex="024E"/>
  <anchor x="320" y="0" name="bottom"/>
  <anchor x="320" y="714" name="top"/>
  <anchor x="648" y="714" name="topright"/>
  <outline>
    <contour>
      <point x="-18" y="537" type="line"/>
      <point x="655" y="537" type="line"/>
      <point x="655" y="547" type="line"/>
      <point x="-18" y="547" type="line"/>
    </contour>
    <component base="Y"/>
  </outline>
</glyph>
<glyph name="uni0257" format="2">
  <advance width="701"/>
  <unicode hex="0257"/>
  <anchor x="350" y="0" name="bottom"/>
  <anchor x="350" y="766" name="top"/>
  <outline>
    <contour>
      <point x="324" y="-10" type="curve" smooth="yes"/>
      <point x="425" y="-10"/>
      <point x="511" y="62"/>
      <point x="538" y="166" type="curve"/>
      <point x="540" y="166" type="line"/>
      <point x="540" y="0" type="line"/>
      <point x="681" y="0" type="line"/>
      <point x="681" y="10" type="line"/>
      <point x="659" y="10" type="line" smooth="yes"/>
      <point x="567" y="10"/>
      <point x="568" y="11"/>
      <point x="568" y="92" type="curve" smooth="yes"/>
      <point x="568" y="697" type="line" smooth="yes"/>
      <point x="568" y="748"/>
      <point x="614" y="756"/>
      <point x="659" y="756" type="curve" smooth="yes"/>
      <point x="684" y="756"/>
      <point x="724" y="767"/>
      <point x="748" y="710" type="curve"/>
      <point x="754" y="712"/>
      <point x="757" y="712"/>
      <point x="757" y="715" type="curve" smooth="yes"/>
      <point x="757" y="742"/>
      <point x="720" y="766"/>
      <point x="661" y="766" type="curve" smooth="yes"/>
      <point x="556" y="766"/>
      <point x="540" y="708"/>
      <point x="540" y="693" type="curve" smooth="yes"/>
      <point x="540" y="542" type="line" smooth="yes"/>
      <point x="540" y="521"/>
      <point x="540" y="388"/>
      <point x="542" y="373" type="curve"/>
      <point x="540" y="373" type="line"/>
      <point x="517" y="483"/>
      <point x="434" y="542"/>
      <point x="310" y="542" type="curve" smooth="yes"/>
      <point x="140" y="542"/>
      <point x="83" y="410"/>
      <point x="83" y="267" type="curve" smooth="yes"/>
      <point x="83" y="116"/>
      <point x="176" y="-10"/>
    </contour>
    <contour>
      <point x="323" y="10" type="curve" smooth="yes"/>
      <point x="205" y="6"/>
      <point x="111" y="114"/>
      <point x="111" y="263" type="curve" smooth="yes"/>
      <point x="111" y="405"/>
      <point x="156" y="522"/>
      <point x="308" y="522" type="curve" smooth="yes"/>
      <point x="490" y="522"/>
      <point x="541" y="440"/>
      <point x="541" y="265" type="curve" smooth="yes"/>
      <point x="541" y="116"/>
      <point x="471" y="14"/>
    </contour>
  </outline>
</glyph>
<glyph name="uni0268" format="2">
  <advance width="341"/>
  <unicode hex="0268"/>
  <anchor x="170" y="0" name="bottom"/>
  <anchor x="170" y="738" name="top"/>
  <outline>
    <contour>
      <point x="40" y="0" type="line"/>
      <point x="334" y="0" type="line"/>
      <point x="334" y="10" type="line"/>
      <point x="287" y="10" type="line" smooth="yes"/>
      <point x="201" y="10"/>
      <point x="199" y="12"/>
      <point x="199" y="82" type="curve" smooth="yes"/>
      <point x="199" y="281" type="line"/>
      <point x="329" y="281" type="line"/>
      <point x="329" y="291" type="line"/>
      <point x="199" y="291" type="line"/>
      <point x="199" y="536" type="line"/>
      <point x="69" y="536" type="line"/>
      <point x="69" y="526" type="line"/>
      <point x="99" y="526" type="line" smooth="yes"/>
      <point x="161" y="526"/>
      <point x="171" y="526"/>
      <point x="171" y="449" type="curve" smooth="yes"/>
      <point x="171" y="291" type="line"/>
      <point x="64" y="291" type="line"/>
      <point x="64" y="281" type="line"/>
      <point x="171" y="281" type="line"/>
      <point x="171" y="82" type="line" smooth="yes"/>
      <point x="171" y="12"/>
      <point x="169" y="10"/>
      <point x="84" y="10" type="curve" smooth="yes"/>
      <point x="40" y="10" type="line"/>
    </contour>
    <contour>
      <point x="180" y="658" type="curve" smooth="yes"/>
      <point x="191" y="658"/>
      <point x="199" y="662"/>
      <point x="199" y="698" type="curve" smooth="yes"/>
      <point x="199" y="732"/>
      <point x="191" y="738"/>
      <point x="180" y="738" type="curve" smooth="yes"/>
      <point x="170" y="738"/>
      <point x="160" y="732"/>
      <point x="160" y="698" type="curve" smooth="yes"/>
      <point x="160" y="662"/>
      <point x="170" y="658"/>
    </contour>
  </outline>
</glyph>
<glyph name="rfishhookreversed" format="2">
  <advance width="467"/>
  <unicode hex="027F"/>
  <anchor x="234" y="-240" name="bottom"/>
  <anchor x="234" y="536" name="top"/>
  <outline>
    <contour>
      <point x="144" y="-240" type="line"/>
      <point x="460" y="-240" type="line"/>
      <point x="460" y="-230" type="line"/>
      <point x="389" y="-230" type="line" smooth="yes"/>
      <point x="328" y="-230"/>
      <point x="330" y="-227"/>
      <point x="330" y="-150" type="curve" smooth="yes"/>
      <point x="330" y="410" type="line" smooth="yes"/>
      <point x="330" y="515"/>
      <point x="265" y="548"/>
      <point x="160" y="548" type="curve" smooth="yes"/>
      <point x="52" y="548"/>
      <point x="22" y="496"/>
      <point x="22" y="459" type="curve" smooth="yes"/>
      <point x="22" y="437"/>
      <point x="31" y="423"/>
      <point x="54" y="423" type="curve"/>
      <point x="54" y="508"/>
      <point x="97" y="538"/>
      <point x="160" y="538" type="curve" smooth="yes"/>
      <point x="257" y="538"/>
      <point x="302" y="502"/>
      <point x="302" y="416" type="curve" smooth="yes"/>
      <point x="302" y="-150" type="line" smooth="yes"/>
      <point x="302" y="-227"/>
      <point x="300" y="-230"/>
      <point x="245" y="-230" type="curve" smooth="yes"/>
      <point x="144" y="-230" type="line"/>
    </contour>
  </outline>
</glyph>
<glyph name="eshsquatreversed" format="2">
  <advance width="380"/>
  <unicode hex="0285"/>
  <anchor x="190" y="-238" name="bottom"/>
  <anchor x="190" y="536" name="top"/>
  <outline>
    <contour>
      <point x="296" y="-238" type="curve" smooth="yes"/>
      <point x="373" y="-238"/>
      <point x="400" y="-196"/>
      <point x="400" y="-159" type="curve" smooth="yes"/>
      <point x="400" y="-142"/>
      <point x="397" y="-118"/>
      <point x="369" y="-118" type="curve"/>
      <point x="369" y="-194"/>
      <point x="355" y="-228"/>
      <point x="296" y="-228" type="curve" smooth="yes"/>
      <point x="195" y="-228"/>
      <point x="199" y="-138"/>
      <point x="199" y="-33" type="curve" smooth="yes"/>
      <point x="199" y="358" type="line" smooth="yes"/>
      <point x="199" y="517"/>
      <point x="145" y="547"/>
      <point x="68" y="547" type="curve" smooth="yes"/>
      <point x="-6" y="547"/>
      <point x="-26" y="495"/>
      <point x="-26" y="463" type="curve" smooth="yes"/>
      <point x="-26" y="447"/>
      <point x="-23" y="423"/>
      <point x="5" y="423" type="curve"/>
      <point x="5" y="515"/>
      <point x="23" y="537"/>
      <point x="68" y="537" type="curve" smooth="yes"/>
      <point x="173" y="537"/>
      <point x="171" y="437"/>
      <point x="171" y="327" type="curve" smooth="yes"/>
      <point x="171" y="-65" type="line" smooth="yes"/>
      <point x="171" y="-217"/>
      <point x="229" y="-238"/>
    </contour>
  </outline>
</glyph>
<glyph name="uni028F" format="2">
  <advance width="600"/>
  <unicode hex="028F"/>
  <anchor x="285" y="0" name="bottom"/>
  <anchor x="285" y="536" name="top"/>
  <outline>
    <contour>
      <point x="169" y="0" type="line"/>
      <point x="423" y="0" type="line"/>
      <point x="423" y="10" type="line"/>
      <point x="410" y="10" type="line" smooth="yes"/>
      <point x="356" y="10"/>
      <point x="308" y="12"/>
      <point x="308" y="48" type="curve" smooth="yes"/>
      <point x="308" y="229" type="line"/>
      <point x="486" y="510" type="line" smooth="yes"/>
      <point x="497" y="519"/>
      <point x="516" y="526"/>
      <point x="561" y="526" type="curve" smooth="yes"/>
      <point x="559" y="526" type="line"/>
      <point x="559" y="536" type="line"/>
      <point x="368" y="536" type="line"/>
      <point x="368" y="526" type="line"/>
      <point x="412" y="526" type="line" smooth="yes"/>
      <point x="446" y="526"/>
      <point x="455" y="525"/>
      <point x="455" y="507" type="curve" smooth="yes"/>
      <point x="455" y="477"/>
      <point x="431" y="432"/>
      <point x="417" y="414" type="curve" smooth="yes"/>
      <point x="303" y="238" type="line"/>
      <point x="184" y="390" type="line" smooth="yes"/>
      <point x="160" y="422"/>
      <point x="131" y="466"/>
      <point x="131" y="496" type="curve" smooth="yes"/>
      <point x="131" y="521"/>
      <point x="158" y="526"/>
      <point x="192" y="526" type="curve" smooth="yes"/>
      <point x="244" y="526" type="line"/>
      <point x="244" y="536" type="line"/>
      <point x="6" y="536" type="line"/>
      <point x="6" y="526" type="line"/>
      <point x="17" y="526" type="line" smooth="yes"/>
      <point x="53" y="526"/>
      <point x="63" y="519"/>
      <point x="69" y="520" type="curve" smooth="yes"/>
      <point x="280" y="236" type="line"/>
      <point x="280" y="38" type="line" smooth="yes"/>
      <point x="280" y="10"/>
      <point x="222" y="10"/>
      <point x="183" y="10" type="curve" smooth="yes"/>
      <point x="169" y="10" type="line"/>
    </contour>
  </outline>
</glyph>
<glyph name="dzligcurl" format="2">
  <advance width="1087"/>
  <unicode hex="02A5"/>
  <anchor x="538" y="0" name="bottom"/>
  <anchor x="538" y="760" name="top"/>
  <outline>
    <contour>
      <point x="780" y="-58" type="line"/>
      <point x="783" y="-34"/>
      <point x="787" y="-23"/>
      <point x="792" y="0" type="curve"/>
      <point x="848" y="0" type="line" smooth="yes"/>
      <point x="980" y="0"/>
      <point x="1041" y="23"/>
      <point x="1041" y="95" type="curve" smooth="yes"/>
      <point x="1041" y="144"/>
      <point x="1004" y="176"/>
      <point x="944" y="176" type="curve" smooth="yes"/>
      <point x="869" y="176"/>
      <point x="804" y="101"/>
      <point x="784" y="15" type="curve"/>
      <point x="581" y="15" type="line"/>
      <point x="990" y="534" type="line"/>
      <point x="990" y="536" type="line"/>
      <point x="568" y="536" type="line"/>
      <point x="568" y="760" type="line"/>
      <point x="423" y="760" type="line"/>
      <point x="423" y="750" type="line"/>
      <point x="468" y="750" type="line" smooth="yes"/>
      <point x="532" y="750"/>
      <point x="540" y="747"/>
      <point x="540" y="678" type="curve" smooth="yes"/>
      <point x="540" y="542" type="line" smooth="yes"/>
      <point x="540" y="521"/>
      <point x="540" y="388"/>
      <point x="542" y="373" type="curve"/>
      <point x="540" y="373" type="line"/>
      <point x="517" y="483"/>
      <point x="434" y="542"/>
      <point x="310" y="542" type="curve" smooth="yes"/>
      <point x="140" y="542"/>
      <point x="83" y="410"/>
      <point x="83" y="267" type="curve" smooth="yes"/>
      <point x="83" y="116"/>
      <point x="176" y="-10"/>
      <point x="324" y="-10" type="curve" smooth="yes"/>
      <point x="425" y="-10"/>
      <point x="511" y="62"/>
      <point x="538" y="166" type="curve"/>
      <point x="540" y="166" type="line"/>
      <point x="540" y="0" type="line"/>
      <point x="781" y="0" type="line"/>
      <point x="776" y="-22"/>
      <point x="772" y="-35"/>
      <point x="769" y="-58" type="curve"/>
    </contour>
    <contour>
      <point x="323" y="10" type="curve" smooth="yes"/>
      <point x="205" y="6"/>
      <point x="111" y="114"/>
      <point x="111" y="263" type="curve" smooth="yes"/>
      <point x="111" y="405"/>
      <point x="156" y="522"/>
      <point x="308" y="522" type="curve" smooth="yes"/>
      <point x="490" y="522"/>
      <point x="541" y="440"/>
      <point x="541" y="265" type="curve" smooth="yes"/>
      <point x="541" y="116"/>
      <point x="471" y="14"/>
    </contour>
    <contour>
      <point x="795" y="15" type="line"/>
      <point x="819" y="105"/>
      <point x="874" y="166"/>
      <point x="944" y="166" type="curve" smooth="yes"/>
      <point x="998" y="166"/>
      <point x="1031" y="138"/>
      <point x="1031" y="95" type="curve" smooth="yes"/>
      <point x="1031" y="34"/>
      <point x="984" y="15"/>
      <point x="857" y="15" type="curve" smooth="yes"/>
    </contour>
    <contour>
      <point x="568" y="44" type="line"/>
      <point x="568" y="521" type="line"/>
      <point x="947" y="521" type="line"/>
    </contour>
  </outline>
</glyph>
<glyph name="uni02AA" format="2">
  <advance width="805"/>
  <unicode hex="02AA"/>
  <anchor x="402" y="0" name="bottom"/>
  <anchor x="402" y="760" name="top"/>
  <outline>
    <contour>
      <point x="569" y="-10" type="curve" smooth="yes"/>
      <point x="664" y="-10"/>
      <point x="739" y="53"/>
      <point x="739" y="135" type="curve" smooth="yes"/>
      <point x="739" y="167"/>
      <point x="749" y="210"/>
      <point x="593" y="283" type="curve" smooth="yes"/>
      <point x="498" y="321"/>
      <point x="433" y="355"/>
      <point x="433" y="416" type="curve" smooth="yes"/>
      <point x="433" y="496"/>
      <point x="478" y="533"/>
      <point x="565" y="533" type="curve" smooth="yes"/>
      <point x="644" y="533"/>
      <point x="691" y="520"/>
      <point x="691" y="405" type="curve"/>
      <point x="714" y="405"/>
      <point x="717" y="417"/>
      <point x="717" y="441" type="curve" smooth="yes"/>
      <point x="717" y="474"/>
      <point x="691" y="543"/>
      <point x="572" y="543" type="curve" smooth="yes"/>
      <point x="471" y="543"/>
      <point x="405" y="493"/>
      <point x="405" y="426" type="curve" smooth="yes"/>
      <point x="405" y="359"/>
      <point x="434" y="324"/>
      <point x="603" y="244" type="curve" smooth="yes"/>
      <point x="696" y="207"/>
      <point x="711" y="178"/>
      <point x="711" y="139" type="curve" smooth="yes"/>
      <point x="711" y="69"/>
      <point x="664" y="0"/>
      <point x="569" y="0" type="curve" smooth="yes"/>
      <point x="443" y="0"/>
      <point x="427" y="47"/>
      <point x="427" y="135" type="curve"/>
      <point x="402" y="135"/>
      <point x="401" y="122"/>
      <point x="401" y="95" type="curve" smooth="yes"/>
      <point x="401" y="66"/>
      <point x="412" y="31"/>
      <point x="456" y="10" type="curve"/>
      <point x="246" y="10" type="line" smooth="yes"/>
      <point x="173" y="10"/>
      <point x="169" y="14"/>
      <point x="169" y="84" type="curve" smooth="yes"/>
      <point x="169" y="760" type="line"/>
      <point x="7" y="760" type="line"/>
      <point x="7" y="750" type="line"/>
      <point x="74" y="750" type="line" smooth="yes"/>
      <point x="134" y="750"/>
      <point x="141" y="746"/>
      <point x="141" y="672" type="curve" smooth="yes"/>
      <point x="141" y="84" type="line" smooth="yes"/>
      <point x="141" y="14"/>
      <point x="137" y="10"/>
      <point x="64" y="10" type="curve" smooth="yes"/>
      <point x="7" y="10" type="line"/>
      <point x="7" y="0" type="line"/>
      <point x="484" y="0" type="line"/>
      <point x="505" y="-6"/>
      <point x="534" y="-10"/>
    </contour>
  </outline>
</glyph>
<glyph name="uni02C0" format="2">
  <advance width="300"/>
  <unicode hex="02C0"/>
  <outline>
    <contour>
      <point x="133" y="500" type="line"/>
      <point x="143" y="500" type="line"/>
      <point x="141" y="559" type="line"/>
      <point x="205" y="576"/>
      <point x="250" y="604"/>
      <point x="250" y="669" type="curve" smooth="yes"/>
      <point x="250" y="721"/>
      <point x="211" y="760"/>
      <point x="133" y="760" type="curve" smooth="yes"/>
      <point x="70" y="760"/>
      <point x="30" y="731"/>
      <point x="30" y="695" type="curve" smooth="yes"/>
      <point x="30" y="689"/>
      <point x="30" y="674"/>
      <point x="60" y="674" type="curve"/>
      <point x="60" y="732"/>
      <point x="83" y="750"/>
      <point x="137" y="750" type="curve" smooth="yes"/>
      <point x="181" y="750"/>
      <point x="226" y="724"/>
      <point x="226" y="672" type="curve" smooth="yes"/>
      <point x="226" y="635"/>
      <point x="196" y="607"/>
      <point x="136" y="584" type="curve"/>
    </contour>
  </outline>
</glyph>
<glyph name="ring" format="2">
  <advance width="414"/>
  <unicode hex="02DA"/>
  <outline>
    <contour>
      <point x="207" y="596" type="curve" smooth="yes"/>
      <point x="285" y="596"/>
      <point x="356" y="631"/>
      <point x="356" y="705" type="curve" smooth="yes"/>
      <point x="356" y="779"/>
      <point x="285" y="814"/>
      <point x="207" y="814" type="curve" smooth="yes"/>
      <point x="129" y="814"/>
      <point x="58" y="779"/>
      <point x="58" y="705" type="curve" smooth="yes"/>
      <point x="58" y="631"/>
      <point x="129" y="596"/>
    </contour>
    <contour>
      <point x="206" y="606" type="curve" smooth="yes"/>
      <point x="128" y="606"/>
      <point x="70" y="634"/>
      <point x="70" y="705" type="curve" smooth="yes"/>
      <point x="70" y="776"/>
      <point x="128" y="804"/>
      <point x="206" y="804" type="curve" smooth="yes"/>
      <point x="286" y="804"/>
      <point x="344" y="776"/>
      <point x="344" y="705" type="curve" smooth="yes"/>
      <point x="344" y="634"/>
      <point x="286" y="606"/>
    </contour>
  </outline>
</glyph>
<glyph name="uni02F2" format="2">
  <advance width="344"/>
  <unicode hex="02F2"/>
  <outline>
    <contour>
      <point x="40" y="-219" type="line"/>
      <point x="48" y="-219" type="line"/>
      <point x="132" y="-190"/>
      <point x="232" y="-146"/>
      <point x="304" y="-119" type="curve"/>
      <point x="304" y="-99" type="line"/>
      <point x="222" y="-66"/>
      <point x="141" y="-29"/>
      <point x="48" y="-1" type="curve"/>
      <point x="40" y="-1" type="line"/>
      <point x="40" y="-15" type="line"/>
      <point x="79" y="-24"/>
      <point x="244" y="-101"/>
      <point x="284" y="-109" type="curve"/>
      <point x="244" y="-119"/>
      <point x="79" y="-198"/>
      <point x="40" y="-205" type="curve"/>
    </contour>
  </outline>
</glyph>
<glyph name="dblgravecomb" format="2">
  <unicode hex="030F"/>
  <anchor x="-412" y="536" name="_top"/>
  <anchor x="-405" y="766" name="top"/>
  <outline>
    <contour>
      <point x="-396" y="606" type="curve"/>
      <point x="-392" y="606" type="line"/>
      <point x="-394" y="619" type="line"/>
      <point x="-429" y="666"/>
      <point x="-467" y="721"/>
      <point x="-498" y="766" type="curve"/>
      <point x="-538" y="766" type="line"/>
      <point x="-536" y="756" type="line"/>
      <point x="-496" y="712"/>
      <point x="-449" y="661"/>
    </contour>
    <contour>
      <point x="-219" y="606" type="curve"/>
      <point x="-215" y="606" type="line"/>
      <point x="-217" y="619" type="line"/>
      <point x="-252" y="666"/>
      <point x="-290" y="721"/>
      <point x="-321" y="766" type="curve"/>
      <point x="-361" y="766" type="line"/>
      <point x="-359" y="756" type="line"/>
      <point x="-320" y="712"/>
      <point x="-272" y="661"/>
    </contour>
  </outline>
</glyph>
<glyph name="hookretroflexbelowcomb" format="2">
  <unicode hex="0322"/>
  <anchor x="95" y="0" name="_bottom"/>
  <anchor x="95" y="-199" name="bottom"/>
  <outline>
    <contour>
      <point x="100" y="-199" type="curve" smooth="yes"/>
      <point x="143" y="-199"/>
      <point x="177" y="-173"/>
      <point x="177" y="-144" type="curve" smooth="yes"/>
      <point x="177" y="-139"/>
      <point x="173" y="-135"/>
      <point x="163" y="-133" type="curve"/>
      <point x="149" y="-165"/>
      <point x="123" y="-172"/>
      <point x="90" y="-172" type="curve" smooth="yes"/>
      <point x="46" y="-172"/>
      <point x="23" y="-146"/>
      <point x="23" y="-93" type="curve" smooth="yes"/>
      <point x="23" y="11" type="line"/>
      <point x="13" y="11" type="line"/>
      <point x="13" y="-112" type="line" smooth="yes"/>
      <point x="13" y="-172"/>
      <point x="41" y="-199"/>
    </contour>
  </outline>
</glyph>
<glyph name="cedillacomb" format="2">
  <unicode hex="0327"/>
  <anchor x="0" y="0" name="_bottom"/>
  <anchor x="0" y="-218" name="bottom"/>
  <outline>
    <contour>
      <point x="-19" y="-224" type="curve" smooth="yes"/>
      <point x="40" y="-224"/>
      <point x="95" y="-213"/>
      <point x="95" y="-132" type="curve" smooth="yes"/>
      <point x="95" y="-68"/>
      <point x="36" y="-66"/>
      <point x="-7" y="-56" type="curve"/>
      <point x="12" y="-2" type="line"/>
      <point x="-2" y="-2" type="line"/>
      <point x="-25" y="-85" type="line"/>
      <point x="38" y="-92"/>
      <point x="75" y="-103"/>
      <point x="75" y="-137" type="curve" smooth="yes"/>
      <point x="75" y="-204"/>
      <point x="35" y="-214"/>
      <point x="-17" y="-214" type="curve" smooth="yes"/>
      <point x="-53" y="-214"/>
      <point x="-66" y="-212"/>
      <point x="-97" y="-204" type="curve"/>
      <point x="-97" y="-216" type="line"/>
      <point x="-66" y="-223"/>
      <point x="-41" y="-224"/>
    </contour>
  </outline>
</glyph>
<glyph name="dblarchinvertedbelowcomb" format="2">
  <unicode hex="032B"/>
  <anchor x="1" y="0" name="_bottom"/>
  <anchor x="1" y="-183" name="bottom"/>
  <outline>
    <contour>
      <point x="-94" y="-183" type="curve" smooth="yes"/>
      <point x="-49" y="-183"/>
      <point x="-13" y="-159"/>
      <point x="0" y="-112" type="curve"/>
      <point x="13" y="-159"/>
      <point x="47" y="-183"/>
      <point x="88" y="-183" type="curve" smooth="yes"/>
      <point x="161" y="-183"/>
      <point x="195" y="-141"/>
      <point x="199" y="-65" type="curve"/>
      <point x="189" y="-65" type="line"/>
      <point x="185" y="-137"/>
      <point x="153" y="-168"/>
      <point x="88" y="-168" type="curve" smooth="yes"/>
      <point x="36" y="-168"/>
      <point x="5" y="-139"/>
      <point x="6" y="-65" type="curve"/>
      <point x="-5" y="-65" type="line"/>
      <point x="-5" y="-139"/>
      <point x="-37" y="-168"/>
      <point x="-94" y="-168" type="curve" smooth="yes"/>
      <point x="-155" y="-168"/>
      <point x="-184" y="-137"/>
      <point x="-188" y="-65" type="curve"/>
      <point x="-198" y="-65" type="line"/>
      <point x="-192" y="-141"/>
      <point x="-160" y="-183"/>
    </contour>
  </outline>
</glyph>
<glyph name="lowlinecomb" format="2">
  <unicode hex="0332"/>
  <anchor x="-1" y="0" name="_bottom"/>
  <anchor x="-1" y="-76" name="bottom"/>
  <outline>
    <contour>
      <point x="-261" y="-76" type="line"/>
      <point x="260" y="-76" type="line"/>
      <point x="260" y="-56" type="line"/>
      <point x="-261" y="-56" type="line"/>
    </contour>
  </outline>
</glyph>
<glyph name="arrowleftrightbelowcomb" format="2">
  <unicode hex="034D"/>
  <anchor x="0" y="0" name="_bottom"/>
  <anchor x="0" y="-218" name="bottom"/>
  <outline>
    <contour>
      <point x="-69" y="-177" type="line"/>
      <point x="-69" y="-137" type="line"/>
      <point x="69" y="-137" type="line"/>
      <point x="69" y="-177" type="line"/>
      <point x="179" y="-127" type="line"/>
      <point x="69" y="-77" type="line"/>
      <point x="69" y="-117" type="line"/>
      <point x="-69" y="-117" type="line"/>
      <point x="-69" y="-77" type="line"/>
      <point x="-179" y="-127" type="line"/>
    </contour>
  </outline>
</glyph>
<glyph name="lefthalfringabovecomb" format="2">
  <unicode hex="0351"/>
  <anchor x="1" y="536" name="_top"/>
  <anchor x="1" y="818" name="top"/>
  <outline>
    <contour>
      <point x="53" y="636" type="curve"/>
      <point x="53" y="646" type="line"/>
      <point x="-27" y="643"/>
      <point x="-56" y="687"/>
      <point x="-56" y="729" type="curve" smooth="yes"/>
      <point x="-56" y="761"/>
      <point x="-27" y="811"/>
      <point x="53" y="808" type="curve"/>
      <point x="53" y="818" type="line"/>
      <point x="-30" y="818"/>
      <point x="-52" y="772"/>
      <point x="-52" y="729" type="curve" smooth="yes"/>
      <point x="-52" y="673"/>
      <point x="-30" y="636"/>
    </contour>
  </outline>
</glyph>
<glyph name="doublebrevecomb" format="2">
  <unicode hex="035D"/>
  <anchor x="0" y="536" name="_top"/>
  <anchor x="0" y="787" name="top"/>
  <outline>
    <contour>
      <point x="0" y="595" type="curve" smooth="yes"/>
      <point x="192" y="595"/>
      <point x="388" y="660"/>
      <point x="465" y="787" type="curve"/>
      <point x="454" y="787" type="line"/>
      <point x="371" y="652"/>
      <point x="167" y="607"/>
      <point x="0" y="607" type="curve" smooth="yes"/>
      <point x="-165" y="607"/>
      <point x="-373" y="652"/>
      <point x="-456" y="787" type="curve"/>
      <point x="-467" y="787" type="line"/>
      <point x="-388" y="662"/>
      <point x="-188" y="595"/>
    </contour>
  </outline>
</glyph>
<glyph name="Heta" format="2">
  <advance width="730"/>
  <unicode hex="0370"/>
  <anchor x="365" y="0" name="bottom"/>
  <anchor x="365" y="714" name="top"/>
  <outline>
    <contour>
      <point x="63" y="0" type="line"/>
      <point x="337" y="0" type="line"/>
      <point x="337" y="10" type="line"/>
      <point x="272" y="10" type="line" smooth="yes"/>
      <point x="222" y="10"/>
      <point x="216" y="21"/>
      <point x="216" y="98" type="curve" smooth="yes"/>
      <point x="216" y="369" type="line"/>
      <point x="709" y="369" type="line"/>
      <point x="709" y="379" type="line"/>
      <point x="216" y="379" type="line"/>
      <point x="216" y="614" type="line" smooth="yes"/>
      <point x="216" y="693"/>
      <point x="222" y="704"/>
      <point x="270" y="704" type="curve" smooth="yes"/>
      <point x="337" y="704" type="line"/>
      <point x="337" y="714" type="line"/>
      <point x="63" y="714" type="line"/>
      <point x="63" y="704" type="line"/>
      <point x="130" y="704" type="line" smooth="yes"/>
      <point x="182" y="704"/>
      <point x="188" y="693"/>
      <point x="188" y="614" type="curve" smooth="yes"/>
      <point x="188" y="98" type="line" smooth="yes"/>
      <point x="188" y="21"/>
      <point x="182" y="10"/>
      <point x="130" y="10" type="curve" smooth="yes"/>
      <point x="63" y="10" type="line"/>
    </contour>
  </outline>
</glyph>
<glyph name="Gamma" format="2">
  <advance width="698"/>
  <unicode hex="0393"/>
  <anchor x="349" y="0" name="bottom"/>
  <anchor x="349" y="714" name="top"/>
  <outline>
    <contour>
      <point x="64" y="0" type="line"/>
      <point x="376" y="0" type="line"/>
      <point x="376" y="10" type="line"/>
      <point x="273" y="10" type="line" smooth="yes"/>
      <point x="223" y="10"/>
      <point x="217" y="21"/>
      <point x="217" y="98" type="curve" smooth="yes"/>
      <point x="217" y="704" type="line"/>
      <point x="518" y="704" type="line" smooth="yes"/>
      <point x="566" y="704"/>
      <point x="582" y="708"/>
      <point x="586" y="637" type="curve" smooth="yes"/>
      <point x="592" y="538" type="line"/>
      <point x="602" y="538" type="line"/>
      <point x="594" y="714" type="line"/>
      <point x="64" y="714" type="line"/>
      <point x="64" y="704" type="line"/>
      <point x="133" y="704" type="line" smooth="yes"/>
      <point x="183" y="704"/>
      <point x="189" y="693"/>
      <point x="189" y="614" type="curve" smooth="yes"/>
      <point x="189" y="98" type="line" smooth="yes"/>
      <point x="189" y="21"/>
      <point x="185" y="10"/>
      <point x="127" y="10" type="curve" smooth="yes"/>
      <point x="64" y="10" type="line"/>
    </contour>
  </outline>
</glyph>
<glyph name="Delta" format="2">
  <advance width="591"/>
  <unicode hex="0394"/>
  <anchor x="309" y="0" name="bottom"/>
  <anchor x="309" y="714" name="top"/>
  <outline>
    <contour>
      <point x="9" y="0" type="line"/>
      <point x="572" y="0" type="line"/>
      <point x="572" y="12" type="line"/>
      <point x="298" y="714" type="line"/>
      <point x="297" y="714" type="line"/>
      <point x="9" y="12" type="line"/>
    </contour>
    <contour>
      <point x="20" y="15" type="line"/>
      <point x="203" y="445" type="line" smooth="yes"/>
      <point x="225" y="489"/>
      <point x="271" y="619"/>
      <point x="285" y="656" type="curve"/>
      <point x="308" y="592"/>
      <point x="338" y="513"/>
      <point x="359" y="464" type="curve" smooth="yes"/>
      <point x="539" y="15" type="line"/>
    </contour>
  </outline>
</glyph>
<glyph name="gamma" format="2">
  <advance width="717"/>
  <unicode hex="03B3"/>
  <anchor x="360" y="-238" name="bottom"/>
  <anchor x="358" y="536" name="top"/>
  <anchor x="697" y="536" name="topright"/>
  <outline>
    <contour>
      <point x="323" y="-238" type="curve" smooth="yes"/>
      <point x="340" y="-238"/>
      <point x="370" y="-116"/>
      <point x="370" y="-38" type="curve" smooth="yes"/>
      <point x="370" y="-37"/>
      <point x="368" y="-13"/>
      <point x="367" y="-3" type="curve"/>
      <point x="426" y="31"/>
      <point x="628" y="185"/>
      <point x="628" y="417" type="curve" smooth="yes"/>
      <point x="628" y="504"/>
      <point x="598" y="546"/>
      <point x="550" y="546" type="curve" smooth="yes"/>
      <point x="540" y="546"/>
      <point x="525" y="541"/>
      <point x="513" y="527" type="curve"/>
      <point x="565" y="520"/>
      <point x="609" y="500"/>
      <point x="609" y="410" type="curve" smooth="yes"/>
      <point x="609" y="229"/>
      <point x="461" y="109"/>
      <point x="364" y="4" type="curve"/>
      <point x="260" y="448"/>
      <point x="188" y="541"/>
      <point x="126" y="541" type="curve" smooth="yes"/>
      <point x="96" y="541"/>
      <point x="69" y="532"/>
      <point x="51" y="513" type="curve"/>
      <point x="59" y="508" type="line"/>
      <point x="98" y="527"/>
      <point x="106" y="519"/>
      <point x="125" y="519" type="curve" smooth="yes"/>
      <point x="199" y="519"/>
      <point x="332" y="10"/>
      <point x="342" y="-9" type="curve"/>
      <point x="317" y="-79"/>
      <point x="311" y="-145"/>
      <point x="311" y="-191" type="curve" smooth="yes"/>
      <point x="311" y="-223"/>
      <point x="315" y="-238"/>
    </contour>
  </outline>
</glyph>
<glyph name="zeta" format="2">
  <advance width="500"/>
  <unicode hex="03B6"/>
  <anchor x="250" y="-200" name="bottom"/>
  <anchor x="250" y="758" name="top"/>
  <outline>
    <contour>
      <point x="361" y="-200" type="line"/>
      <point x="392" y="-206"/>
      <point x="471" y="-181"/>
      <point x="471" y="-72" type="curve" smooth="yes"/>
      <point x="471" y="55"/>
      <point x="333" y="34"/>
      <point x="242" y="61" type="curve" smooth="yes"/>
      <point x="132" y="94"/>
      <point x="97" y="135"/>
      <point x="97" y="208" type="curve" smooth="yes"/>
      <point x="97" y="388"/>
      <point x="221" y="558"/>
      <point x="358" y="659" type="curve"/>
      <point x="383" y="656"/>
      <point x="408" y="652"/>
      <point x="426" y="652" type="curve" smooth="yes"/>
      <point x="443" y="652"/>
      <point x="465" y="653"/>
      <point x="465" y="673" type="curve" smooth="yes"/>
      <point x="465" y="684"/>
      <point x="443" y="691"/>
      <point x="422" y="691" type="curve" smooth="yes"/>
      <point x="394" y="691"/>
      <point x="374" y="685"/>
      <point x="349" y="670" type="curve"/>
      <point x="255" y="686"/>
      <point x="197" y="702"/>
      <point x="121" y="746" type="curve"/>
      <point x="113" y="739" type="line"/>
      <point x="181" y="698"/>
      <point x="251" y="675"/>
      <point x="340" y="661" type="curve"/>
      <point x="180" y="545"/>
      <point x="69" y="405"/>
      <point x="69" y="221" type="curve" smooth="yes"/>
      <point x="69" y="33"/>
      <point x="181" y="40"/>
      <point x="298" y="17" type="curve" smooth="yes"/>
      <point x="401" y="-4"/>
      <point x="448" y="3"/>
      <point x="448" y="-73" type="curve" smooth="yes"/>
      <point x="448" y="-158"/>
      <point x="395" y="-190"/>
      <point x="361" y="-191" type="curve"/>
    </contour>
  </outline>
</glyph>
<glyph name="lambda" format="2">
  <advance width="603"/>
  <unicode hex="03BB"/>
  <anchor x="302" y="0" name="bottom"/>
  <anchor x="302" y="770" name="top"/>
  <outline>
    <contour>
      <point x="22" y="0" type="line"/>
      <point x="56" y="0" type="line"/>
      <point x="223" y="294" type="line" smooth="yes"/>
      <point x="251" y="341"/>
      <point x="300" y="420"/>
      <point x="327" y="448" type="curve"/>
      <point x="331" y="448" type="line"/>
      <point x="359" y="349"/>
      <point x="398" y="244"/>
      <point x="423" y="132" type="curve" smooth="yes"/>
      <point x="440" y="54"/>
      <point x="460" y="0"/>
      <point x="566" y="0" type="curve" smooth="yes"/>
      <point x="598" y="0" type="line"/>
      <point x="598" y="10" type="line"/>
      <point x="592" y="10" type="line" smooth="yes"/>
      <point x="504" y="10"/>
      <point x="475" y="19"/>
      <point x="442" y="134" type="curve" smooth="yes"/>
      <point x="316" y="566" type="line" smooth="yes"/>
      <point x="255" y="784"/>
      <point x="167" y="770"/>
      <point x="141" y="770" type="curve" smooth="yes"/>
      <point x="73" y="770"/>
      <point x="35" y="742"/>
      <point x="35" y="722" type="curve" smooth="yes"/>
      <point x="35" y="706"/>
      <point x="46" y="702"/>
      <point x="62" y="703" type="curve"/>
      <point x="74" y="750"/>
      <point x="111" y="764"/>
      <point x="147" y="760" type="curve" smooth="yes"/>
      <point x="234" y="754"/>
      <point x="258" y="684"/>
      <point x="317" y="502" type="curve"/>
    </contour>
  </outline>
</glyph>
<glyph name="nu" format="2">
  <advance width="719"/>
  <unicode hex="03BD"/>
  <anchor x="360" y="0" name="bottom"/>
  <anchor x="360" y="536" name="top"/>
  <outline>
    <contour>
      <point x="343" y="0" type="curve"/>
      <point x="352" y="0" type="line"/>
      <point x="550" y="165"/>
      <point x="621" y="348"/>
      <point x="621" y="434" type="curve" smooth="yes"/>
      <point x="621" y="516"/>
      <point x="588" y="546"/>
      <point x="543" y="546" type="curve" smooth="yes"/>
      <point x="538" y="546"/>
      <point x="525" y="547"/>
      <point x="511" y="540" type="curve"/>
      <point x="544" y="519"/>
      <point x="601" y="512"/>
      <point x="601" y="395" type="curve" smooth="yes"/>
      <point x="601" y="281"/>
      <point x="483" y="121"/>
      <point x="366" y="22" type="curve"/>
      <point x="298" y="265"/>
      <point x="242" y="539"/>
      <point x="137" y="539" type="curve" smooth="yes"/>
      <point x="85" y="539"/>
      <point x="55" y="518"/>
      <point x="47" y="502" type="curve"/>
      <point x="55" y="495" type="line"/>
      <point x="62" y="508"/>
      <point x="87" y="517"/>
      <point x="107" y="517" type="curve" smooth="yes"/>
      <point x="159" y="517"/>
      <point x="231" y="520"/>
    </contour>
  </outline>
</glyph>
<glyph name="chi" format="2">
  <advance width="591"/>
  <unicode hex="03C7"/>
  <anchor x="295" y="-240" name="bottom"/>
  <anchor x="295" y="536" name="top"/>
  <anchor x="571" y="536" name="topright"/>
  <outline>
    <contour>
      <point x="16" y="-240" type="line"/>
      <point x="69" y="-240" type="line"/>
      <point x="297" y="108" type="line"/>
      <point x="373" y="-139" type="line" smooth="yes"/>
      <point x="383" y="-165"/>
      <point x="403" y="-236"/>
      <point x="484" y="-236" type="curve" smooth="yes"/>
      <point x="512" y="-236"/>
      <point x="535" y="-228"/>
      <point x="553" y="-196" type="curve"/>
      <point x="545" y="-188" type="line"/>
      <point x="540" y="-191"/>
      <point x="525" y="-205"/>
      <point x="489" y="-205" type="curve" smooth="yes"/>
      <point x="420" y="-205"/>
      <point x="391" y="-170"/>
      <point x="376" y="-132" type="curve" smooth="yes"/>
      <point x="294" y="101" type="line"/>
      <point x="563" y="536" type="line"/>
      <point x="512" y="536" type="line"/>
      <point x="274" y="160" type="line"/>
      <point x="191" y="434" type="line" smooth="yes"/>
      <point x="173" y="488"/>
      <point x="149" y="540"/>
      <point x="77" y="540" type="curve" smooth="yes"/>
      <point x="47" y="540"/>
      <point x="27" y="532"/>
      <point x="2" y="505" type="curve"/>
      <point x="10" y="497" type="line"/>
      <point x="26" y="504"/>
      <point x="44" y="509"/>
      <point x="71" y="509" type="curve" smooth="yes"/>
      <point x="124" y="509"/>
      <point x="167" y="475"/>
      <point x="189" y="418" type="curve" smooth="yes"/>
      <point x="277" y="170" type="line"/>
    </contour>
  </outline>
</glyph>
<glyph name="uni03D9" format="2">
  <advance width="652"/>
  <unicode hex="03D9"/>
  <anchor x="327" y="-240" name="bottom"/>
  <anchor x="327" y="536" name="top"/>
  <outline>
    <contour>
      <point x="311" y="-240" type="line"/>
      <point x="339" y="-240" type="line"/>
      <point x="339" y="-11" type="line"/>
      <point x="491" y="-6"/>
      <point x="570" y="88"/>
      <point x="570" y="267" type="curve" smooth="yes"/>
      <point x="570" y="469"/>
      <point x="478" y="542"/>
      <point x="333" y="542" type="curve" smooth="yes"/>
      <point x="173" y="542"/>
      <point x="82" y="457"/>
      <point x="82" y="267" type="curve" smooth="yes"/>
      <point x="82" y="87"/>
      <point x="170" y="-4"/>
      <point x="311" y="-9" type="curve"/>
    </contour>
    <contour>
      <point x="326" y="0" type="curve" smooth="yes"/>
      <point x="177" y="0"/>
      <point x="112" y="99"/>
      <point x="110" y="267" type="curve" smooth="yes"/>
      <point x="108" y="449"/>
      <point x="178" y="532"/>
      <point x="335" y="532" type="curve" smooth="yes"/>
      <point x="471" y="532"/>
      <point x="542" y="457"/>
      <point x="542" y="267" type="curve" smooth="yes"/>
      <point x="542" y="112"/>
      <point x="487" y="0"/>
    </contour>
  </outline>
</glyph>
<glyph name="uni03FB" format="2">
  <advance width="864"/>
  <unicode hex="03FB"/>
  <anchor x="433" y="-240" name="bottom"/>
  <anchor x="433" y="536" name="top"/>
  <outline>
    <contour>
      <point x="166" y="-240" type="curve" smooth="yes"/>
      <point x="186" y="-240"/>
      <point x="191" y="-231"/>
      <point x="195" y="-219" type="curve"/>
      <point x="159" y="-219"/>
      <point x="149" y="-203"/>
      <point x="149" y="-232" type="curve" smooth="yes"/>
      <point x="149" y="482" type="line"/>
      <point x="151" y="482" type="line"/>
      <point x="405" y="171" type="line"/>
      <point x="405" y="171" type="line"/>
      <point x="674" y="449" type="line"/>
      <point x="676" y="449" type="line"/>
      <point x="676" y="65" type="line" smooth="yes"/>
      <point x="676" y="27"/>
      <point x="694" y="-10"/>
      <point x="769" y="-10" type="curve" smooth="yes"/>
      <point x="792" y="-10"/>
      <point x="809" y="-5"/>
      <point x="831" y="1" type="curve"/>
      <point x="831" y="12" type="line"/>
      <point x="812" y="5"/>
      <point x="791" y="0"/>
      <point x="766" y="0" type="curve" smooth="yes"/>
      <point x="699" y="0"/>
      <point x="704" y="37"/>
      <point x="704" y="116" type="curve" smooth="yes"/>
      <point x="704" y="454" type="line" smooth="yes"/>
      <point x="704" y="522"/>
      <point x="708" y="526"/>
      <point x="764" y="526" type="curve" smooth="yes"/>
      <point x="822" y="526" type="line"/>
      <point x="822" y="536" type="line"/>
      <point x="723" y="536" type="line"/>
      <point x="417" y="199" type="line"/>
      <point x="145" y="536" type="line"/>
      <point x="9" y="536" type="line"/>
      <point x="9" y="526" type="line"/>
      <point x="90" y="526" type="line" smooth="yes"/>
      <point x="131" y="526"/>
      <point x="139" y="522"/>
      <point x="139" y="454" type="curve" smooth="yes"/>
      <point x="139" y="-188" type="line" smooth="yes"/>
      <point x="139" y="-119"/>
      <point x="138" y="-224"/>
      <point x="138" y="-267" type="curve" smooth="yes"/>
      <point x="138" y="-241"/>
      <point x="154" y="-240"/>
    </contour>
  </outline>
</glyph>
<glyph name="afii10021" format="2">
  <advance width="818"/>
  <unicode hex="0414"/>
  <anchor x="409" y="0" name="bottom"/>
  <anchor x="409" y="714" name="top"/>
  <outline>
    <contour>
      <point x="28" y="-210" type="line"/>
      <point x="38" y="-210" type="line"/>
      <point x="38" y="-50"/>
      <point x="39" y="0"/>
      <point x="20" y="0" type="curve" smooth="yes"/>
      <point x="785" y="0" type="line" smooth="yes"/>
      <point x="757" y="0"/>
      <point x="758" y="-72"/>
      <point x="758" y="-210" type="curve"/>
      <point x="768" y="-210" type="line"/>
      <point x="768" y="20" type="line"/>
      <point x="736" y="20" type="line" smooth="yes"/>
      <point x="646" y="20"/>
      <point x="630" y="29"/>
      <point x="630" y="78" type="curve" smooth="yes"/>
      <point x="630" y="607" type="line" smooth="yes"/>
      <point x="630" y="693"/>
      <point x="624" y="704"/>
      <point x="708" y="704" type="curve" smooth="yes"/>
      <point x="758" y="704" type="line"/>
      <point x="758" y="714" type="line"/>
      <point x="236" y="714" type="line"/>
      <point x="236" y="704" type="line"/>
      <point x="303" y="704" type="line" smooth="yes"/>
      <point x="366" y="704"/>
      <point x="350" y="684"/>
      <point x="350" y="637" type="curve" smooth="yes"/>
      <point x="350" y="572"/>
      <point x="277" y="345"/>
      <point x="108" y="15" type="curve"/>
      <point x="28" y="15" type="line"/>
    </contour>
    <contour>
      <point x="121" y="15" type="line"/>
      <point x="196" y="156"/>
      <point x="363" y="455"/>
      <point x="367" y="694" type="curve"/>
      <point x="602" y="694" type="line"/>
      <point x="602" y="15" type="line"/>
    </contour>
  </outline>
</glyph>
<glyph name="afii10041" format="2">
  <advance width="901"/>
  <unicode hex="0427"/>
  <anchor x="450" y="0" name="bottom"/>
  <anchor x="450" y="714" name="top"/>
  <outline>
    <contour>
      <point x="551" y="0" type="line"/>
      <point x="832" y="0" type="line"/>
      <point x="832" y="10" type="line"/>
      <point x="762" y="10" type="line" smooth="yes"/>
      <point x="720" y="10"/>
      <point x="712" y="21"/>
      <point x="712" y="98" type="curve" smooth="yes"/>
      <point x="712" y="614" type="line" smooth="yes"/>
      <point x="712" y="693"/>
      <point x="714" y="704"/>
      <point x="774" y="704" type="curve" smooth="yes"/>
      <point x="832" y="704" type="line"/>
      <point x="832" y="714" type="line"/>
      <point x="561" y="714" type="line"/>
      <point x="561" y="704" type="line"/>
      <point x="626" y="704" type="line" smooth="yes"/>
      <point x="676" y="704"/>
      <point x="684" y="693"/>
      <point x="684" y="614" type="curve" smooth="yes"/>
      <point x="684" y="344" type="line"/>
      <point x="567" y="277"/>
      <point x="470" y="262"/>
      <point x="334" y="262" type="curve" smooth="yes"/>
      <point x="257" y="262"/>
      <point x="200" y="293"/>
      <point x="200" y="402" type="curve" smooth="yes"/>
      <point x="200" y="614" type="line" smooth="yes"/>
      <point x="200" y="693"/>
      <point x="202" y="704"/>
      <point x="264" y="704" type="curve" smooth="yes"/>
      <point x="311" y="704" type="line"/>
      <point x="311" y="714" type="line"/>
      <point x="49" y="714" type="line"/>
      <point x="49" y="704" type="line"/>
      <point x="116" y="704" type="line" smooth="yes"/>
      <point x="164" y="704"/>
      <point x="172" y="693"/>
      <point x="172" y="614" type="curve" smooth="yes"/>
      <point x="172" y="386" type="line" smooth="yes"/>
      <point x="172" y="303"/>
      <point x="227" y="252"/>
      <point x="334" y="252" type="curve" smooth="yes"/>
      <point x="469" y="252"/>
      <point x="567" y="265"/>
      <point x="684" y="333" type="curve"/>
      <point x="684" y="98" type="line" smooth="yes"/>
      <point x="684" y="21"/>
      <point x="680" y="10"/>
      <point x="618" y="10" type="curve" smooth="yes"/>
      <point x="551" y="10" type="line"/>
    </contour>
  </outline>
</glyph>
<glyph name="afii10067" format="2">
  <advance width="666"/>
  <unicode hex="0432"/>
  <anchor x="334" y="0" name="bottom"/>
  <anchor x="334" y="536" name="top"/>
  <outline>
    <contour>
      <point x="41" y="0" type="line"/>
      <point x="376" y="0" type="line" smooth="yes"/>
      <point x="523" y="0"/>
      <point x="594" y="60"/>
      <point x="594" y="135" type="curve" smooth="yes"/>
      <point x="594" y="223"/>
      <point x="556" y="257"/>
      <point x="425" y="275" type="curve"/>
      <point x="425" y="278" type="line"/>
      <point x="520" y="292"/>
      <point x="569" y="347"/>
      <point x="569" y="401" type="curve" smooth="yes"/>
      <point x="569" y="492"/>
      <point x="518" y="536"/>
      <point x="375" y="536" type="curve" smooth="yes"/>
      <point x="41" y="536" type="line"/>
      <point x="41" y="526" type="line"/>
      <point x="96" y="526" type="line" smooth="yes"/>
      <point x="167" y="526"/>
      <point x="173" y="522"/>
      <point x="173" y="454" type="curve" smooth="yes"/>
      <point x="173" y="82" type="line" smooth="yes"/>
      <point x="173" y="13"/>
      <point x="167" y="10"/>
      <point x="94" y="10" type="curve" smooth="yes"/>
      <point x="41" y="10" type="line"/>
    </contour>
    <contour>
      <point x="201" y="10" type="line"/>
      <point x="201" y="268" type="line"/>
      <point x="360" y="268" type="line" smooth="yes"/>
      <point x="495" y="268"/>
      <point x="566" y="228"/>
      <point x="566" y="135" type="curve" smooth="yes"/>
      <point x="566" y="64"/>
      <point x="520" y="10"/>
      <point x="362" y="10" type="curve" smooth="yes"/>
    </contour>
    <contour>
      <point x="201" y="278" type="line"/>
      <point x="201" y="526" type="line"/>
      <point x="371" y="526" type="line" smooth="yes"/>
      <point x="510" y="526"/>
      <point x="541" y="466"/>
      <point x="541" y="403" type="curve" smooth="yes"/>
      <point x="541" y="320"/>
      <point x="450" y="278"/>
      <point x="339" y="278" type="curve" smooth="yes"/>
    </contour>
  </outline>
</glyph>
<glyph name="afii10084" format="2">
  <advance width="582"/>
  <unicode hex="0442"/>
  <anchor x="292" y="0" name="bottom"/>
  <anchor x="292" y="536" name="top"/>
  <outline>
    <contour>
      <point x="143" y="0" type="line"/>
      <point x="435" y="0" type="line"/>
      <point x="435" y="10" type="line"/>
      <point x="392" y="10" type="line" smooth="yes"/>
      <point x="308" y="10"/>
      <point x="304" y="12"/>
      <point x="304" y="82" type="curve" smooth="yes"/>
      <point x="304" y="516" type="line"/>
      <point x="494" y="516" type="line" smooth="yes"/>
      <point x="520" y="516"/>
      <point x="540" y="508"/>
      <point x="541" y="501" type="curve" smooth="yes"/>
      <point x="549" y="382" type="line"/>
      <point x="559" y="382" type="line"/>
      <point x="554" y="536" type="line"/>
      <point x="29" y="536" type="line"/>
      <point x="23" y="382" type="line"/>
      <point x="33" y="382" type="line"/>
      <point x="42" y="503" type="line" smooth="yes"/>
      <point x="44" y="505"/>
      <point x="64" y="516"/>
      <point x="90" y="516" type="curve" smooth="yes"/>
      <point x="276" y="516" type="line"/>
      <point x="276" y="82" type="line" smooth="yes"/>
      <point x="276" y="12"/>
      <point x="274" y="10"/>
      <point x="191" y="10" type="curve" smooth="yes"/>
      <point x="143" y="10" type="line"/>
    </contour>
  </outline>
</glyph>
<glyph name="afii10090" format="2">
  <advance width="1106"/>
  <unicode hex="0448"/>
  <anchor x="553" y="0" name="bottom"/>
  <anchor x="553" y="536" name="top"/>
  <outline>
    <contour>
      <point x="41" y="0" type="line"/>
      <point x="1063" y="0" type="line"/>
      <point x="1063" y="12" type="line"/>
      <point x="1049" y="12" type="line" smooth="yes"/>
      <point x="965" y="12"/>
      <point x="931" y="22"/>
      <point x="931" y="70" type="curve" smooth="yes"/>
      <point x="931" y="454" type="line" smooth="yes"/>
      <point x="931" y="522"/>
      <point x="936" y="526"/>
      <point x="1001" y="526" type="curve" smooth="yes"/>
      <point x="1063" y="526" type="line"/>
      <point x="1063" y="536" type="line"/>
      <point x="777" y="536" type="line"/>
      <point x="777" y="526" type="line"/>
      <point x="826" y="526" type="line" smooth="yes"/>
      <point x="897" y="526"/>
      <point x="903" y="522"/>
      <point x="903" y="454" type="curve" smooth="yes"/>
      <point x="903" y="15" type="line"/>
      <point x="566" y="15" type="line"/>
      <point x="566" y="454" type="line" smooth="yes"/>
      <point x="566" y="522"/>
      <point x="569" y="526"/>
      <point x="642" y="526" type="curve" smooth="yes"/>
      <point x="692" y="526" type="line"/>
      <point x="692" y="536" type="line"/>
      <point x="401" y="536" type="line"/>
      <point x="401" y="526" type="line"/>
      <point x="455" y="526" type="line" smooth="yes"/>
      <point x="536" y="526"/>
      <point x="538" y="522"/>
      <point x="538" y="454" type="curve" smooth="yes"/>
      <point x="538" y="15" type="line"/>
      <point x="201" y="15" type="line"/>
      <point x="201" y="454" type="line" smooth="yes"/>
      <point x="201" y="521"/>
      <point x="210" y="526"/>
      <point x="268" y="526" type="curve" smooth="yes"/>
      <point x="327" y="526" type="line"/>
      <point x="327" y="536" type="line"/>
      <point x="41" y="536" type="line"/>
      <point x="41" y="526" type="line"/>
      <point x="100" y="526" type="line" smooth="yes"/>
      <point x="169" y="526"/>
      <point x="173" y="521"/>
      <point x="173" y="454" type="curve" smooth="yes"/>
      <point x="173" y="82" type="line" smooth="yes"/>
      <point x="173" y="12"/>
      <point x="169" y="10"/>
      <point x="94" y="10" type="curve" smooth="yes"/>
      <point x="41" y="10" type="line"/>
    </contour>
  </outline>
</glyph>
<glyph name="afii10095" format="2">
  <advance width="544"/>
  <unicode hex="044D"/>
  <anchor x="273" y="0" name="bottom"/>
  <anchor x="273" y="536" name="top"/>
  <outline>
    <contour>
      <point x="232" y="-2" type="curve" smooth="yes"/>
      <point x="363" y="-2"/>
      <point x="463" y="92"/>
      <point x="463" y="267" type="curve" smooth="yes"/>
      <point x="463" y="435"/>
      <point x="386" y="542"/>
      <point x="258" y="542" type="curve" smooth="yes"/>
      <point x="101" y="542"/>
      <point x="60" y="488"/>
      <point x="60" y="451" type="curve" smooth="yes"/>
      <point x="60" y="436"/>
      <point x="71" y="422"/>
      <point x="87" y="422" type="curve"/>
      <point x="87" y="507"/>
      <point x="171" y="532"/>
      <point x="245" y="532" type="curve" smooth="yes"/>
      <point x="319" y="532"/>
      <point x="425" y="498"/>
      <point x="433" y="272" type="curve"/>
      <point x="147" y="272" type="line"/>
      <point x="147" y="262" type="line"/>
      <point x="433" y="262" type="line"/>
      <point x="435" y="180"/>
      <point x="398" y="8"/>
      <point x="233" y="8" type="curve" smooth="yes"/>
      <point x="106" y="8"/>
      <point x="95" y="46"/>
      <point x="100" y="138" type="curve"/>
      <point x="75" y="143"/>
      <point x="53" y="135"/>
      <point x="53" y="105" type="curve" smooth="yes"/>
      <point x="53" y="66"/>
      <point x="66" y="-2"/>
    </contour>
  </outline>
</glyph>
<glyph name="palatalizationcomb.cy" format="2">
  <unicode hex="0484"/>
  <anchor x="13" y="536" name="_top"/>
  <anchor x="13" y="688" name="top"/>
  <outline>
    <contour>
      <point x="-193" y="611" type="line"/>
      <point x="-177" y="611" type="line" smooth="yes"/>
      <point x="-33" y="611"/>
      <point x="40" y="666"/>
      <point x="134" y="666" type="curve" smooth="yes"/>
      <point x="193" y="666"/>
      <point x="201" y="664"/>
      <point x="205" y="632" type="curve" smooth="yes"/>
      <point x="208" y="612" type="line"/>
      <point x="218" y="612" type="line"/>
      <point x="210" y="673"/>
      <point x="190" y="688"/>
      <point x="136" y="688" type="curve" smooth="yes"/>
      <point x="54" y="688"/>
      <point x="-54" y="633"/>
      <point x="-164" y="633" type="curve"/>
      <point x="-193" y="633" type="line"/>
    </contour>
  </outline>
</glyph>
<glyph name="uni0494" format="2">
  <advance width="721"/>
  <unicode hex="0494"/>
  <anchor x="360" y="-242" name="bottom"/>
  <anchor x="360" y="714" name="top"/>
  <outline>
    <contour>
      <point x="359" y="-242" type="curve" smooth="yes"/>
      <point x="590" y="-242"/>
      <point x="664" y="-67"/>
      <point x="664" y="115" type="curve" smooth="yes"/>
      <point x="664" y="274"/>
      <point x="630" y="396"/>
      <point x="369" y="396" type="curve" smooth="yes"/>
      <point x="318" y="396"/>
      <point x="254" y="381"/>
      <point x="217" y="366" type="curve"/>
      <point x="217" y="704" type="line"/>
      <point x="518" y="704" type="line" smooth="yes"/>
      <point x="582" y="704"/>
      <point x="584" y="686"/>
      <point x="586" y="651" type="curve" smooth="yes"/>
      <point x="592" y="538" type="line"/>
      <point x="602" y="538" type="line"/>
      <point x="596" y="714" type="line"/>
      <point x="64" y="714" type="line"/>
      <point x="64" y="704" type="line"/>
      <point x="139" y="704" type="line" smooth="yes"/>
      <point x="181" y="704"/>
      <point x="189" y="693"/>
      <point x="189" y="616" type="curve" smooth="yes"/>
      <point x="189" y="118" type="line" smooth="yes"/>
      <point x="189" y="21"/>
      <point x="181" y="10"/>
      <point x="137" y="10" type="curve" smooth="yes"/>
      <point x="64" y="10" type="line"/>
      <point x="64" y="0" type="line"/>
      <point x="376" y="0" type="line"/>
      <point x="376" y="10" type="line"/>
      <point x="273" y="10" type="line" smooth="yes"/>
      <point x="223" y="10"/>
      <point x="217" y="21"/>
      <point x="217" y="118" type="curve" smooth="yes"/>
      <point x="217" y="355" type="line"/>
      <point x="254" y="370"/>
      <point x="320" y="386"/>
      <point x="371" y="386" type="curve" smooth="yes"/>
      <point x="608" y="386"/>
      <point x="636" y="264"/>
      <point x="636" y="117" type="curve" smooth="yes"/>
      <point x="636" y="-54"/>
      <point x="573" y="-232"/>
      <point x="361" y="-232" type="curve" smooth="yes"/>
      <point x="300" y="-232"/>
      <point x="229" y="-211"/>
      <point x="229" y="-102" type="curve"/>
      <point x="218" y="-102"/>
      <point x="197" y="-116"/>
      <point x="197" y="-145" type="curve" smooth="yes"/>
      <point x="197" y="-218"/>
      <point x="260" y="-242"/>
    </contour>
  </outline>
</glyph>
<glyph name="uni049E" format="2">
  <advance width="814"/>
  <unicode hex="049E"/>
  <anchor x="407" y="0" name="bottom"/>
  <anchor x="407" y="714" name="top"/>
  <outline>
    <contour>
      <point x="64" y="571" type="line"/>
      <point x="336" y="571" type="line"/>
      <point x="336" y="581" type="line"/>
      <point x="64" y="581" type="line"/>
    </contour>
    <component base="afii10028"/>
  </outline>
</glyph>
<glyph name="uni04FE" format="2">
  <advance width="693"/>
  <unicode hex="04FE"/>
  <anchor x="346" y="0" name="bottom"/>
  <anchor x="346" y="714" name="top"/>
  <anchor x="681" y="714" name="topright"/>
  <outline>
    <contour>
      <point x="110" y="375" type="line"/>
      <point x="586" y="375" type="line"/>
      <point x="586" y="385" type="line"/>
      <point x="110" y="385" type="line"/>
    </contour>
    <component base="X"/>
  </outline>
</glyph>
<glyph name="uni0508" format="2">
  <advance width="1061"/>
  <unicode hex="0508"/>
  <anchor x="531" y="0" name="bottom"/>
  <anchor x="531" y="714" name="top"/>
  <outline>
    <contour>
      <point x="778" y="-10" type="curve" smooth="yes"/>
      <point x="869" y="-10"/>
      <point x="924" y="46"/>
      <point x="924" y="96" type="curve" smooth="yes"/>
      <point x="924" y="328" type="line" smooth="yes"/>
      <point x="924" y="369"/>
      <point x="938" y="374"/>
      <point x="958" y="374" type="curve" smooth="yes"/>
      <point x="1043" y="374" type="line"/>
      <point x="1043" y="384" type="line"/>
      <point x="784" y="384" type="line"/>
      <point x="784" y="374" type="line"/>
      <point x="864" y="374" type="line" smooth="yes"/>
      <point x="882" y="374"/>
      <point x="896" y="369"/>
      <point x="896" y="328" type="curve" smooth="yes"/>
      <point x="896" y="89" type="line" smooth="yes"/>
      <point x="896" y="37"/>
      <point x="856" y="0"/>
      <point x="777" y="0" type="curve" smooth="yes"/>
      <point x="693" y="0"/>
      <point x="642" y="26"/>
      <point x="642" y="183" type="curve" smooth="yes"/>
      <point x="642" y="594" type="line" smooth="yes"/>
      <point x="642" y="692"/>
      <point x="640" y="704"/>
      <point x="680" y="704" type="curve" smooth="yes"/>
      <point x="759" y="704" type="line"/>
      <point x="759" y="714" type="line"/>
      <point x="211" y="714" type="line"/>
      <point x="211" y="704" type="line"/>
      <point x="305" y="704" type="line" smooth="yes"/>
      <point x="331" y="704"/>
      <point x="330" y="694"/>
      <point x="330" y="605" type="curve" smooth="yes"/>
      <point x="330" y="523"/>
      <point x="281" y="282"/>
      <point x="242" y="156" type="curve" smooth="yes"/>
      <point x="215" y="86"/>
      <point x="187" y="15"/>
      <point x="106" y="15" type="curve" smooth="yes"/>
      <point x="66" y="15"/>
      <point x="37" y="36"/>
      <point x="31" y="93" type="curve"/>
      <point x="13" y="93"/>
      <point x="0" y="82"/>
      <point x="0" y="63" type="curve" smooth="yes"/>
      <point x="0" y="18"/>
      <point x="46" y="-7"/>
      <point x="100" y="-7" type="curve" smooth="yes"/>
      <point x="202" y="-7"/>
      <point x="218" y="65"/>
      <point x="250" y="167" type="curve" smooth="yes"/>
      <point x="300" y="344"/>
      <point x="335" y="576"/>
      <point x="349" y="699" type="curve"/>
      <point x="614" y="699" type="line"/>
      <point x="614" y="174" type="line" smooth="yes"/>
      <point x="614" y="-17"/>
      <point x="697" y="-10"/>
    </contour>
  </outline>
</glyph>
<glyph name="uni0509" format="2">
  <advance width="948"/>
  <unicode hex="0509"/>
  <anchor x="474" y="0" name="bottom"/>
  <anchor x="474" y="536" name="top"/>
  <outline>
    <contour>
      <point x="658" y="-10" type="curve" smooth="yes"/>
      <point x="755" y="-10"/>
      <point x="809" y="37"/>
      <point x="809" y="88" type="curve" smooth="yes"/>
      <point x="809" y="267" type="line" smooth="yes"/>
      <point x="809" y="315"/>
      <point x="815" y="325"/>
      <point x="854" y="325" type="curve" smooth="yes"/>
      <point x="929" y="325" type="line"/>
      <point x="929" y="335" type="line"/>
      <point x="656" y="335" type="line"/>
      <point x="656" y="325" type="line"/>
      <point x="758" y="325" type="line" smooth="yes"/>
      <point x="771" y="325"/>
      <point x="781" y="314"/>
      <point x="781" y="267" type="curve" smooth="yes"/>
      <point x="781" y="82" type="line" smooth="yes"/>
      <point x="781" y="20"/>
      <point x="740" y="0"/>
      <point x="658" y="0" type="curve" smooth="yes"/>
      <point x="585" y="0"/>
      <point x="547" y="17"/>
      <point x="547" y="137" type="curve" smooth="yes"/>
      <point x="547" y="447" type="line" smooth="yes"/>
      <point x="547" y="511"/>
      <point x="545" y="526"/>
      <point x="629" y="526" type="curve" smooth="yes"/>
      <point x="681" y="526" type="line"/>
      <point x="681" y="536" type="line"/>
      <point x="158" y="536" type="line"/>
      <point x="158" y="526" type="line"/>
      <point x="240" y="526" type="line" smooth="yes"/>
      <point x="292" y="526"/>
      <point x="288" y="515"/>
      <point x="288" y="466" type="curve" smooth="yes"/>
      <point x="288" y="379"/>
      <point x="264" y="272"/>
      <point x="246" y="218" type="curve" smooth="yes"/>
      <point x="214" y="139"/>
      <point x="183" y="20"/>
      <point x="101" y="20" type="curve" smooth="yes"/>
      <point x="62" y="20"/>
      <point x="27" y="33"/>
      <point x="27" y="129" type="curve"/>
      <point x="12" y="129"/>
      <point x="-2" y="114"/>
      <point x="-2" y="76" type="curve" smooth="yes"/>
      <point x="-2" y="50"/>
      <point x="19" y="-7"/>
      <point x="95" y="-7" type="curve" smooth="yes"/>
      <point x="167" y="-7"/>
      <point x="188" y="37"/>
      <point x="230" y="134" type="curve" smooth="yes"/>
      <point x="267" y="222"/>
      <point x="293" y="362"/>
      <point x="311" y="521" type="curve"/>
      <point x="519" y="521" type="line"/>
      <point x="519" y="160" type="line" smooth="yes"/>
      <point x="519" y="-8"/>
      <point x="587" y="-10"/>
    </contour>
  </outline>
</glyph>
<glyph name="uni050C" format="2">
  <advance width="799"/>
  <unicode hex="050C"/>
  <anchor x="399" y="0" name="bottom"/>
  <anchor x="399" y="714" name="top"/>
  <outline>
    <contour>
      <point x="413" y="-10" type="curve" smooth="yes"/>
      <point x="599" y="-12"/>
      <point x="700" y="67"/>
      <point x="700" y="215" type="curve" smooth="yes"/>
      <point x="700" y="294"/>
      <point x="708" y="311"/>
      <point x="719" y="311" type="curve" smooth="yes"/>
      <point x="790" y="311" type="line"/>
      <point x="790" y="321" type="line"/>
      <point x="541" y="321" type="line"/>
      <point x="541" y="311" type="line"/>
      <point x="636" y="311" type="line" smooth="yes"/>
      <point x="656" y="311"/>
      <point x="673" y="294"/>
      <point x="672" y="215" type="curve" smooth="yes"/>
      <point x="670" y="33"/>
      <point x="547" y="0"/>
      <point x="415" y="0" type="curve" smooth="yes"/>
      <point x="176" y="0"/>
      <point x="102" y="168"/>
      <point x="102" y="358" type="curve" smooth="yes"/>
      <point x="102" y="637"/>
      <point x="239" y="714"/>
      <point x="469" y="714" type="curve" smooth="yes"/>
      <point x="617" y="714"/>
      <point x="660" y="684"/>
      <point x="660" y="567" type="curve"/>
      <point x="676" y="567"/>
      <point x="690" y="577"/>
      <point x="690" y="610" type="curve" smooth="yes"/>
      <point x="690" y="660"/>
      <point x="635" y="724"/>
      <point x="477" y="724" type="curve" smooth="yes"/>
      <point x="249" y="724"/>
      <point x="74" y="656"/>
      <point x="74" y="358" type="curve" smooth="yes"/>
      <point x="74" y="153"/>
      <point x="166" y="-7"/>
    </contour>
  </outline>
</glyph>
<glyph name="uni0521" format="2">
  <advance width="906"/>
  <unicode hex="0521"/>
  <anchor x="454" y="-240" name="bottom"/>
  <anchor x="454" y="536" name="top"/>
  <outline>
    <contour>
      <point x="607" y="-240" type="curve" smooth="yes"/>
      <point x="753" y="-240"/>
      <point x="839" y="-141"/>
      <point x="839" y="38" type="curve" smooth="yes"/>
      <point x="839" y="191"/>
      <point x="814" y="295"/>
      <point x="602" y="295" type="curve" smooth="yes"/>
      <point x="558" y="295"/>
      <point x="526" y="285"/>
      <point x="503" y="281" type="curve"/>
      <point x="503" y="447" type="line" smooth="yes"/>
      <point x="503" y="521"/>
      <point x="505" y="526"/>
      <point x="589" y="526" type="curve" smooth="yes"/>
      <point x="617" y="526" type="line"/>
      <point x="617" y="536" type="line"/>
      <point x="158" y="536" type="line"/>
      <point x="158" y="526" type="line"/>
      <point x="212" y="526" type="line" smooth="yes"/>
      <point x="308" y="526"/>
      <point x="302" y="517"/>
      <point x="302" y="513" type="curve" smooth="yes"/>
      <point x="302" y="399"/>
      <point x="272" y="245"/>
      <point x="260" y="218" type="curve" smooth="yes"/>
      <point x="230" y="135"/>
      <point x="214" y="22"/>
      <point x="110" y="22" type="curve" smooth="yes"/>
      <point x="65" y="22"/>
      <point x="28" y="58"/>
      <point x="28" y="124" type="curve"/>
      <point x="21" y="124"/>
      <point x="-2" y="110"/>
      <point x="-2" y="85" type="curve" smooth="yes"/>
      <point x="-2" y="45"/>
      <point x="22" y="-7"/>
      <point x="82" y="-7" type="curve" smooth="yes"/>
      <point x="167" y="-7"/>
      <point x="204" y="39"/>
      <point x="245" y="136" type="curve" smooth="yes"/>
      <point x="282" y="227"/>
      <point x="307" y="377"/>
      <point x="325" y="526" type="curve"/>
      <point x="475" y="526" type="line"/>
      <point x="475" y="82" type="line" smooth="yes"/>
      <point x="475" y="12"/>
      <point x="475" y="10"/>
      <point x="386" y="10" type="curve" smooth="yes"/>
      <point x="354" y="10" type="line"/>
      <point x="354" y="0" type="line"/>
      <point x="619" y="0" type="line"/>
      <point x="619" y="10" type="line"/>
      <point x="593" y="10" type="line" smooth="yes"/>
      <point x="503" y="10"/>
      <point x="503" y="12"/>
      <point x="503" y="82" type="curve" smooth="yes"/>
      <point x="503" y="272" type="line"/>
      <point x="526" y="275"/>
      <point x="562" y="285"/>
      <point x="602" y="285" type="curve" smooth="yes"/>
      <point x="797" y="285"/>
      <point x="811" y="173"/>
      <point x="811" y="45" type="curve" smooth="yes"/>
      <point x="811" y="-120"/>
      <point x="750" y="-230"/>
      <point x="609" y="-230" type="curve" smooth="yes"/>
      <point x="551" y="-230"/>
      <point x="496" y="-217"/>
      <point x="496" y="-107" type="curve"/>
      <point x="491" y="-107"/>
      <point x="463" y="-120"/>
      <point x="463" y="-162" type="curve" smooth="yes"/>
      <point x="463" y="-227"/>
      <point x="541" y="-240"/>
    </contour>
  </outline>
</glyph>
<glyph name="uni0522" format="2">
  <advance width="1165"/>
  <unicode hex="0522"/>
  <anchor x="583" y="-242" name="bottom"/>
  <anchor x="583" y="714" name="top"/>
  <outline>
    <contour>
      <point x="793" y="-242" type="curve" smooth="yes"/>
      <point x="1024" y="-242"/>
      <point x="1098" y="-67"/>
      <point x="1098" y="115" type="curve" smooth="yes"/>
      <point x="1098" y="274"/>
      <point x="1064" y="396"/>
      <point x="803" y="396" type="curve" smooth="yes"/>
      <point x="749" y="396"/>
      <point x="688" y="380"/>
      <point x="648" y="364" type="curve"/>
      <point x="648" y="614" type="line" smooth="yes"/>
      <point x="648" y="693"/>
      <point x="654" y="704"/>
      <point x="704" y="704" type="curve" smooth="yes"/>
      <point x="767" y="704" type="line"/>
      <point x="767" y="714" type="line"/>
      <point x="495" y="714" type="line"/>
      <point x="495" y="704" type="line"/>
      <point x="566" y="704" type="line" smooth="yes"/>
      <point x="614" y="704"/>
      <point x="620" y="693"/>
      <point x="620" y="614" type="curve" smooth="yes"/>
      <point x="620" y="379" type="line"/>
      <point x="216" y="379" type="line"/>
      <point x="216" y="614" type="line" smooth="yes"/>
      <point x="216" y="693"/>
      <point x="220" y="704"/>
      <point x="274" y="704" type="curve" smooth="yes"/>
      <point x="337" y="704" type="line"/>
      <point x="337" y="714" type="line"/>
      <point x="63" y="714" type="line"/>
      <point x="63" y="704" type="line"/>
      <point x="130" y="704" type="line" smooth="yes"/>
      <point x="182" y="704"/>
      <point x="188" y="693"/>
      <point x="188" y="614" type="curve" smooth="yes"/>
      <point x="188" y="98" type="line" smooth="yes"/>
      <point x="188" y="21"/>
      <point x="184" y="10"/>
      <point x="128" y="10" type="curve" smooth="yes"/>
      <point x="63" y="10" type="line"/>
      <point x="63" y="0" type="line"/>
      <point x="337" y="0" type="line"/>
      <point x="337" y="10" type="line"/>
      <point x="272" y="10" type="line" smooth="yes"/>
      <point x="222" y="10"/>
      <point x="216" y="21"/>
      <point x="216" y="98" type="curve" smooth="yes"/>
      <point x="216" y="369" type="line"/>
      <point x="620" y="369" type="line"/>
      <point x="620" y="98" type="line" smooth="yes"/>
      <point x="620" y="21"/>
      <point x="614" y="10"/>
      <point x="564" y="10" type="curve" smooth="yes"/>
      <point x="503" y="10" type="line"/>
      <point x="503" y="0" type="line"/>
      <point x="767" y="0" type="line"/>
      <point x="767" y="10" type="line"/>
      <point x="704" y="10" type="line" smooth="yes"/>
      <point x="654" y="10"/>
      <point x="648" y="21"/>
      <point x="648" y="98" type="curve" smooth="yes"/>
      <point x="648" y="353" type="line"/>
      <point x="686" y="369"/>
      <point x="751" y="386"/>
      <point x="805" y="386" type="curve" smooth="yes"/>
      <point x="1042" y="386"/>
      <point x="1070" y="264"/>
      <point x="1070" y="117" type="curve" smooth="yes"/>
      <point x="1070" y="-54"/>
      <point x="1007" y="-232"/>
      <point x="795" y="-232" type="curve" smooth="yes"/>
      <point x="724" y="-232"/>
      <point x="643" y="-207"/>
      <point x="643" y="-98" type="curve"/>
      <point x="632" y="-98"/>
      <point x="611" y="-110"/>
      <point x="611" y="-141" type="curve" smooth="yes"/>
      <point x="611" y="-214"/>
      <point x="694" y="-242"/>
    </contour>
  </outline>
</glyph>
<glyph name="uni0523" format="2">
  <advance width="1018"/>
  <unicode hex="0523"/>
  <anchor x="510" y="-240" name="bottom"/>
  <anchor x="510" y="536" name="top"/>
  <outline>
    <contour>
      <point x="726" y="-240" type="curve" smooth="yes"/>
      <point x="859" y="-240"/>
      <point x="951" y="-138"/>
      <point x="951" y="38" type="curve" smooth="yes"/>
      <point x="951" y="191"/>
      <point x="926" y="295"/>
      <point x="714" y="295" type="curve" smooth="yes"/>
      <point x="670" y="295"/>
      <point x="638" y="285"/>
      <point x="616" y="281" type="curve"/>
      <point x="616" y="454" type="line" smooth="yes"/>
      <point x="616" y="522"/>
      <point x="628" y="526"/>
      <point x="674" y="526" type="curve" smooth="yes"/>
      <point x="729" y="526" type="line"/>
      <point x="729" y="536" type="line"/>
      <point x="462" y="536" type="line"/>
      <point x="462" y="526" type="line"/>
      <point x="471" y="526" type="line" smooth="yes"/>
      <point x="554" y="526"/>
      <point x="588" y="522"/>
      <point x="588" y="454" type="curve" smooth="yes"/>
      <point x="588" y="280" type="line"/>
      <point x="201" y="280" type="line"/>
      <point x="201" y="454" type="line" smooth="yes"/>
      <point x="201" y="522"/>
      <point x="203" y="526"/>
      <point x="287" y="526" type="curve" smooth="yes"/>
      <point x="328" y="526" type="line"/>
      <point x="328" y="536" type="line"/>
      <point x="41" y="536" type="line"/>
      <point x="41" y="526" type="line"/>
      <point x="86" y="526" type="line" smooth="yes"/>
      <point x="169" y="526"/>
      <point x="173" y="522"/>
      <point x="173" y="454" type="curve" smooth="yes"/>
      <point x="173" y="82" type="line" smooth="yes"/>
      <point x="173" y="13"/>
      <point x="169" y="10"/>
      <point x="86" y="10" type="curve" smooth="yes"/>
      <point x="41" y="10" type="line"/>
      <point x="41" y="0" type="line"/>
      <point x="328" y="0" type="line"/>
      <point x="328" y="10" type="line"/>
      <point x="284" y="10" type="line" smooth="yes"/>
      <point x="206" y="10"/>
      <point x="201" y="13"/>
      <point x="201" y="82" type="curve" smooth="yes"/>
      <point x="201" y="270" type="line"/>
      <point x="588" y="270" type="line"/>
      <point x="588" y="82" type="line" smooth="yes"/>
      <point x="588" y="12"/>
      <point x="586" y="10"/>
      <point x="509" y="10" type="curve" smooth="yes"/>
      <point x="470" y="10" type="line"/>
      <point x="470" y="0" type="line"/>
      <point x="731" y="0" type="line"/>
      <point x="731" y="10" type="line"/>
      <point x="694" y="10" type="line" smooth="yes"/>
      <point x="617" y="10"/>
      <point x="616" y="12"/>
      <point x="616" y="82" type="curve" smooth="yes"/>
      <point x="616" y="270" type="line"/>
      <point x="638" y="275"/>
      <point x="674" y="285"/>
      <point x="714" y="285" type="curve" smooth="yes"/>
      <point x="909" y="285"/>
      <point x="923" y="173"/>
      <point x="923" y="45" type="curve" smooth="yes"/>
      <point x="923" y="-139"/>
      <point x="852" y="-230"/>
      <point x="729" y="-230" type="curve" smooth="yes"/>
      <point x="655" y="-230"/>
      <point x="608" y="-218"/>
      <point x="608" y="-107" type="curve"/>
      <point x="595" y="-107"/>
      <point x="575" y="-121"/>
      <point x="575" y="-151" type="curve" smooth="yes"/>
      <point x="575" y="-236"/>
      <point x="651" y="-240"/>
    </contour>
  </outline>
</glyph>
<glyph name="uni1AB1" format="2">
  <unicode hex="1AB1"/>
  <anchor x="-5" y="536" name="_top"/>
  <anchor x="-5" y="814" name="top"/>
  <outline>
    <contour>
      <point x="-4" y="596" type="curve" smooth="yes"/>
      <point x="64" y="596"/>
      <point x="131" y="631"/>
      <point x="131" y="705" type="curve" smooth="yes"/>
      <point x="131" y="779"/>
      <point x="64" y="814"/>
      <point x="-4" y="814" type="curve" smooth="yes"/>
      <point x="-72" y="814"/>
      <point x="-139" y="779"/>
      <point x="-139" y="705" type="curve" smooth="yes"/>
      <point x="-139" y="631"/>
      <point x="-72" y="596"/>
    </contour>
    <contour>
      <point x="-212" y="642" type="curve" smooth="yes"/>
      <point x="-197" y="642"/>
      <point x="-181" y="660"/>
      <point x="-181" y="678" type="curve" smooth="yes"/>
      <point x="-181" y="690"/>
      <point x="-197" y="708"/>
      <point x="-212" y="708" type="curve" smooth="yes"/>
      <point x="-235" y="708"/>
      <point x="-244" y="690"/>
      <point x="-244" y="678" type="curve" smooth="yes"/>
      <point x="-244" y="660"/>
      <point x="-235" y="642"/>
    </contour>
    <contour>
      <point x="-5" y="606" type="curve" smooth="yes"/>
      <point x="-68" y="606"/>
      <point x="-129" y="636"/>
      <point x="-129" y="705" type="curve" smooth="yes"/>
      <point x="-129" y="774"/>
      <point x="-68" y="804"/>
      <point x="-5" y="804" type="curve" smooth="yes"/>
      <point x="60" y="804"/>
      <point x="121" y="774"/>
      <point x="121" y="705" type="curve" smooth="yes"/>
      <point x="121" y="636"/>
      <point x="60" y="606"/>
    </contour>
    <contour>
      <point x="204" y="642" type="curve" smooth="yes"/>
      <point x="223" y="642"/>
      <point x="236" y="660"/>
      <point x="236" y="678" type="curve" smooth="yes"/>
      <point x="236" y="690"/>
      <point x="223" y="708"/>
      <point x="204" y="708" type="curve" smooth="yes"/>
      <point x="187" y="708"/>
      <point x="172" y="690"/>
      <point x="172" y="678" type="curve" smooth="yes"/>
      <point x="172" y="660"/>
      <point x="187" y="642"/>
    </contour>
  </outline>
</glyph>
<glyph name="uni1AB7" format="2">
  <unicode hex="1AB7"/>
  <anchor x="-235" y="0" name="_bottom"/>
  <anchor x="-235" y="-231" name="bottom"/>
  <outline>
    <contour>
      <point x="-230" y="-231" type="curve" smooth="yes"/>
      <point x="-192" y="-231"/>
      <point x="-180" y="-217"/>
      <point x="-180" y="-207" type="curve" smooth="yes"/>
      <point x="-180" y="-204"/>
      <point x="-182" y="-195"/>
      <point x="-190" y="-194" type="curve"/>
      <point x="-192" y="-203"/>
      <point x="-207" y="-206"/>
      <point x="-233" y="-206" type="curve" smooth="yes"/>
      <point x="-280" y="-206"/>
      <point x="-291" y="-191"/>
      <point x="-291" y="-159" type="curve" smooth="yes"/>
      <point x="-291" y="-40" type="line"/>
      <point x="-301" y="-40" type="line"/>
      <point x="-301" y="-156" type="line" smooth="yes"/>
      <point x="-301" y="-206"/>
      <point x="-281" y="-231"/>
    </contour>
  </outline>
</glyph>
<glyph name="uni1ABB" format="2">
  <unicode hex="1ABB"/>
  <anchor x="-376" y="536" name="_top"/>
  <anchor x="-376" y="805" name="top"/>
  <outline>
    <contour>
      <point x="-131" y="569" type="line"/>
      <point x="-68" y="581"/>
      <point x="-36" y="644"/>
      <point x="-36" y="689" type="curve" smooth="yes"/>
      <point x="-36" y="735"/>
      <point x="-68" y="793"/>
      <point x="-131" y="805" type="curve"/>
      <point x="-131" y="798" type="line"/>
      <point x="-80" y="778"/>
      <point x="-51" y="735"/>
      <point x="-51" y="691" type="curve" smooth="yes"/>
      <point x="-51" y="639"/>
      <point x="-80" y="592"/>
      <point x="-131" y="578" type="curve"/>
    </contour>
    <contour>
      <point x="-618" y="569" type="curve"/>
      <point x="-618" y="578" type="line"/>
      <point x="-669" y="592"/>
      <point x="-698" y="639"/>
      <point x="-698" y="691" type="curve" smooth="yes"/>
      <point x="-698" y="735"/>
      <point x="-669" y="778"/>
      <point x="-618" y="798" type="curve"/>
      <point x="-618" y="805" type="line"/>
      <point x="-681" y="793"/>
      <point x="-713" y="735"/>
      <point x="-713" y="689" type="curve" smooth="yes"/>
      <point x="-713" y="644"/>
      <point x="-681" y="581"/>
    </contour>
  </outline>
</glyph>
<glyph name="uni1D15" format="2">
  <advance width="591"/>
  <unicode hex="1D15"/>
  <anchor x="295" y="0" name="bottom"/>
  <anchor x="295" y="536" name="top"/>
  <outline>
    <contour>
      <point x="299" y="-9" type="curve" smooth="yes"/>
      <point x="440" y="-9"/>
      <point x="519" y="53"/>
      <point x="519" y="157" type="curve" smooth="yes"/>
      <point x="519" y="237"/>
      <point x="449" y="292"/>
      <point x="367" y="314" type="curve"/>
      <point x="461" y="331"/>
      <point x="494" y="384"/>
      <point x="494" y="444" type="curve" smooth="yes"/>
      <point x="494" y="504"/>
      <point x="466" y="542"/>
      <point x="429" y="542" type="curve"/>
      <point x="445" y="525"/>
      <point x="468" y="498"/>
      <point x="468" y="444" type="curve" smooth="yes"/>
      <point x="468" y="393"/>
      <point x="423" y="318"/>
      <point x="299" y="318" type="curve" smooth="yes"/>
      <point x="182" y="318"/>
      <point x="126" y="389"/>
      <point x="126" y="444" type="curve" smooth="yes"/>
      <point x="126" y="500"/>
      <point x="149" y="527"/>
      <point x="162" y="542" type="curve"/>
      <point x="120" y="542"/>
      <point x="100" y="499"/>
      <point x="100" y="446" type="curve" smooth="yes"/>
      <point x="100" y="392"/>
      <point x="147" y="315"/>
      <point x="232" y="314" type="curve"/>
      <point x="143" y="298"/>
      <point x="71" y="235"/>
      <point x="71" y="157" type="curve" smooth="yes"/>
      <point x="71" y="61"/>
      <point x="150" y="-9"/>
    </contour>
    <contour>
      <point x="300" y="-1" type="curve" smooth="yes"/>
      <point x="167" y="-1"/>
      <point x="99" y="58"/>
      <point x="99" y="158" type="curve" smooth="yes"/>
      <point x="99" y="237"/>
      <point x="157" y="308"/>
      <point x="297" y="308" type="curve" smooth="yes"/>
      <point x="437" y="308"/>
      <point x="491" y="230"/>
      <point x="491" y="158" type="curve" smooth="yes"/>
      <point x="491" y="59"/>
      <point x="429" y="-1"/>
    </contour>
  </outline>
</glyph>
<glyph name="uni1D1A" format="2">
  <advance width="770"/>
  <unicode hex="1D1A"/>
  <anchor x="385" y="0" name="bottom"/>
  <anchor x="385" y="536" name="top"/>
  <outline>
    <contour>
      <point x="329" y="0" type="curve" smooth="yes"/>
      <point x="702" y="0" type="line"/>
      <point x="702" y="10" type="line"/>
      <point x="630" y="10" type="line" smooth="yes"/>
      <point x="583" y="10"/>
      <point x="583" y="14"/>
      <point x="583" y="82" type="curve" smooth="yes"/>
      <point x="583" y="454" type="line" smooth="yes"/>
      <point x="583" y="524"/>
      <point x="583" y="526"/>
      <point x="648" y="526" type="curve" smooth="yes"/>
      <point x="704" y="526" type="line"/>
      <point x="704" y="536" type="line"/>
      <point x="428" y="536" type="line"/>
      <point x="428" y="526" type="line"/>
      <point x="493" y="526" type="line" smooth="yes"/>
      <point x="553" y="526"/>
      <point x="555" y="524"/>
      <point x="555" y="454" type="curve" smooth="yes"/>
      <point x="555" y="292" type="line"/>
      <point x="331" y="292" type="line"/>
      <point x="189" y="469" type="line" smooth="yes"/>
      <point x="138" y="537"/>
      <point x="134" y="536"/>
      <point x="50" y="536" type="curve" smooth="yes"/>
      <point x="34" y="536" type="line"/>
      <point x="34" y="526" type="line"/>
      <point x="83" y="526"/>
      <point x="99" y="543"/>
      <point x="172" y="441" type="curve" smooth="yes"/>
      <point x="295" y="288" type="line"/>
      <point x="141" y="264"/>
      <point x="108" y="201"/>
      <point x="108" y="132" type="curve" smooth="yes"/>
      <point x="108" y="39"/>
      <point x="174" y="0"/>
    </contour>
    <contour>
      <point x="331" y="10" type="line" smooth="yes"/>
      <point x="209" y="10"/>
      <point x="136" y="56"/>
      <point x="136" y="140" type="curve" smooth="yes"/>
      <point x="136" y="232"/>
      <point x="210" y="282"/>
      <point x="354" y="282" type="curve" smooth="yes"/>
      <point x="555" y="282" type="line"/>
      <point x="555" y="10" type="line"/>
    </contour>
  </outline>
</glyph>
<glyph name="uni1D6F" format="2">
  <advance width="1097"/>
  <unicode hex="1D6F"/>
  <anchor x="550" y="536" name="top"/>
  <anchor x="998" y="536" name="topright"/>
  <anchor x="550" y="0" name="bottom"/>
  <outline>
    <contour>
      <point x="5" y="236" type="curve"/>
      <point x="15" y="236" type="line"/>
      <point x="21" y="266"/>
      <point x="42" y="315"/>
      <point x="145" y="315" type="curve" smooth="yes"/>
      <point x="368" y="315"/>
      <point x="694" y="237"/>
      <point x="991" y="237" type="curve" smooth="yes"/>
      <point x="1080" y="237"/>
      <point x="1126" y="299"/>
      <point x="1133" y="342" type="curve"/>
      <point x="1123" y="342" type="line"/>
      <point x="1112" y="316"/>
      <point x="1095" y="262"/>
      <point x="987" y="262" type="curve" smooth="yes"/>
      <point x="692" y="262"/>
      <point x="366" y="340"/>
      <point x="143" y="340" type="curve" smooth="yes"/>
      <point x="42" y="340"/>
      <point x="13" y="279"/>
    </contour>
    <component base="m"/>
  </outline>
</glyph>
<glyph name="uni1D7B" format="2">
  <advance width="373"/>
  <unicode hex="1D7B"/>
  <anchor x="191" y="0" name="bottom"/>
  <anchor x="191" y="536" name="top"/>
  <outline>
    <contour>
      <point x="47" y="290" type="line"/>
      <point x="332" y="290" type="line"/>
      <point x="332" y="300" type="line"/>
      <point x="47" y="300" type="line"/>
    </contour>
    <component base="uni026A"/>
  </outline>
</glyph>
<glyph name="uni1D7E" format="2">
  <advance width="787"/>
  <unicode hex="1D7E"/>
  <outline>
    <contour>
      <point x="391" y="-10" type="curve" smooth="yes"/>
      <point x="528" y="-10"/>
      <point x="584" y="40"/>
      <point x="584" y="215" type="curve" smooth="yes"/>
      <point x="584" y="287" type="line"/>
      <point x="711" y="287" type="line"/>
      <point x="711" y="297" type="line"/>
      <point x="584" y="297" type="line"/>
      <point x="584" y="439" type="line" smooth="yes"/>
      <point x="584" y="523"/>
      <point x="586" y="526"/>
      <point x="676" y="526" type="curve" smooth="yes"/>
      <point x="712" y="526" type="line"/>
      <point x="712" y="536" type="line"/>
      <point x="481" y="536" type="line"/>
      <point x="481" y="526" type="line"/>
      <point x="492" y="526" type="line" smooth="yes"/>
      <point x="588" y="526"/>
      <point x="589" y="523"/>
      <point x="589" y="439" type="curve" smooth="yes"/>
      <point x="589" y="297" type="line"/>
      <point x="217" y="297" type="line"/>
      <point x="217" y="536" type="line"/>
      <point x="51" y="536" type="line"/>
      <point x="51" y="526" type="line"/>
      <point x="96" y="526" type="line" smooth="yes"/>
      <point x="186" y="526"/>
      <point x="189" y="522"/>
      <point x="189" y="437" type="curve" smooth="yes"/>
      <point x="189" y="297" type="line"/>
      <point x="74" y="297" type="line"/>
      <point x="74" y="287" type="line"/>
      <point x="189" y="287" type="line"/>
      <point x="189" y="209" type="line" smooth="yes"/>
      <point x="189" y="65"/>
      <point x="240" y="-10"/>
    </contour>
    <contour>
      <point x="389" y="10" type="curve" smooth="yes"/>
      <point x="231" y="10"/>
      <point x="217" y="111"/>
      <point x="217" y="206" type="curve" smooth="yes"/>
      <point x="217" y="287" type="line"/>
      <point x="589" y="287" type="line"/>
      <point x="589" y="212" type="line" smooth="yes"/>
      <point x="589" y="81"/>
      <point x="549" y="10"/>
    </contour>
  </outline>
</glyph>
<glyph name="uni1D94" format="2">
  <advance width="546"/>
  <unicode hex="1D94"/>
  <anchor x="290" y="536" name="top"/>
  <anchor x="270" y="0" name="bottom"/>
  <outline>
    <contour>
      <point x="145" y="-199" type="curve" smooth="yes"/>
      <point x="178" y="-199"/>
      <point x="210" y="-189"/>
      <point x="210" y="-178" type="curve" smooth="yes"/>
      <point x="210" y="-169"/>
      <point x="206" y="-165"/>
      <point x="196" y="-161" type="curve"/>
      <point x="184" y="-161"/>
      <point x="176" y="-176"/>
      <point x="145" y="-176" type="curve" smooth="yes"/>
      <point x="87" y="-176"/>
      <point x="60" y="-148"/>
      <point x="60" y="-81" type="curve" smooth="yes"/>
      <point x="60" y="63" type="line"/>
      <point x="50" y="93" type="line"/>
      <point x="50" y="-88" type="line" smooth="yes"/>
      <point x="50" y="-126"/>
      <point x="60" y="-199"/>
    </contour>
    <component base="afii10073"/>
  </outline>
</glyph>
<glyph name="suspensionmark" format="2">
  <unicode hex="1DC3"/>
  <anchor x="-3" y="536" name="_top"/>
  <anchor x="-3" y="718" name="top"/>
  <outline>
    <contour>
      <point x="-72" y="602" type="curve" smooth="yes"/>
      <point x="-22" y="602"/>
      <point x="10" y="649"/>
      <point x="144" y="649" type="curve"/>
      <point x="167" y="649" type="line"/>
      <point x="167" y="671" type="line"/>
      <point x="145" y="671" type="line" smooth="yes"/>
      <point x="24" y="671"/>
      <point x="-32" y="624"/>
      <point x="-69" y="624" type="curve" smooth="yes"/>
      <point x="-116" y="624"/>
      <point x="-142" y="635"/>
      <point x="-157" y="701" type="curve" smooth="yes"/>
      <point x="-162" y="718" type="line"/>
      <point x="-172" y="718" type="line"/>
      <point x="-162" y="633"/>
      <point x="-130" y="602"/>
    </contour>
  </outline>
</glyph>
<glyph name="acutegraveacute" format="2">
  <unicode hex="1DC9"/>
  <anchor x="-7" y="540" name="_top"/>
  <anchor x="-7" y="735" name="top"/>
  <outline>
    <contour>
      <point x="98" y="646" type="line"/>
      <point x="242" y="705" type="line"/>
      <point x="233" y="725" type="line"/>
      <point x="94" y="666" type="line"/>
      <point x="-91" y="733" type="line"/>
      <point x="-256" y="665" type="line"/>
      <point x="-247" y="641" type="line"/>
      <point x="-93" y="712" type="line"/>
    </contour>
  </outline>
</glyph>
<glyph name="brevemacron" format="2">
  <unicode hex="1DCB"/>
  <anchor x="-154" y="536" name="_top"/>
  <anchor x="-154" y="699" name="top"/>
  <outline>
    <contour>
      <point x="-324" y="620" type="curve" smooth="yes"/>
      <point x="-256" y="620"/>
      <point x="-199" y="657"/>
      <point x="-186" y="699" type="curve"/>
      <point x="-196" y="699" type="line"/>
      <point x="-211" y="671"/>
      <point x="-263" y="654"/>
      <point x="-324" y="654" type="curve" smooth="yes"/>
      <point x="-390" y="654"/>
      <point x="-438" y="673"/>
      <point x="-450" y="699" type="curve"/>
      <point x="-460" y="699" type="line"/>
      <point x="-447" y="656"/>
      <point x="-389" y="620"/>
    </contour>
    <contour>
      <point x="-190" y="679" type="line"/>
      <point x="151" y="679" type="line"/>
      <point x="151" y="699" type="line"/>
      <point x="-190" y="699" type="line"/>
    </contour>
  </outline>
</glyph>
<glyph name="uni1E11" format="2">
  <advance width="701"/>
  <unicode hex="1E11"/>
  <anchor x="350" y="-221" name="bottom"/>
  <anchor x="350" y="760" name="top"/>
  <anchor x="611" y="760" name="topright"/>
  <anchor x="350" y="268" name="center"/>
  <outline>
    <contour>
      <point x="341" y="-224" type="curve" smooth="yes"/>
      <point x="400" y="-224"/>
      <point x="455" y="-213"/>
      <point x="455" y="-132" type="curve" smooth="yes"/>
      <point x="455" y="-68"/>
      <point x="396" y="-66"/>
      <point x="353" y="-56" type="curve"/>
      <point x="368" y="2" type="line"/>
      <point x="358" y="2" type="line"/>
      <point x="335" y="-85" type="line"/>
      <point x="398" y="-92"/>
      <point x="435" y="-103"/>
      <point x="435" y="-137" type="curve" smooth="yes"/>
      <point x="435" y="-204"/>
      <point x="395" y="-214"/>
      <point x="343" y="-214" type="curve" smooth="yes"/>
      <point x="307" y="-214"/>
      <point x="294" y="-212"/>
      <point x="263" y="-204" type="curve"/>
      <point x="263" y="-216" type="line"/>
      <point x="294" y="-223"/>
      <point x="319" y="-224"/>
    </contour>
    <component base="d"/>
  </outline>
</glyph>
<glyph name="uni1E29" format="2">
  <advance width="733"/>
  <unicode hex="1E29"/>
  <anchor x="367" y="-218" name="bottom"/>
  <anchor x="367" y="760" name="top"/>
  <outline>
    <contour>
      <point x="131" y="-224" type="curve" smooth="yes"/>
      <point x="190" y="-224"/>
      <point x="245" y="-213"/>
      <point x="245" y="-132" type="curve" smooth="yes"/>
      <point x="245" y="-68"/>
      <point x="186" y="-66"/>
      <point x="143" y="-56" type="curve"/>
      <point x="158" y="0" type="line"/>
      <point x="297" y="0" type="line"/>
      <point x="297" y="10" type="line"/>
      <point x="264" y="10" type="line" smooth="yes"/>
      <point x="178" y="10"/>
      <point x="176" y="12"/>
      <point x="176" y="82" type="curve" smooth="yes"/>
      <point x="176" y="335" type="line" smooth="yes"/>
      <point x="176" y="453"/>
      <point x="269" y="527"/>
      <point x="395" y="527" type="curve" smooth="yes"/>
      <point x="503" y="527"/>
      <point x="556" y="484"/>
      <point x="556" y="356" type="curve" smooth="yes"/>
      <point x="556" y="0" type="line"/>
      <point x="703" y="0" type="line"/>
      <point x="703" y="10" type="line"/>
      <point x="677" y="10" type="line" smooth="yes"/>
      <point x="587" y="10"/>
      <point x="584" y="9"/>
      <point x="584" y="84" type="curve" smooth="yes"/>
      <point x="584" y="360" type="line" smooth="yes"/>
      <point x="584" y="496"/>
      <point x="518" y="542"/>
      <point x="389" y="542" type="curve" smooth="yes"/>
      <point x="291" y="542"/>
      <point x="211" y="491"/>
      <point x="177" y="396" type="curve"/>
      <point x="175" y="396" type="line"/>
      <point x="176" y="452"/>
      <point x="176" y="455"/>
      <point x="176" y="469" type="curve" smooth="yes"/>
      <point x="176" y="760" type="line"/>
      <point x="37" y="760" type="line"/>
      <point x="37" y="750" type="line"/>
      <point x="71" y="750" type="line" smooth="yes"/>
      <point x="141" y="750"/>
      <point x="148" y="751"/>
      <point x="148" y="670" type="curve" smooth="yes"/>
      <point x="148" y="82" type="line" smooth="yes"/>
      <point x="148" y="12"/>
      <point x="146" y="10"/>
      <point x="61" y="10" type="curve" smooth="yes"/>
      <point x="20" y="10" type="line"/>
      <point x="20" y="0" type="line"/>
      <point x="148" y="0" type="line"/>
      <point x="125" y="-85" type="line"/>
      <point x="188" y="-92"/>
      <point x="225" y="-103"/>
      <point x="225" y="-137" type="curve" smooth="yes"/>
      <point x="225" y="-204"/>
      <point x="185" y="-214"/>
      <point x="133" y="-214" type="curve" smooth="yes"/>
      <point x="97" y="-214"/>
      <point x="84" y="-212"/>
      <point x="53" y="-204" type="curve"/>
      <point x="53" y="-216" type="line"/>
      <point x="84" y="-223"/>
      <point x="109" y="-224"/>
    </contour>
  </outline>
</glyph>
<glyph name="ll.middleWelsh" format="2">
  <advance width="601"/>
  <unicode hex="1EFB"/>
  <anchor x="302" y="0" name="bottom"/>
  <anchor x="302" y="760" name="top"/>
  <outline>
    <contour>
      <point x="7" y="0" type="line"/>
      <point x="594" y="0" type="line"/>
      <point x="594" y="10" type="line"/>
      <point x="538" y="10" type="line" smooth="yes"/>
      <point x="465" y="10"/>
      <point x="461" y="14"/>
      <point x="461" y="84" type="curve" smooth="yes"/>
      <point x="461" y="553" type="line"/>
      <point x="583" y="553" type="line"/>
      <point x="583" y="563" type="line"/>
      <point x="461" y="563" type="line"/>
      <point x="461" y="760" type="line"/>
      <point x="299" y="760" type="line"/>
      <point x="299" y="750" type="line"/>
      <point x="366" y="750" type="line" smooth="yes"/>
      <point x="426" y="750"/>
      <point x="433" y="746"/>
      <point x="433" y="672" type="curve" smooth="yes"/>
      <point x="433" y="563" type="line"/>
      <point x="169" y="563" type="line"/>
      <point x="169" y="760" type="line"/>
      <point x="7" y="760" type="line"/>
      <point x="7" y="750" type="line"/>
      <point x="74" y="750" type="line" smooth="yes"/>
      <point x="134" y="750"/>
      <point x="141" y="746"/>
      <point x="141" y="672" type="curve" smooth="yes"/>
      <point x="141" y="563" type="line"/>
      <point x="16" y="563" type="line"/>
      <point x="16" y="553" type="line"/>
      <point x="141" y="553" type="line"/>
      <point x="141" y="84" type="line" smooth="yes"/>
      <point x="141" y="14"/>
      <point x="137" y="10"/>
      <point x="64" y="10" type="curve" smooth="yes"/>
      <point x="7" y="10" type="line"/>
    </contour>
    <contour>
      <point x="246" y="10" type="line" smooth="yes"/>
      <point x="173" y="10"/>
      <point x="169" y="14"/>
      <point x="169" y="84" type="curve" smooth="yes"/>
      <point x="169" y="553" type="line"/>
      <point x="433" y="553" type="line"/>
      <point x="433" y="84" type="line" smooth="yes"/>
      <point x="433" y="14"/>
      <point x="429" y="10"/>
      <point x="356" y="10" type="curve" smooth="yes"/>
    </contour>
  </outline>
</glyph>
<glyph name="underscoredbl" format="2">
  <advance width="475"/>
  <unicode hex="2017"/>
  <outline>
    <contour>
      <point x="-7" y="-146" type="line"/>
      <point x="485" y="-146" type="line"/>
      <point x="485" y="-126" type="line"/>
      <point x="-7" y="-126" type="line"/>
    </contour>
    <contour>
      <point x="-7" y="-216" type="line"/>
      <point x="485" y="-216" type="line"/>
      <point x="485" y="-196" type="line"/>
      <point x="-7" y="-196" type="line"/>
    </contour>
  </outline>
</glyph>
<glyph name="twodotenleader" format="2">
  <advance width="596"/>
  <unicode hex="2025"/>
  <outline>
    <contour>
      <point x="491" y="318" type="curve" smooth="yes"/>
      <point x="504" y="318"/>
      <point x="523" y="324"/>
      <point x="523" y="359" type="curve" smooth="yes"/>
      <point x="523" y="391"/>
      <point x="504" y="395"/>
      <point x="491" y="395" type="curve" smooth="yes"/>
      <point x="482" y="395"/>
      <point x="462" y="391"/>
      <point x="462" y="359" type="curve" smooth="yes"/>
      <point x="462" y="324"/>
      <point x="482" y="318"/>
    </contour>
    <contour>
      <point x="104" y="317" type="curve" smooth="yes"/>
      <point x="117" y="317"/>
      <point x="136" y="323"/>
      <point x="136" y="358" type="curve" smooth="yes"/>
      <point x="136" y="390"/>
      <point x="117" y="394"/>
      <point x="104" y="394" type="curve" smooth="yes"/>
      <point x="95" y="394"/>
      <point x="75" y="390"/>
      <point x="75" y="358" type="curve" smooth="yes"/>
      <point x="75" y="323"/>
      <point x="95" y="317"/>
    </contour>
  </outline>
</glyph>
<glyph name="guilsinglleft" format="2">
  <advance width="376"/>
  <unicode hex="2039"/>
  <outline>
    <contour>
      <point x="250" y="93" type="line"/>
      <point x="272" y="93" type="line"/>
      <point x="127" y="270" type="line"/>
      <point x="272" y="447" type="line"/>
      <point x="250" y="447" type="line"/>
      <point x="93" y="274" type="line"/>
      <point x="93" y="266" type="line"/>
    </contour>
  </outline>
</glyph>
<glyph name="dottedcross" format="2">
  <advance width="866"/>
  <unicode hex="205C"/>
  <outline>
    <contour>
      <point x="134" y="0" type="curve" smooth="yes"/>
      <point x="152" y="0"/>
      <point x="165" y="8"/>
      <point x="165" y="41" type="curve" smooth="yes"/>
      <point x="165" y="71"/>
      <point x="152" y="77"/>
      <point x="134" y="77" type="curve" smooth="yes"/>
      <point x="121" y="77"/>
      <point x="106" y="71"/>
      <point x="106" y="41" type="curve" smooth="yes"/>
      <point x="106" y="8"/>
      <point x="121" y="0"/>
    </contour>
    <contour>
      <point x="134" y="459" type="curve" smooth="yes"/>
      <point x="152" y="459"/>
      <point x="165" y="467"/>
      <point x="165" y="500" type="curve" smooth="yes"/>
      <point x="165" y="530"/>
      <point x="152" y="536"/>
      <point x="134" y="536" type="curve" smooth="yes"/>
      <point x="121" y="536"/>
      <point x="106" y="530"/>
      <point x="106" y="500" type="curve" smooth="yes"/>
      <point x="106" y="467"/>
      <point x="121" y="459"/>
    </contour>
    <contour>
      <point x="731" y="0" type="curve" smooth="yes"/>
      <point x="749" y="0"/>
      <point x="762" y="8"/>
      <point x="762" y="41" type="curve" smooth="yes"/>
      <point x="762" y="71"/>
      <point x="749" y="77"/>
      <point x="731" y="77" type="curve" smooth="yes"/>
      <point x="718" y="77"/>
      <point x="703" y="71"/>
      <point x="703" y="41" type="curve" smooth="yes"/>
      <point x="703" y="8"/>
      <point x="718" y="0"/>
    </contour>
    <contour>
      <point x="731" y="459" type="curve" smooth="yes"/>
      <point x="749" y="459"/>
      <point x="762" y="467"/>
      <point x="762" y="500" type="curve" smooth="yes"/>
      <point x="762" y="530"/>
      <point x="749" y="536"/>
      <point x="731" y="536" type="curve" smooth="yes"/>
      <point x="718" y="536"/>
      <point x="703" y="530"/>
      <point x="703" y="500" type="curve" smooth="yes"/>
      <point x="703" y="467"/>
      <point x="718" y="459"/>
    </contour>
    <contour>
      <point x="428" y="0" type="line"/>
      <point x="448" y="0" type="line"/>
      <point x="448" y="259" type="line"/>
      <point x="772" y="259" type="line"/>
      <point x="772" y="279" type="line"/>
      <point x="448" y="279" type="line"/>
      <point x="448" y="536" type="line"/>
      <point x="428" y="536" type="line"/>
      <point x="428" y="279" type="line"/>
      <point x="106" y="279" type="line"/>
      <point x="106" y="259" type="line"/>
      <point x="428" y="259" type="line"/>
    </contour>
  </outline>
</glyph>
<glyph name="wordjoiner" format="2">
  <advance width="990"/>
  <unicode hex="2060"/>
  <outline>
    <contour>
      <point x="41" y="593" type="line"/>
      <point x="95" y="593" type="line"/>
      <point x="95" y="687" type="line"/>
      <point x="189" y="687" type="line"/>
      <point x="189" y="741" type="line"/>
      <point x="41" y="741" type="line"/>
    </contour>
    <contour>
      <point x="821" y="687" type="line"/>
      <point x="916" y="687" type="line"/>
      <point x="916" y="593" type="line"/>
      <point x="969" y="593" type="line"/>
      <point x="969" y="741" type="line"/>
      <point x="821" y="741" type="line"/>
    </contour>
    <contour>
      <point x="41" y="-187" type="line"/>
      <point x="189" y="-187" type="line"/>
      <point x="189" y="-134" type="line"/>
      <point x="95" y="-134" type="line"/>
      <point x="95" y="-39" type="line"/>
      <point x="41" y="-39" type="line"/>
    </contour>
    <contour>
      <point x="821" y="-187" type="line"/>
      <point x="969" y="-187" type="line"/>
      <point x="969" y="-39" type="line"/>
      <point x="916" y="-39" type="line"/>
      <point x="916" y="-134" type="line"/>
      <point x="821" y="-134" type="line"/>
    </contour>
    <contour>
      <point x="630" y="-187" type="line"/>
      <point x="763" y="-187" type="line"/>
      <point x="763" y="-134" type="line"/>
      <point x="630" y="-134" type="line"/>
    </contour>
    <contour>
      <point x="248" y="-187" type="line"/>
      <point x="380" y="-187" type="line"/>
      <point x="380" y="-134" type="line"/>
      <point x="248" y="-134" type="line"/>
    </contour>
    <contour>
      <point x="248" y="687" type="line"/>
      <point x="380" y="687" type="line"/>
      <point x="380" y="741" type="line"/>
      <point x="248" y="741" type="line"/>
    </contour>
    <contour>
      <point x="969" y="19" type="line"/>
      <point x="969" y="151" type="line"/>
      <point x="916" y="151" type="line"/>
      <point x="916" y="19" type="line"/>
    </contour>
    <contour>
      <point x="969" y="402" type="line"/>
      <point x="969" y="534" type="line"/>
      <point x="916" y="534" type="line"/>
      <point x="916" y="402" type="line"/>
    </contour>
    <contour>
      <point x="439" y="-187" type="line"/>
      <point x="572" y="-187" type="line"/>
      <point x="572" y="-134" type="line"/>
      <point x="439" y="-134" type="line"/>
    </contour>
    <contour>
      <point x="95" y="19" type="line"/>
      <point x="95" y="151" type="line"/>
      <point x="41" y="151" type="line"/>
      <point x="41" y="19" type="line"/>
    </contour>
    <contour>
      <point x="439" y="687" type="line"/>
      <point x="572" y="687" type="line"/>
      <point x="572" y="741" type="line"/>
      <point x="439" y="741" type="line"/>
    </contour>
    <contour>
      <point x="630" y="687" type="line"/>
      <point x="763" y="687" type="line"/>
      <point x="763" y="741" type="line"/>
      <point x="630" y="741" type="line"/>
    </contour>
    <contour>
      <point x="95" y="210" type="line"/>
      <point x="95" y="343" type="line"/>
      <point x="41" y="343" type="line"/>
      <point x="41" y="210" type="line"/>
    </contour>
    <contour>
      <point x="95" y="402" type="line"/>
      <point x="95" y="534" type="line"/>
      <point x="41" y="534" type="line"/>
      <point x="41" y="402" type="line"/>
    </contour>
    <contour>
      <point x="969" y="210" type="line"/>
      <point x="969" y="343" type="line"/>
      <point x="916" y="343" type="line"/>
      <point x="916" y="210" type="line"/>
    </contour>
    <contour>
      <point x="450" y="448" type="line"/>
      <point x="421" y="448" type="line"/>
      <point x="368" y="276" type="line" smooth="yes"/>
      <point x="363" y="260"/>
      <point x="359" y="246"/>
      <point x="355" y="229" type="curve"/>
      <point x="353" y="246"/>
      <point x="346" y="275"/>
      <point x="340" y="296" type="curve" smooth="yes"/>
      <point x="313" y="388" type="line" smooth="yes"/>
      <point x="311" y="395"/>
      <point x="309" y="405"/>
      <point x="309" y="410" type="curve" smooth="yes"/>
      <point x="309" y="423"/>
      <point x="317" y="429"/>
      <point x="333" y="429" type="curve" smooth="yes"/>
      <point x="342" y="429" type="line"/>
      <point x="342" y="450" type="line"/>
      <point x="209" y="450" type="line"/>
      <point x="209" y="429" type="line"/>
      <point x="214" y="429" type="line" smooth="yes"/>
      <point x="230" y="429"/>
      <point x="238" y="425"/>
      <point x="243" y="408" type="curve" smooth="yes"/>
      <point x="316" y="164" type="line"/>
      <point x="365" y="164" type="line"/>
      <point x="422" y="352" type="line"/>
      <point x="489" y="164" type="line"/>
      <point x="535" y="164" type="line"/>
      <point x="597" y="398" type="line"/>
      <point x="604" y="424"/>
      <point x="612" y="429"/>
      <point x="627" y="429" type="curve" smooth="yes"/>
      <point x="635" y="429" type="line"/>
      <point x="635" y="450" type="line"/>
      <point x="531" y="450" type="line"/>
      <point x="531" y="429" type="line"/>
      <point x="540" y="429" type="line" smooth="yes"/>
      <point x="557" y="429"/>
      <point x="565" y="424"/>
      <point x="565" y="410" type="curve" smooth="yes"/>
      <point x="565" y="406"/>
      <point x="563" y="395"/>
      <point x="562" y="389" type="curve" smooth="yes"/>
      <point x="541" y="302" type="line" smooth="yes"/>
      <point x="534" y="276"/>
      <point x="529" y="247"/>
      <point x="525" y="228" type="curve"/>
      <point x="522" y="242"/>
      <point x="514" y="269"/>
      <point x="505" y="294" type="curve" smooth="yes"/>
    </contour>
    <contour>
      <point x="784" y="429" type="line"/>
      <point x="784" y="450" type="line"/>
      <point x="647" y="450" type="line"/>
      <point x="647" y="429" type="line"/>
      <point x="663" y="429" type="line" smooth="yes"/>
      <point x="674" y="429"/>
      <point x="684" y="426"/>
      <point x="684" y="405" type="curve"/>
      <point x="684" y="163" type="line" smooth="yes"/>
      <point x="684" y="109"/>
      <point x="659" y="91"/>
      <point x="633" y="91" type="curve" smooth="yes"/>
      <point x="626" y="91" type="line"/>
      <point x="626" y="68" type="line"/>
      <point x="641" y="68" type="line" smooth="yes"/>
      <point x="695" y="68"/>
      <point x="747" y="91"/>
      <point x="747" y="163" type="curve" smooth="yes"/>
      <point x="747" y="403" type="line" smooth="yes"/>
      <point x="747" y="426"/>
      <point x="756" y="429"/>
      <point x="767" y="429" type="curve" smooth="yes"/>
    </contour>
  </outline>
</glyph>
<glyph name="uni20A1" format="2">
  <advance width="691"/>
  <unicode hex="20A1"/>
  <outline>
    <contour>
      <point x="364" y="39" type="curve" smooth="yes"/>
      <point x="534" y="39"/>
      <point x="622" y="99"/>
      <point x="622" y="136" type="curve" smooth="yes"/>
      <point x="622" y="145"/>
      <point x="618" y="154"/>
      <point x="602" y="160" type="curve"/>
      <point x="562" y="93"/>
      <point x="493" y="49"/>
      <point x="351" y="49" type="curve" smooth="yes"/>
      <point x="213" y="49"/>
      <point x="97" y="176"/>
      <point x="97" y="365" type="curve" smooth="yes"/>
      <point x="97" y="530"/>
      <point x="197" y="665"/>
      <point x="378" y="665" type="curve" smooth="yes"/>
      <point x="524" y="665"/>
      <point x="601" y="606"/>
      <point x="601" y="511" type="curve"/>
      <point x="619" y="511"/>
      <point x="628" y="528"/>
      <point x="628" y="551" type="curve" smooth="yes"/>
      <point x="628" y="615"/>
      <point x="531" y="675"/>
      <point x="391" y="675" type="curve" smooth="yes"/>
      <point x="178" y="675"/>
      <point x="69" y="544"/>
      <point x="69" y="366" type="curve" smooth="yes"/>
      <point x="69" y="171"/>
      <point x="185" y="39"/>
    </contour>
    <contour>
      <point x="173" y="-59" type="line"/>
      <point x="183" y="-59" type="line"/>
      <point x="376" y="760" type="line"/>
      <point x="366" y="760" type="line"/>
    </contour>
    <contour>
      <point x="337" y="-59" type="line"/>
      <point x="347" y="-59" type="line"/>
      <point x="540" y="760" type="line"/>
      <point x="530" y="760" type="line"/>
    </contour>
  </outline>
</glyph>
<glyph name="afii08941" format="2">
  <advance width="693"/>
  <unicode hex="20A4"/>
  <outline>
    <contour>
      <point x="128" y="6" type="line"/>
      <point x="157" y="19" type="line" smooth="yes"/>
      <point x="197" y="36"/>
      <point x="229" y="40"/>
      <point x="303" y="40" type="curve" smooth="yes"/>
      <point x="335" y="40"/>
      <point x="374" y="29"/>
      <point x="413" y="13" type="curve" smooth="yes"/>
      <point x="443" y="1"/>
      <point x="483" y="-12"/>
      <point x="525" y="-12" type="curve" smooth="yes"/>
      <point x="561" y="-12"/>
      <point x="604" y="-13"/>
      <point x="674" y="55" type="curve"/>
      <point x="660" y="58" type="line"/>
      <point x="602" y="-1"/>
      <point x="558" y="-1"/>
      <point x="545" y="-1" type="curve" smooth="yes"/>
      <point x="518" y="-1"/>
      <point x="472" y="30"/>
      <point x="415" y="52" type="curve" smooth="yes"/>
      <point x="370" y="69"/>
      <point x="335" y="74"/>
      <point x="302" y="74" type="curve" smooth="yes"/>
      <point x="258" y="74"/>
      <point x="244" y="66"/>
      <point x="174" y="35" type="curve"/>
      <point x="173" y="37" type="line"/>
      <point x="248" y="63"/>
      <point x="303" y="159"/>
      <point x="277" y="261" type="curve"/>
      <point x="434" y="261" type="line"/>
      <point x="434" y="271" type="line"/>
      <point x="271" y="271" type="line"/>
      <point x="266" y="311"/>
      <point x="253" y="348"/>
      <point x="240" y="368" type="curve"/>
      <point x="434" y="368" type="line"/>
      <point x="434" y="378" type="line"/>
      <point x="237" y="378" type="line"/>
      <point x="187" y="503"/>
      <point x="190" y="481"/>
      <point x="190" y="537" type="curve" smooth="yes"/>
      <point x="190" y="647"/>
      <point x="267" y="712"/>
      <point x="377" y="712" type="curve" smooth="yes"/>
      <point x="521" y="712"/>
      <point x="548" y="637"/>
      <point x="548" y="573" type="curve"/>
      <point x="558" y="573"/>
      <point x="574" y="589"/>
      <point x="574" y="613" type="curve" smooth="yes"/>
      <point x="574" y="682"/>
      <point x="491" y="722"/>
      <point x="376" y="722" type="curve" smooth="yes"/>
      <point x="263" y="722"/>
      <point x="162" y="653"/>
      <point x="162" y="533" type="curve" smooth="yes"/>
      <point x="162" y="491"/>
      <point x="175" y="451"/>
      <point x="208" y="378" type="curve"/>
      <point x="98" y="378" type="line"/>
      <point x="98" y="368" type="line"/>
      <point x="211" y="368" type="line"/>
      <point x="228" y="344"/>
      <point x="228" y="337"/>
      <point x="246" y="271" type="curve"/>
      <point x="98" y="271" type="line"/>
      <point x="98" y="261" type="line"/>
      <point x="249" y="261" type="line"/>
      <point x="271" y="165"/>
      <point x="240" y="90"/>
      <point x="156" y="41" type="curve" smooth="yes"/>
      <point x="128" y="24" type="line"/>
    </contour>
  </outline>
</glyph>
<glyph name="sheqel" format="2">
  <advance width="995"/>
  <unicode hex="20AA"/>
  <outline>
    <contour>
      <point x="152" y="0" type="line"/>
      <point x="180" y="0" type="line"/>
      <point x="180" y="589" type="line"/>
      <point x="399" y="589" type="line" smooth="yes"/>
      <point x="495" y="589"/>
      <point x="604" y="555"/>
      <point x="604" y="420" type="curve" smooth="yes"/>
      <point x="604" y="210" type="line"/>
      <point x="632" y="210" type="line"/>
      <point x="632" y="375" type="line" smooth="yes"/>
      <point x="632" y="533"/>
      <point x="564" y="599"/>
      <point x="381" y="599" type="curve" smooth="yes"/>
      <point x="152" y="599" type="line"/>
    </contour>
    <contour>
      <point x="364" y="0" type="line"/>
      <point x="595" y="0" type="line"/>
      <point x="781" y="0"/>
      <point x="844" y="69"/>
      <point x="844" y="224" type="curve" smooth="yes"/>
      <point x="844" y="599" type="line"/>
      <point x="816" y="599" type="line"/>
      <point x="816" y="179" type="line" smooth="yes"/>
      <point x="816" y="54"/>
      <point x="725" y="10"/>
      <point x="614" y="10" type="curve" smooth="yes"/>
      <point x="392" y="10" type="line"/>
      <point x="392" y="389" type="line"/>
      <point x="364" y="389" type="line"/>
    </contour>
  </outline>
</glyph>
<glyph name="uni20AE" format="2">
  <advance width="690"/>
  <unicode hex="20AE"/>
  <anchor x="346" y="714" name="top"/>
  <anchor x="346" y="357" name="center"/>
  <anchor x="670" y="714" name="topright"/>
  <anchor x="346" y="0" name="bottom"/>
  <outline>
    <contour>
      <point x="153" y="359" type="line"/>
      <point x="558" y="494" type="line"/>
      <point x="555" y="503" type="line"/>
      <point x="150" y="368" type="line"/>
    </contour>
    <contour>
      <point x="153" y="169" type="line"/>
      <point x="558" y="304" type="line"/>
      <point x="555" y="313" type="line"/>
      <point x="150" y="178" type="line"/>
    </contour>
    <component base="T"/>
  </outline>
</glyph>
<glyph name="uni20BA" format="2">
  <advance width="694"/>
  <unicode hex="20BA"/>
  <outline>
    <contour>
      <point x="56" y="0" type="line"/>
      <point x="330" y="0" type="line" smooth="yes"/>
      <point x="562" y="0"/>
      <point x="619" y="62"/>
      <point x="619" y="184" type="curve" smooth="yes"/>
      <point x="619" y="246"/>
      <point x="578" y="297"/>
      <point x="521" y="297" type="curve" smooth="yes"/>
      <point x="488" y="297"/>
      <point x="478" y="284"/>
      <point x="478" y="256" type="curve"/>
      <point x="553" y="261"/>
      <point x="607" y="236"/>
      <point x="607" y="176" type="curve" smooth="yes"/>
      <point x="607" y="54"/>
      <point x="513" y="10"/>
      <point x="369" y="10" type="curve" smooth="yes"/>
      <point x="237" y="10"/>
      <point x="206" y="2"/>
      <point x="206" y="21" type="curve" smooth="yes"/>
      <point x="206" y="327" type="line"/>
      <point x="392" y="389" type="line"/>
      <point x="392" y="400" type="line"/>
      <point x="206" y="338" type="line"/>
      <point x="206" y="459" type="line"/>
      <point x="392" y="521" type="line"/>
      <point x="392" y="532" type="line"/>
      <point x="206" y="470" type="line"/>
      <point x="206" y="614" type="line" smooth="yes"/>
      <point x="206" y="693"/>
      <point x="212" y="704"/>
      <point x="262" y="704" type="curve" smooth="yes"/>
      <point x="328" y="704" type="line"/>
      <point x="328" y="714" type="line"/>
      <point x="56" y="714" type="line"/>
      <point x="56" y="704" type="line"/>
      <point x="124" y="704" type="line" smooth="yes"/>
      <point x="172" y="704"/>
      <point x="178" y="693"/>
      <point x="178" y="614" type="curve" smooth="yes"/>
      <point x="178" y="464" type="line"/>
      <point x="34" y="416" type="line"/>
      <point x="34" y="405" type="line"/>
      <point x="178" y="453" type="line"/>
      <point x="178" y="334" type="line"/>
      <point x="34" y="284" type="line"/>
      <point x="34" y="275" type="line"/>
      <point x="178" y="323" type="line"/>
      <point x="178" y="98" type="line" smooth="yes"/>
      <point x="178" y="21"/>
      <point x="172" y="10"/>
      <point x="122" y="10" type="curve" smooth="yes"/>
      <point x="56" y="10" type="line"/>
    </contour>
  </outline>
</glyph>
<glyph name="response" format="2">
  <advance width="727"/>
  <unicode hex="211F"/>
  <anchor x="363" y="714" name="top"/>
  <anchor x="707" y="714" name="topright"/>
  <anchor x="363" y="0" name="bottom"/>
  <outline>
    <contour>
      <point x="115" y="-123" type="line"/>
      <point x="127" y="-123" type="line"/>
      <point x="515" y="788" type="line"/>
      <point x="290" y="856" type="line"/>
      <point x="286" y="845" type="line"/>
      <point x="503" y="782" type="line"/>
    </contour>
    <component base="R"/>
  </outline>
</glyph>
<glyph name="ounce" format="2">
  <advance width="583"/>
  <unicode hex="2125"/>
  <outline>
    <contour>
      <point x="253" y="-244" type="curve" smooth="yes"/>
      <point x="414" y="-244"/>
      <point x="506" y="-156"/>
      <point x="506" y="-17" type="curve" smooth="yes"/>
      <point x="506" y="106"/>
      <point x="442" y="215"/>
      <point x="174" y="215" type="curve"/>
      <point x="459" y="430" type="line"/>
      <point x="459" y="446" type="line"/>
      <point x="170" y="446" type="line"/>
      <point x="482" y="696" type="line"/>
      <point x="482" y="714" type="line"/>
      <point x="63" y="714" type="line"/>
      <point x="58" y="583" type="line"/>
      <point x="68" y="583" type="line"/>
      <point x="73" y="646" type="line" smooth="yes"/>
      <point x="76" y="681"/>
      <point x="83" y="694"/>
      <point x="111" y="694" type="curve" smooth="yes"/>
      <point x="462" y="694" type="line"/>
      <point x="146" y="440" type="line"/>
      <point x="146" y="426" type="line"/>
      <point x="437" y="426" type="line"/>
      <point x="157" y="215" type="line"/>
      <point x="157" y="200" type="line"/>
      <point x="192" y="200" type="line" smooth="yes"/>
      <point x="447" y="200"/>
      <point x="478" y="57"/>
      <point x="478" y="-9" type="curve" smooth="yes"/>
      <point x="478" y="-150"/>
      <point x="398" y="-234"/>
      <point x="252" y="-234" type="curve" smooth="yes"/>
      <point x="168" y="-234"/>
      <point x="94" y="-218"/>
      <point x="92" y="-151" type="curve"/>
      <point x="60" y="-151"/>
      <point x="49" y="-162"/>
      <point x="49" y="-172" type="curve" smooth="yes"/>
      <point x="49" y="-212"/>
      <point x="146" y="-244"/>
    </contour>
  </outline>
</glyph>
<glyph name="gimelsymbol" format="2">
  <advance width="376"/>
  <unicode hex="2137"/>
  <outline>
    <contour>
      <point x="34" y="-16" type="line"/>
      <point x="215" y="119" type="line" smooth="yes"/>
      <point x="212" y="116"/>
      <point x="241" y="164"/>
      <point x="243" y="150" type="curve"/>
      <point x="317" y="0" type="line"/>
      <point x="343" y="0" type="line"/>
      <point x="266" y="155" type="line" smooth="yes"/>
      <point x="256" y="179"/>
      <point x="252" y="199"/>
      <point x="252" y="230" type="curve" smooth="yes"/>
      <point x="252" y="391" type="line" smooth="yes"/>
      <point x="252" y="524"/>
      <point x="227" y="532"/>
      <point x="188" y="547" type="curve" smooth="yes"/>
      <point x="77" y="593" type="line"/>
      <point x="77" y="570" type="line"/>
      <point x="171" y="535" type="line" smooth="yes"/>
      <point x="207" y="522"/>
      <point x="227" y="508"/>
      <point x="227" y="393" type="curve" smooth="yes"/>
      <point x="227" y="281" type="line" smooth="yes"/>
      <point x="227" y="122"/>
      <point x="223" y="144"/>
      <point x="34" y="10" type="curve"/>
    </contour>
  </outline>
</glyph>
<glyph name="uni2C69" format="2">
  <advance width="882"/>
  <unicode hex="2C69"/>
  <anchor x="441" y="0" name="bottom"/>
  <anchor x="441" y="714" name="top"/>
  <outline>
    <contour>
      <point x="841" y="-210" type="curve"/>
      <point x="871" y="-210" type="line"/>
      <point x="871" y="45" type="line"/>
      <point x="804" y="45" type="line" smooth="yes"/>
      <point x="782" y="45"/>
      <point x="762" y="50"/>
      <point x="695" y="106" type="curve" smooth="yes"/>
      <point x="374" y="392" type="line"/>
      <point x="604" y="627" type="line" smooth="yes"/>
      <point x="679" y="699"/>
      <point x="707" y="702"/>
      <point x="760" y="704" type="curve"/>
      <point x="760" y="714" type="line"/>
      <point x="565" y="714" type="line"/>
      <point x="565" y="704" type="line"/>
      <point x="616" y="704"/>
      <point x="639" y="708"/>
      <point x="639" y="690" type="curve" smooth="yes"/>
      <point x="639" y="673"/>
      <point x="630" y="666"/>
      <point x="572" y="609" type="curve" smooth="yes"/>
      <point x="216" y="258" type="line"/>
      <point x="216" y="615" type="line" smooth="yes"/>
      <point x="216" y="693"/>
      <point x="222" y="704"/>
      <point x="272" y="704" type="curve" smooth="yes"/>
      <point x="333" y="704" type="line"/>
      <point x="333" y="714" type="line"/>
      <point x="64" y="714" type="line"/>
      <point x="64" y="704" type="line"/>
      <point x="132" y="704" type="line" smooth="yes"/>
      <point x="182" y="704"/>
      <point x="188" y="693"/>
      <point x="188" y="615" type="curve" smooth="yes"/>
      <point x="188" y="98" type="line" smooth="yes"/>
      <point x="188" y="21"/>
      <point x="182" y="10"/>
      <point x="132" y="10" type="curve" smooth="yes"/>
      <point x="64" y="10" type="line"/>
      <point x="64" y="0" type="line"/>
      <point x="337" y="0" type="line"/>
      <point x="337" y="10" type="line"/>
      <point x="272" y="10" type="line" smooth="yes"/>
      <point x="223" y="10"/>
      <point x="216" y="21"/>
      <point x="216" y="94" type="curve" smooth="yes"/>
      <point x="216" y="241" type="line"/>
      <point x="353" y="376" type="line"/>
      <point x="648" y="119" type="line" smooth="yes"/>
      <point x="730" y="38"/>
      <point x="773" y="6"/>
      <point x="776" y="4" type="curve" smooth="yes"/>
      <point x="837" y="-24"/>
      <point x="841" y="-14"/>
    </contour>
  </outline>
</glyph>
<glyph name="uni2C6C" format="2">
  <advance width="570"/>
  <unicode hex="2C6C"/>
  <anchor x="298" y="-210" name="bottom"/>
  <anchor x="298" y="536" name="top"/>
  <outline>
    <contour>
      <point x="520" y="-210" type="line"/>
      <point x="530" y="-210" type="line"/>
      <point x="530" y="15" type="line"/>
      <point x="127" y="15" type="line"/>
      <point x="536" y="534" type="line"/>
      <point x="536" y="536" type="line"/>
      <point x="109" y="536" type="line"/>
      <point x="101" y="420" type="line"/>
      <point x="111" y="420" type="line"/>
      <point x="113" y="452" type="line" smooth="yes"/>
      <point x="116" y="507"/>
      <point x="124" y="521"/>
      <point x="176" y="521" type="curve" smooth="yes"/>
      <point x="493" y="521" type="line"/>
      <point x="88" y="2" type="line"/>
      <point x="88" y="0" type="line"/>
      <point x="561" y="0" type="line" smooth="yes"/>
      <point x="508" y="0"/>
      <point x="505" y="20"/>
      <point x="505" y="88" type="curve" smooth="yes"/>
    </contour>
  </outline>
</glyph>
<glyph name="Turnede" format="2">
  <advance width="597"/>
  <unicode hex="2C7B"/>
  <anchor x="282" y="0" name="bottom"/>
  <anchor x="282" y="536" name="top"/>
  <outline>
    <contour>
      <point x="58" y="0" type="line"/>
      <point x="545" y="0" type="line"/>
      <point x="545" y="10" type="line"/>
      <point x="501" y="10" type="line" smooth="yes"/>
      <point x="446" y="10"/>
      <point x="442" y="12"/>
      <point x="442" y="82" type="curve" smooth="yes"/>
      <point x="442" y="454" type="line" smooth="yes"/>
      <point x="442" y="522"/>
      <point x="444" y="526"/>
      <point x="500" y="526" type="curve" smooth="yes"/>
      <point x="545" y="526" type="line"/>
      <point x="545" y="536" type="line"/>
      <point x="91" y="536" type="line"/>
      <point x="84" y="408" type="line"/>
      <point x="94" y="408" type="line"/>
      <point x="97" y="473" type="line" smooth="yes"/>
      <point x="99" y="510"/>
      <point x="109" y="526"/>
      <point x="153" y="526" type="curve" smooth="yes"/>
      <point x="414" y="526" type="line"/>
      <point x="414" y="288" type="line"/>
      <point x="166" y="288" type="line"/>
      <point x="166" y="278" type="line"/>
      <point x="414" y="278" type="line"/>
      <point x="414" y="10" type="line"/>
      <point x="134" y="10" type="line" smooth="yes"/>
      <point x="80" y="10"/>
      <point x="68" y="29"/>
      <point x="67" y="26" type="curve" smooth="yes"/>
      <point x="62" y="128" type="line"/>
      <point x="52" y="128" type="line"/>
    </contour>
  </outline>
</glyph>
<glyph name="uni2C7E" format="2">
  <advance width="598"/>
  <unicode hex="2C7E"/>
  <anchor x="339" y="714" name="top"/>
  <anchor x="578" y="714" name="topright"/>
  <anchor x="319" y="0" name="bottom"/>
  <outline>
    <contour>
      <point x="446" y="-240" type="curve" smooth="yes"/>
      <point x="493" y="-240"/>
      <point x="528" y="-225"/>
      <point x="528" y="-195" type="curve" smooth="yes"/>
      <point x="528" y="-180"/>
      <point x="518" y="-169"/>
      <point x="505" y="-169" type="curve"/>
      <point x="505" y="-194"/>
      <point x="502" y="-230"/>
      <point x="444" y="-230" type="curve" smooth="yes"/>
      <point x="388" y="-230"/>
      <point x="378" y="-212"/>
      <point x="360" y="-159" type="curve" smooth="yes"/>
      <point x="338" y="-88"/>
      <point x="316" y="-37"/>
      <point x="267" y="-7" type="curve"/>
      <point x="195" y="15" type="line"/>
      <point x="301" y="-5"/>
      <point x="315" y="-78"/>
      <point x="325" y="-110" type="curve" smooth="yes"/>
      <point x="344" y="-196"/>
      <point x="365" y="-240"/>
    </contour>
    <component base="S"/>
  </outline>
</glyph>
<glyph name="rightanglesubstitutionmarker" format="2">
  <advance width="425"/>
  <unicode hex="2E00"/>
  <outline>
    <contour>
      <point x="107" y="246" type="line"/>
      <point x="127" y="246" type="line"/>
      <point x="127" y="694" type="line"/>
      <point x="370" y="694" type="line"/>
      <point x="370" y="714" type="line"/>
      <point x="107" y="714" type="line"/>
    </contour>
  </outline>
</glyph>
<glyph name="raisedsquare" format="2">
  <advance width="635"/>
  <unicode hex="2E0B"/>
  <outline>
    <contour>
      <point x="83" y="325" type="line"/>
      <point x="552" y="325" type="line"/>
      <point x="552" y="694" type="line"/>
      <point x="83" y="694" type="line"/>
    </contour>
    <contour>
      <point x="103" y="345" type="line"/>
      <point x="103" y="674" type="line"/>
      <point x="532" y="674" type="line"/>
      <point x="532" y="345" type="line"/>
    </contour>
  </outline>
</glyph>
<glyph name="leftraisedomissionbracket" format="2">
  <advance width="635"/>
  <unicode hex="2E0C"/>
  <outline>
    <contour>
      <point x="511" y="358" type="line"/>
      <point x="523" y="374" type="line"/>
      <point x="125" y="685" type="line"/>
      <point x="113" y="669" type="line"/>
    </contour>
  </outline>
</glyph>
<glyph name="dottedobelos" format="2">
  <advance width="932"/>
  <unicode hex="2E13"/>
  <outline>
    <contour>
      <point x="114" y="0" type="line"/>
      <point x="149" y="0" type="line"/>
      <point x="804" y="714" type="line"/>
      <point x="767" y="714" type="line"/>
    </contour>
    <contour>
      <point x="263" y="390" type="curve" smooth="yes"/>
      <point x="281" y="390"/>
      <point x="294" y="398"/>
      <point x="294" y="431" type="curve" smooth="yes"/>
      <point x="294" y="461"/>
      <point x="281" y="467"/>
      <point x="263" y="467" type="curve" smooth="yes"/>
      <point x="250" y="467"/>
      <point x="235" y="461"/>
      <point x="235" y="431" type="curve" smooth="yes"/>
      <point x="235" y="398"/>
      <point x="250" y="390"/>
    </contour>
    <contour>
      <point x="664" y="247" type="curve" smooth="yes"/>
      <point x="682" y="247"/>
      <point x="695" y="255"/>
      <point x="695" y="288" type="curve" smooth="yes"/>
      <point x="695" y="318"/>
      <point x="682" y="324"/>
      <point x="664" y="324" type="curve" smooth="yes"/>
      <point x="651" y="324"/>
      <point x="636" y="318"/>
      <point x="636" y="288" type="curve" smooth="yes"/>
      <point x="636" y="255"/>
      <point x="651" y="247"/>
    </contour>
  </outline>
</glyph>
<glyph name="hyphendieresis" format="2">
  <advance width="384"/>
  <unicode hex="2E1A"/>
  <outline>
    <contour>
      <point x="50" y="263" type="line"/>
      <point x="334" y="263" type="line"/>
      <point x="334" y="283" type="line"/>
      <point x="50" y="283" type="line"/>
    </contour>
    <contour>
      <point x="65" y="441" type="curve" smooth="yes"/>
      <point x="76" y="441"/>
      <point x="84" y="446"/>
      <point x="84" y="485" type="curve" smooth="yes"/>
      <point x="84" y="520"/>
      <point x="76" y="527"/>
      <point x="65" y="527" type="curve" smooth="yes"/>
      <point x="55" y="527"/>
      <point x="45" y="520"/>
      <point x="45" y="485" type="curve" smooth="yes"/>
      <point x="45" y="446"/>
      <point x="55" y="441"/>
    </contour>
    <contour>
      <point x="318" y="441" type="curve" smooth="yes"/>
      <point x="329" y="441"/>
      <point x="338" y="446"/>
      <point x="338" y="485" type="curve" smooth="yes"/>
      <point x="338" y="520"/>
      <point x="329" y="527"/>
      <point x="318" y="527" type="curve" smooth="yes"/>
      <point x="309" y="527"/>
      <point x="298" y="520"/>
      <point x="298" y="485" type="curve" smooth="yes"/>
      <point x="298" y="446"/>
      <point x="309" y="441"/>
    </contour>
  </outline>
</glyph>
<glyph name="rightverticalbarwithquill" format="2">
  <advance width="693"/>
  <unicode hex="2E21"/>
  <outline>
    <contour>
      <point x="339" y="-240" type="line"/>
      <point x="359" y="-240" type="line"/>
      <point x="359" y="760" type="line"/>
      <point x="339" y="760" type="line"/>
      <point x="339" y="267" type="line"/>
      <point x="78" y="267" type="line"/>
      <point x="78" y="257" type="line"/>
      <point x="339" y="257" type="line"/>
    </contour>
  </outline>
</glyph>
<glyph name="twodotsoveronedotpunctuation" format="2">
  <advance width="731"/>
  <unicode hex="2E2A"/>
  <outline>
    <contour>
      <point x="182" y="340" type="curve" smooth="yes"/>
      <point x="199" y="340"/>
      <point x="213" y="348"/>
      <point x="213" y="378" type="curve" smooth="yes"/>
      <point x="213" y="409"/>
      <point x="199" y="418"/>
      <point x="182" y="418" type="curve" smooth="yes"/>
      <point x="167" y="418"/>
      <point x="152" y="409"/>
      <point x="152" y="378" type="curve" smooth="yes"/>
      <point x="152" y="348"/>
      <point x="167" y="340"/>
    </contour>
    <contour>
      <point x="546" y="340" type="curve" smooth="yes"/>
      <point x="562" y="340"/>
      <point x="576" y="348"/>
      <point x="576" y="378" type="curve" smooth="yes"/>
      <point x="576" y="409"/>
      <point x="562" y="418"/>
      <point x="546" y="418" type="curve" smooth="yes"/>
      <point x="530" y="418"/>
      <point x="515" y="409"/>
      <point x="515" y="378" type="curve" smooth="yes"/>
      <point x="515" y="348"/>
      <point x="530" y="340"/>
    </contour>
    <contour>
      <point x="364" y="-8" type="curve" smooth="yes"/>
      <point x="381" y="-8"/>
      <point x="395" y="0"/>
      <point x="395" y="30" type="curve" smooth="yes"/>
      <point x="395" y="61"/>
      <point x="381" y="70"/>
      <point x="364" y="70" type="curve" smooth="yes"/>
      <point x="349" y="70"/>
      <point x="333" y="61"/>
      <point x="333" y="30" type="curve" smooth="yes"/>
      <point x="333" y="0"/>
      <point x="349" y="-8"/>
    </contour>
  </outline>
</glyph>
<glyph name="uni2E3F" format="2">
  <advance width="752"/>
  <unicode hex="2E3F"/>
  <outline>
    <contour>
      <point x="214" y="-111" type="line"/>
      <point x="377" y="-111" type="line"/>
      <point x="377" y="259" type="line"/>
      <point x="561" y="259" type="line"/>
      <point x="561" y="-111" type="line"/>
      <point x="700" y="-111" type="line"/>
      <point x="700" y="-101" type="line"/>
      <point x="645" y="-101" type="line" smooth="yes"/>
      <point x="605" y="-101"/>
      <point x="589" y="-93"/>
      <point x="589" y="-95" type="curve" smooth="yes"/>
      <point x="589" y="259" type="line"/>
      <point x="682" y="259" type="line"/>
      <point x="682" y="269" type="line"/>
      <point x="589" y="269" type="line"/>
      <point x="589" y="704" type="line"/>
      <point x="694" y="704" type="line"/>
      <point x="694" y="714" type="line"/>
      <point x="589" y="714" type="line"/>
      <point x="589" y="790" type="line"/>
      <point x="561" y="790" type="line"/>
      <point x="561" y="714" type="line"/>
      <point x="377" y="714" type="line"/>
      <point x="377" y="790" type="line"/>
      <point x="349" y="790" type="line"/>
      <point x="349" y="713" type="line"/>
      <point x="167" y="710"/>
      <point x="47" y="609"/>
      <point x="47" y="486" type="curve" smooth="yes"/>
      <point x="47" y="358"/>
      <point x="138" y="274"/>
      <point x="349" y="258" type="curve"/>
      <point x="349" y="-95" type="line" smooth="yes"/>
      <point x="349" y="-94"/>
      <point x="323" y="-101"/>
      <point x="281" y="-101" type="curve" smooth="yes"/>
      <point x="214" y="-101" type="line"/>
    </contour>
    <contour>
      <point x="349" y="271" type="line"/>
      <point x="178" y="284"/>
      <point x="75" y="325"/>
      <point x="75" y="488" type="curve" smooth="yes"/>
      <point x="75" y="629"/>
      <point x="171" y="692"/>
      <point x="349" y="701" type="curve"/>
    </contour>
    <contour>
      <point x="377" y="269" type="line"/>
      <point x="377" y="704" type="line"/>
      <point x="561" y="704" type="line"/>
      <point x="561" y="269" type="line"/>
    </contour>
  </outline>
</glyph>
<glyph name="uni2E43" format="2">
  <advance width="1300"/>
  <unicode hex="2E43"/>
  <outline>
    <contour>
      <point x="119" y="267" type="curve" smooth="yes"/>
      <point x="1260" y="267" type="line"/>
      <point x="1260" y="287" type="line"/>
      <point x="135" y="287" type="line" smooth="yes"/>
      <point x="79" y="287"/>
      <point x="76" y="293"/>
      <point x="76" y="304" type="curve" smooth="yes"/>
      <point x="76" y="309"/>
      <point x="80" y="326"/>
      <point x="80" y="349" type="curve" smooth="yes"/>
      <point x="80" y="363"/>
      <point x="81" y="379"/>
      <point x="60" y="379" type="curve" smooth="yes"/>
      <point x="48" y="379"/>
      <point x="40" y="370"/>
      <point x="40" y="338" type="curve" smooth="yes"/>
      <point x="40" y="286"/>
      <point x="61" y="267"/>
    </contour>
  </outline>
</glyph>
<glyph name="uniA640" format="2">
  <advance width="605"/>
  <unicode hex="A640"/>
  <outline>
    <contour>
      <point x="71" y="-169" type="curve"/>
      <point x="71" y="-115"/>
      <point x="103" y="-103"/>
      <point x="142" y="-103" type="curve" smooth="yes"/>
      <point x="213" y="-103"/>
      <point x="314" y="-189"/>
      <point x="446" y="-189" type="curve" smooth="yes"/>
      <point x="538" y="-189"/>
      <point x="597" y="-150"/>
      <point x="597" y="-89" type="curve" smooth="yes"/>
      <point x="597" y="-24"/>
      <point x="547" y="15"/>
      <point x="471" y="15" type="curve" smooth="yes"/>
      <point x="59" y="15" type="line"/>
      <point x="546" y="669" type="line"/>
      <point x="546" y="714" type="line"/>
      <point x="63" y="714" type="line"/>
      <point x="57" y="582" type="line"/>
      <point x="67" y="582" type="line"/>
      <point x="72" y="630" type="line" smooth="yes"/>
      <point x="77" y="685"/>
      <point x="81" y="699"/>
      <point x="133" y="699" type="curve" smooth="yes"/>
      <point x="529" y="699" type="line"/>
      <point x="34" y="31" type="line"/>
      <point x="34" y="0" type="line"/>
      <point x="474" y="0" type="line" smooth="yes"/>
      <point x="548" y="0"/>
      <point x="587" y="-30"/>
      <point x="587" y="-87" type="curve" smooth="yes"/>
      <point x="587" y="-153"/>
      <point x="519" y="-180"/>
      <point x="449" y="-180" type="curve" smooth="yes"/>
      <point x="327" y="-180"/>
      <point x="275" y="-93"/>
      <point x="151" y="-93" type="curve" smooth="yes"/>
      <point x="91" y="-93"/>
      <point x="42" y="-109"/>
      <point x="42" y="-150" type="curve" smooth="yes"/>
      <point x="42" y="-172"/>
      <point x="57" y="-169"/>
    </contour>
  </outline>
</glyph>
<glyph name="uniA64D" format="2">
  <advance width="915"/>
  <unicode hex="A64D"/>
  <outline>
    <contour>
      <point x="275" y="-10" type="curve" smooth="yes"/>
      <point x="363" y="-10"/>
      <point x="418" y="34"/>
      <point x="459" y="104" type="curve"/>
      <point x="509" y="24"/>
      <point x="558" y="-10"/>
      <point x="638" y="-10" type="curve" smooth="yes"/>
      <point x="805" y="-10"/>
      <point x="825" y="146"/>
      <point x="825" y="244" type="curve" smooth="yes"/>
      <point x="825" y="431"/>
      <point x="773" y="544"/>
      <point x="632" y="544" type="curve" smooth="yes"/>
      <point x="571" y="544"/>
      <point x="537" y="517"/>
      <point x="537" y="484" type="curve" smooth="yes"/>
      <point x="537" y="456"/>
      <point x="554" y="452"/>
      <point x="566" y="452" type="curve"/>
      <point x="567" y="520"/>
      <point x="592" y="534"/>
      <point x="634" y="534" type="curve" smooth="yes"/>
      <point x="707" y="534"/>
      <point x="797" y="518"/>
      <point x="797" y="245" type="curve" smooth="yes"/>
      <point x="797" y="105"/>
      <point x="748" y="0"/>
      <point x="636" y="0" type="curve" smooth="yes"/>
      <point x="578" y="0"/>
      <point x="521" y="4"/>
      <point x="479" y="97" type="curve"/>
      <point x="440" y="97" type="line"/>
      <point x="399" y="12"/>
      <point x="341" y="0"/>
      <point x="278" y="0" type="curve" smooth="yes"/>
      <point x="165" y="0"/>
      <point x="118" y="111"/>
      <point x="118" y="241" type="curve" smooth="yes"/>
      <point x="118" y="542"/>
      <point x="215" y="534"/>
      <point x="281" y="534" type="curve" smooth="yes"/>
      <point x="329" y="534"/>
      <point x="349" y="512"/>
      <point x="349" y="452" type="curve"/>
      <point x="361" y="452"/>
      <point x="378" y="457"/>
      <point x="378" y="484" type="curve" smooth="yes"/>
      <point x="378" y="515"/>
      <point x="346" y="544"/>
      <point x="283" y="544" type="curve" smooth="yes"/>
      <point x="144" y="544"/>
      <point x="90" y="434"/>
      <point x="90" y="244" type="curve" smooth="yes"/>
      <point x="90" y="137"/>
      <point x="114" y="-10"/>
    </contour>
  </outline>
</glyph>
<glyph name="uniA659" format="2">
  <advance width="592"/>
  <unicode hex="A659"/>
  <outline>
    <contour>
      <point x="-6" y="0" type="line"/>
      <point x="556" y="0" type="line"/>
      <point x="556" y="10" type="line"/>
      <point x="523" y="10"/>
      <point x="538" y="5"/>
      <point x="493" y="106" type="curve" smooth="yes"/>
      <point x="271" y="536" type="line"/>
      <point x="274" y="536" type="line"/>
      <point x="70" y="86" type="line" smooth="yes"/>
      <point x="45" y="27"/>
      <point x="32" y="10"/>
      <point x="-6" y="10" type="curve"/>
    </contour>
    <contour>
      <point x="53" y="10" type="line"/>
      <point x="163" y="262" type="line"/>
      <point x="380" y="262" type="line"/>
      <point x="505" y="10" type="line"/>
    </contour>
    <contour>
      <point x="168" y="272" type="line"/>
      <point x="237" y="455" type="line" smooth="yes"/>
      <point x="246" y="466"/>
      <point x="251" y="468"/>
      <point x="266" y="497" type="curve"/>
      <point x="268" y="497" type="line"/>
      <point x="287" y="444"/>
      <point x="300" y="420"/>
      <point x="303" y="431" type="curve" smooth="yes"/>
      <point x="375" y="272" type="line"/>
    </contour>
  </outline>
</glyph>
<glyph name="uniA688" format="2">
  <advance width="839"/>
  <unicode hex="A688"/>
  <outline>
    <contour>
      <point x="711" y="-242" type="curve" smooth="yes"/>
      <point x="784" y="-242"/>
      <point x="826" y="-212"/>
      <point x="826" y="-157" type="curve" smooth="yes"/>
      <point x="826" y="-134"/>
      <point x="814" y="-99"/>
      <point x="764" y="-90" type="curve"/>
      <point x="789" y="-85"/>
      <point x="816" y="-75"/>
      <point x="816" y="-43" type="curve" smooth="yes"/>
      <point x="816" y="-18"/>
      <point x="788" y="5"/>
      <point x="725" y="5" type="curve" smooth="yes"/>
      <point x="647" y="5"/>
      <point x="632" y="8"/>
      <point x="632" y="118" type="curve" smooth="yes"/>
      <point x="632" y="587" type="line" smooth="yes"/>
      <point x="632" y="673"/>
      <point x="640" y="684"/>
      <point x="682" y="684" type="curve" smooth="yes"/>
      <point x="760" y="684" type="line"/>
      <point x="760" y="714" type="line"/>
      <point x="238" y="714" type="line"/>
      <point x="238" y="684" type="line"/>
      <point x="323" y="684" type="line" smooth="yes"/>
      <point x="386" y="684"/>
      <point x="372" y="660"/>
      <point x="372" y="623" type="curve" smooth="yes"/>
      <point x="372" y="402"/>
      <point x="172" y="41"/>
      <point x="139" y="15" type="curve"/>
      <point x="30" y="15" type="line"/>
      <point x="30" y="-210" type="line"/>
      <point x="40" y="-210" type="line"/>
      <point x="44" y="-34"/>
      <point x="49" y="0"/>
      <point x="20" y="0" type="curve" smooth="yes"/>
      <point x="739" y="0" type="line" smooth="yes"/>
      <point x="785" y="0"/>
      <point x="788" y="-31"/>
      <point x="788" y="-46" type="curve" smooth="yes"/>
      <point x="788" y="-85"/>
      <point x="740" y="-88"/>
      <point x="715" y="-88" type="curve" smooth="yes"/>
      <point x="683" y="-88" type="line"/>
      <point x="683" y="-98" type="line"/>
      <point x="711" y="-98" type="line" smooth="yes"/>
      <point x="761" y="-98"/>
      <point x="798" y="-119"/>
      <point x="798" y="-159" type="curve" smooth="yes"/>
      <point x="798" y="-211"/>
      <point x="766" y="-232"/>
      <point x="708" y="-232" type="curve" smooth="yes"/>
      <point x="651" y="-232"/>
      <point x="631" y="-212"/>
      <point x="631" y="-171" type="curve"/>
      <point x="605" y="-171"/>
      <point x="598" y="-179"/>
      <point x="598" y="-194" type="curve" smooth="yes"/>
      <point x="598" y="-218"/>
      <point x="638" y="-242"/>
    </contour>
    <contour>
      <point x="145" y="5" type="line"/>
      <point x="218" y="128"/>
      <point x="385" y="424"/>
      <point x="393" y="674" type="curve"/>
      <point x="604" y="674" type="line"/>
      <point x="604" y="5" type="line"/>
    </contour>
  </outline>
</glyph>
<glyph name="uniA68C" format="2">
  <advance width="690"/>
  <unicode hex="A68C"/>
  <outline>
    <contour>
      <point x="440" y="-10" type="curve" smooth="yes"/>
      <point x="484" y="-10"/>
      <point x="524" y="-4"/>
      <point x="559" y="9" type="curve"/>
      <point x="559" y="18" type="line"/>
      <point x="531" y="9"/>
      <point x="479" y="0"/>
      <point x="444" y="0" type="curve" smooth="yes"/>
      <point x="367" y="0"/>
      <point x="356" y="45"/>
      <point x="356" y="128" type="curve" smooth="yes"/>
      <point x="356" y="704" type="line"/>
      <point x="643" y="704" type="line"/>
      <point x="643" y="714" type="line"/>
      <point x="47" y="714" type="line"/>
      <point x="41" y="562" type="line"/>
      <point x="51" y="562" type="line"/>
      <point x="57" y="693" type="line" smooth="yes"/>
      <point x="57" y="684"/>
      <point x="77" y="704"/>
      <point x="91" y="704" type="curve" smooth="yes"/>
      <point x="328" y="704" type="line"/>
      <point x="328" y="113" type="line" smooth="yes"/>
      <point x="328" y="12"/>
      <point x="365" y="-10"/>
    </contour>
  </outline>
</glyph>
<glyph name="uniA699" format="2">
  <advance width="1112"/>
  <unicode hex="A699"/>
  <outline>
    <contour>
      <point x="325" y="-10" type="curve" smooth="yes"/>
      <point x="452" y="-10"/>
      <point x="526" y="50"/>
      <point x="556" y="158" type="curve"/>
      <point x="589" y="50"/>
      <point x="669" y="-10"/>
      <point x="786" y="-10" type="curve" smooth="yes"/>
      <point x="947" y="-10"/>
      <point x="1031" y="85"/>
      <point x="1031" y="267" type="curve" smooth="yes"/>
      <point x="1031" y="469"/>
      <point x="939" y="542"/>
      <point x="794" y="542" type="curve" smooth="yes"/>
      <point x="667" y="542"/>
      <point x="592" y="486"/>
      <point x="556" y="381" type="curve"/>
      <point x="524" y="491"/>
      <point x="449" y="542"/>
      <point x="333" y="542" type="curve" smooth="yes"/>
      <point x="173" y="542"/>
      <point x="82" y="457"/>
      <point x="82" y="267" type="curve" smooth="yes"/>
      <point x="82" y="82"/>
      <point x="177" y="-10"/>
    </contour>
    <contour>
      <point x="324" y="0" type="curve" smooth="yes"/>
      <point x="175" y="0"/>
      <point x="112" y="99"/>
      <point x="110" y="267" type="curve" smooth="yes"/>
      <point x="108" y="449"/>
      <point x="178" y="532"/>
      <point x="335" y="532" type="curve" smooth="yes"/>
      <point x="471" y="532"/>
      <point x="542" y="457"/>
      <point x="542" y="267" type="curve" smooth="yes"/>
      <point x="542" y="112"/>
      <point x="485" y="0"/>
    </contour>
    <contour>
      <point x="785" y="0" type="curve" smooth="yes"/>
      <point x="636" y="0"/>
      <point x="572" y="99"/>
      <point x="570" y="267" type="curve" smooth="yes"/>
      <point x="568" y="449"/>
      <point x="639" y="532"/>
      <point x="796" y="532" type="curve" smooth="yes"/>
      <point x="932" y="532"/>
      <point x="1003" y="457"/>
      <point x="1003" y="267" type="curve" smooth="yes"/>
      <point x="1003" y="112"/>
      <point x="946" y="0"/>
    </contour>
  </outline>
</glyph>
